<svg xmlns="http://www.w3.org/2000/svg" width="55.886" height="67.7" viewBox="0 0 55.886 67.7">
  <g id="Group_227" data-name="Group 227" transform="translate(-10.772 97.5)">
    <path id="Path_301" data-name="Path 301" d="M78.031-37.4H54.8a.973.973,0,0,0-1,1,.973.973,0,0,0,1,1H56.15L58.859-13.81a1.066,1.066,0,0,0,1,.927H72.967a1,1,0,0,0,1-.927L76.672-35.4h1.353a.973.973,0,0,0,1-1,.964.964,0,0,0-.991-1ZM64.989-20.581l-.142-3.563h3.135l-.142,3.563Zm2.778,2.068-.142,3.563H65.2l-.142-3.563ZM58.932-29.773h3.636l.142,3.563H59.36Zm.713,5.629h3.135l.142,3.563H60.07Zm10.406,0h3.135l-.429,3.563H69.906Zm.07-2.066.142-3.563H73.9l-.429,3.563Zm-2.066,0H64.706l-.142-3.563H68.2Zm-3.494-5.559-.142-3.563h4.062l-.142,3.563Zm-2.208-3.563.142,3.563H58.718l-.429-3.563Zm-2,16.82h2.709l.142,3.563H60.856Zm9.337,3.563.142-3.563h2.709l-.429,3.563Zm4.488-16.82H70.4l.142-3.563h4.064Z" transform="translate(-12.364 -17.27)"/>
    <path id="Path_302" data-name="Path 302" d="M73.489-45.1l.429,1.64a1.186,1.186,0,0,0,1.5.855l1.64-.429a1.186,1.186,0,0,0,.855-1.5l-.429-1.64a1.186,1.186,0,0,0-1.5-.855l-1.64.429A1.35,1.35,0,0,0,73.489-45.1Z" transform="translate(-18.013 -14.487)"/>
    <path id="Path_303" data-name="Path 303" d="M66.952-46.454l-1.64-.571a1.249,1.249,0,0,0-1.567.785l-.571,1.64a1.249,1.249,0,0,0,.785,1.567l1.64.571a1.249,1.249,0,0,0,1.567-.785l.571-1.64A1.224,1.224,0,0,0,66.952-46.454Z" transform="translate(-15.039 -14.486)"/>
    <path id="Path_304" data-name="Path 304" d="M69.241-50.626a1.259,1.259,0,0,0,1.64.571l1.5-.785a1.259,1.259,0,0,0,.571-1.64l-.785-1.5a1.259,1.259,0,0,0-1.64-.571l-1.5.785a1.259,1.259,0,0,0-.571,1.64Z" transform="translate(-16.543 -12.31)"/>
    <path id="Path_305" data-name="Path 305" d="M38.466-90.017a7.481,7.481,0,0,1-7.483,7.483A7.481,7.481,0,0,1,23.5-90.017,7.481,7.481,0,0,1,30.983-97.5a7.481,7.481,0,0,1,7.483,7.483" transform="translate(-3.657 0)" fill="#99a891"/>
    <path id="Path_306" data-name="Path 306" d="M34.525-64.464l2,2.494a6.424,6.424,0,0,0,4.989,2.352h6.342A3.318,3.318,0,0,0,51.131-62.9a3.318,3.318,0,0,0-3.279-3.279H41.579L38.3-70.1A10.039,10.039,0,0,0,30.533-73.8H23.691c-7.981,0-11.832,14.039-12.828,18.315a3.271,3.271,0,0,0,2.422,3.92,2.628,2.628,0,0,0,.713.072A3.263,3.263,0,0,0,17.2-54.061a49.418,49.418,0,0,1,2.923-8.479v7.767L17.491-27.194a3.838,3.838,0,0,0,3.421,4.2h.356a3.917,3.917,0,0,0,3.847-3.491l2.21-22.732,2.21,22.732a3.866,3.866,0,0,0,3.847,3.491h.356a3.792,3.792,0,0,0,3.421-4.2L34.525-54.773Z" transform="translate(0 -6.81)" fill="#99a891"/>
  </g>
</svg>
