<svg xmlns="http://www.w3.org/2000/svg" width="14.984" height="20.983" viewBox="0 0 14.984 20.983">
  <g id="Group_197" data-name="Group 197" transform="translate(-18.769 93.75)">
    <path id="Path_294" data-name="Path 294" d="M26.961-93.441c-.014-.019-.033-.033-.042-.047l0,0a.946.946,0,0,0-.651-.258.929.929,0,0,0-.651.258l0,0a.423.423,0,0,0-.042.047c-.286.3-.646.674-1.049,1.129a30.569,30.569,0,0,0-2.74,3.6,16.9,16.9,0,0,0-3,8.576c0,.061,0,.126,0,.187a6.947,6.947,0,0,0,.511,2.613,7.166,7.166,0,0,0,.712,1.321,7.56,7.56,0,0,0,6.267,3.251,7.344,7.344,0,0,0,7.494-7.185c0-5.99-4.927-11.588-6.791-13.489Zm-.7,18.051a4.7,4.7,0,0,1-2.056-.473,8.474,8.474,0,0,0,6.36-6.066,4.692,4.692,0,0,1,.384,1.855,4.692,4.692,0,0,1-4.689,4.684Z"/>
  </g>
</svg>
