<svg id="Group_114" data-name="Group 114" xmlns="http://www.w3.org/2000/svg" width="17.422" height="17.422" viewBox="0 0 17.422 17.422">
  <path id="Path_151" data-name="Path 151" d="M41.183-75.847a.669.669,0,0,0-.946,0l-7.569,7.569L25.1-75.847a.669.669,0,0,0-.946,0,.669.669,0,0,0,0,.946l7.569,7.569-7.569,7.569a.669.669,0,0,0,0,.946.669.669,0,0,0,.946,0l7.569-7.569,7.569,7.569a.669.669,0,0,0,.946,0,.669.669,0,0,0,0-.946l-7.569-7.569L41.183-74.9A.669.669,0,0,0,41.183-75.847Z" transform="translate(-23.957 76.043)" fill="#707070"/>
</svg>
