<svg xmlns="http://www.w3.org/2000/svg" width="19.233" height="25.285" viewBox="0 0 19.233 25.285">
  <g id="Group_153" data-name="Group 153" transform="translate(-550 -2386)">
    <g id="Group_151" data-name="Group 151" transform="translate(561.905 2397.737)">
      <path id="Path_276" data-name="Path 276" d="M44.781-88.137c0,1.349-.562,2.444-1.254,2.444s-1.256-1.094-1.256-2.444a3.775,3.775,0,0,1,1.256-2.441A3.782,3.782,0,0,1,44.781-88.137Z" transform="translate(-39.872 90.578)"/>
      <path id="Path_277" data-name="Path 277" d="M52.738-62.321c-.953.953-2.129,1.33-2.62.839s-.114-1.661.84-2.62a3.763,3.763,0,0,1,2.62-.84,3.788,3.788,0,0,1-.84,2.621Z" transform="translate(-46.255 69.144)"/>
      <path id="Path_278" data-name="Path 278" d="M52.738-39.884c-.953.954-2.129,1.33-2.62.84s-.114-1.661.84-2.62a3.763,3.763,0,0,1,2.62-.84A3.783,3.783,0,0,1,52.738-39.884Z" transform="translate(-46.255 50.381)"/>
      <path id="Path_279" data-name="Path 279" d="M28.472-62.321c.953.953,2.129,1.33,2.62.839s.114-1.661-.84-2.62a3.763,3.763,0,0,0-2.62-.84,3.835,3.835,0,0,0,.84,2.621Z" transform="translate(-27.629 69.144)"/>
      <path id="Path_280" data-name="Path 280" d="M28.472-39.884c.953.954,2.129,1.33,2.62.84s.114-1.661-.84-2.62a3.763,3.763,0,0,0-2.62-.84A3.83,3.83,0,0,0,28.472-39.884Z" transform="translate(-27.629 50.381)"/>
      <path id="Path_281" data-name="Path 281" d="M48.73-52.826h.4v-8.5h-.4Z" transform="translate(-45.275 66.118)"/>
    </g>
    <g id="Group_152" data-name="Group 152" transform="translate(550 2401.591)">
      <path id="Path_270" data-name="Path 270" d="M39.9-57.338c-.053,0-.1-.075-.153-.068a2.059,2.059,0,0,0-2-1.81,2.044,2.044,0,0,0-.419.023,2.7,2.7,0,0,0-2.276-1.268,2.691,2.691,0,0,0-2.7,2.69c0,.092.005.179.014.269,0,0-.008,0-.014,0-.744,0-1.348.939-1.348,1.684s.6,1.685,1.348,1.685H39.9c.744,0,1.348-.94,1.348-1.685A1.5,1.5,0,0,0,39.9-57.338Z" transform="translate(-31 60.461)"/>
      <path id="Path_271" data-name="Path 271" d="M38.371-35.964a.4.4,0,0,0-.536.2l-.374.809a.4.4,0,0,0,.2.537.4.4,0,0,0,.17.037.406.406,0,0,0,.367-.235l.374-.809a.406.406,0,0,0-.2-.537Z" transform="translate(-35.693 42.595)"/>
      <path id="Path_272" data-name="Path 272" d="M58.371-35.964a.4.4,0,0,0-.536.2l-.374.809a.4.4,0,0,0,.2.537.4.4,0,0,0,.17.037.406.406,0,0,0,.367-.235l.374-.809a.406.406,0,0,0-.2-.537Z" transform="translate(-50.301 42.595)"/>
      <path id="Path_273" data-name="Path 273" d="M48.371-35.964a.4.4,0,0,0-.536.2l-.374.809a.4.4,0,0,0,.2.537.4.4,0,0,0,.17.037.406.406,0,0,0,.367-.235l.374-.809a.406.406,0,0,0-.2-.537Z" transform="translate(-42.997 42.595)"/>
      <path id="Path_274" data-name="Path 274" d="M41.794-34.467a.4.4,0,0,0-.531.213l-.809,1.887a.4.4,0,0,0,.213.531.405.405,0,0,0,.159.033.4.4,0,0,0,.372-.245l.809-1.887a.4.4,0,0,0-.213-.531Z" transform="translate(-37.883 41.498)"/>
      <path id="Path_275" data-name="Path 275" d="M51.794-34.467a.4.4,0,0,0-.531.213l-.809,1.887a.4.4,0,0,0,.213.531.405.405,0,0,0,.159.033.4.4,0,0,0,.372-.245l.809-1.887a.4.4,0,0,0-.213-.531Z" transform="translate(-45.187 41.498)"/>
    </g>
    <path id="Path_282" data-name="Path 282" d="M21.495-80.984l-1.681,4.058h1.369v.888h.576v-.888h1.369ZM25.168-72.8v1.92h1.249V-72.8h2.977l-3.6-8.716-3.6,8.716Zm-6.914-6.147-3.6,8.716H17.6v1.92h1.249v-1.92h2.978Z" transform="translate(537.377 2467.512)"/>
  </g>
</svg>
