<svg xmlns="http://www.w3.org/2000/svg" width="11.086" height="11.086" viewBox="0 0 11.086 11.086">
  <g id="Group_196" data-name="Group 196" opacity="0.3">
    <path id="Path_151" data-name="Path 151" d="M34.918-75.918a.426.426,0,0,0-.6,0L29.5-71.1l-4.816-4.816a.426.426,0,0,0-.6,0,.426.426,0,0,0,0,.6L28.9-70.5l-4.816,4.816a.426.426,0,0,0,0,.6.426.426,0,0,0,.6,0L29.5-69.9l4.816,4.816a.426.426,0,0,0,.6,0,.426.426,0,0,0,0-.6L30.1-70.5l4.816-4.816A.426.426,0,0,0,34.918-75.918Z" transform="translate(-23.957 76.043)"/>
  </g>
</svg>
