<svg xmlns="http://www.w3.org/2000/svg" width="27.474" height="26" viewBox="0 0 27.474 26">
  <g id="Group_149" data-name="Group 149" transform="translate(-31 60.461)">
    <path id="Path_270" data-name="Path 270" d="M54.859-52.084c-.141,0-.274-.2-.41-.184a5.522,5.522,0,0,0-5.375-4.855,5.484,5.484,0,0,0-1.124.062,7.24,7.24,0,0,0-6.106-3.4,7.217,7.217,0,0,0-7.23,7.216c0,.246.014.48.037.72-.011,0-.023-.008-.037-.008-2,0-3.615,2.519-3.615,4.516S32.618-43.5,34.615-43.5H54.859c2,0,3.615-2.522,3.615-4.519s-1.618-4.067-3.615-4.067Z"/>
    <path id="Path_271" data-name="Path 271" d="M39.965-35.9a1.082,1.082,0,0,0-1.438.531l-1,2.169a1.086,1.086,0,0,0,.528,1.44,1.083,1.083,0,0,0,.455.1,1.088,1.088,0,0,0,.986-.63l1-2.169a1.09,1.09,0,0,0-.531-1.44Z" transform="translate(-1.779 -6.775)"/>
    <path id="Path_272" data-name="Path 272" d="M59.965-35.9a1.082,1.082,0,0,0-1.438.531l-1,2.169a1.086,1.086,0,0,0,.528,1.44,1.083,1.083,0,0,0,.455.1,1.088,1.088,0,0,0,.986-.63l1-2.169a1.09,1.09,0,0,0-.531-1.44Z" transform="translate(-7.319 -6.775)"/>
    <path id="Path_273" data-name="Path 273" d="M49.965-35.9a1.082,1.082,0,0,0-1.438.531l-1,2.169a1.086,1.086,0,0,0,.528,1.44,1.083,1.083,0,0,0,.455.1,1.088,1.088,0,0,0,.986-.63l1-2.169a1.09,1.09,0,0,0-.531-1.44Z" transform="translate(-4.549 -6.775)"/>
    <path id="Path_274" data-name="Path 274" d="M44.1-34.412a1.085,1.085,0,0,0-1.423.57L40.51-28.781a1.085,1.085,0,0,0,.57,1.423,1.088,1.088,0,0,0,.426.088,1.082,1.082,0,0,0,1-.658l2.169-5.061a1.086,1.086,0,0,0-.57-1.423Z" transform="translate(-2.61 -7.191)"/>
    <path id="Path_275" data-name="Path 275" d="M54.1-34.412a1.085,1.085,0,0,0-1.423.57L50.51-28.781a1.085,1.085,0,0,0,.57,1.423,1.088,1.088,0,0,0,.426.088,1.082,1.082,0,0,0,1-.658l2.169-5.061a1.086,1.086,0,0,0-.57-1.423Z" transform="translate(-5.38 -7.191)"/>
  </g>
</svg>
