<svg xmlns="http://www.w3.org/2000/svg" width="17.203" height="25.029" viewBox="0 0 17.203 25.029">
  <g id="Group_153" data-name="Group 153" transform="translate(-552.029 -2386)">
    <g id="Group_151" data-name="Group 151" transform="translate(561.905 2397.737)">
      <path id="Path_276" data-name="Path 276" d="M44.781-88.137c0,1.349-.562,2.444-1.254,2.444s-1.256-1.094-1.256-2.444a3.775,3.775,0,0,1,1.256-2.441A3.782,3.782,0,0,1,44.781-88.137Z" transform="translate(-39.872 90.578)"/>
      <path id="Path_277" data-name="Path 277" d="M52.738-62.321c-.953.953-2.129,1.33-2.62.839s-.114-1.661.84-2.62a3.763,3.763,0,0,1,2.62-.84,3.788,3.788,0,0,1-.84,2.621Z" transform="translate(-46.255 69.144)"/>
      <path id="Path_278" data-name="Path 278" d="M52.738-39.884c-.953.954-2.129,1.33-2.62.84s-.114-1.661.84-2.62a3.763,3.763,0,0,1,2.62-.84A3.783,3.783,0,0,1,52.738-39.884Z" transform="translate(-46.255 50.381)"/>
      <path id="Path_279" data-name="Path 279" d="M28.472-62.321c.953.953,2.129,1.33,2.62.839s.114-1.661-.84-2.62a3.763,3.763,0,0,0-2.62-.84,3.835,3.835,0,0,0,.84,2.621Z" transform="translate(-27.629 69.144)"/>
      <path id="Path_280" data-name="Path 280" d="M28.472-39.884c.953.954,2.129,1.33,2.62.84s.114-1.661-.84-2.62a3.763,3.763,0,0,0-2.62-.84A3.83,3.83,0,0,0,28.472-39.884Z" transform="translate(-27.629 50.381)"/>
      <path id="Path_281" data-name="Path 281" d="M48.73-52.826h.4v-8.5h-.4Z" transform="translate(-45.275 66.118)"/>
    </g>
    <path id="Path_282" data-name="Path 282" d="M21.495-80.984l-1.681,4.058h1.369v.888h.576v-.888h1.369ZM25.168-72.8v1.92h1.249V-72.8h2.977l-3.6-8.716-3.6,8.716Zm-6.914-6.147-3.6,8.716H17.6v1.92h1.249v-1.92h2.978Z" transform="translate(537.377 2467.512)"/>
    <g id="Group_198" data-name="Group 198" transform="translate(534.122 2496.375)">
      <path id="Path_294" data-name="Path 294" d="M21.66-93.641c0-.007-.012-.012-.015-.017l0,0a.334.334,0,0,0-.23-.091.328.328,0,0,0-.23.091l0,0a.149.149,0,0,0-.015.017c-.1.1-.228.238-.37.4a10.786,10.786,0,0,0-.967,1.269,5.964,5.964,0,0,0-1.059,3.026c0,.021,0,.045,0,.066a2.451,2.451,0,0,0,.18.922,2.529,2.529,0,0,0,.251.466,2.668,2.668,0,0,0,2.211,1.147,2.591,2.591,0,0,0,2.644-2.535c0-2.114-1.739-4.089-2.4-4.76Zm-.248,6.369a1.66,1.66,0,0,1-.726-.167,2.99,2.99,0,0,0,2.244-2.14,1.655,1.655,0,0,1,.136.654,1.656,1.656,0,0,1-1.654,1.653Z"/>
    </g>
  </g>
</svg>
