<svg xmlns="http://www.w3.org/2000/svg" width="14.428" height="26.172" viewBox="0 0 14.428 26.172">
  <g id="Group_150" data-name="Group 150" transform="translate(-27.629 90.578)">
    <path id="Path_276" data-name="Path 276" d="M47.213-85.772c0,2.656-1.106,4.811-2.47,4.811s-2.474-2.154-2.474-4.811,2.474-4.806,2.474-4.806S47.213-88.424,47.213-85.772Z" transform="translate(-9.921)"/>
    <path id="Path_277" data-name="Path 277" d="M55.486-59.776c-1.877,1.877-4.192,2.618-5.159,1.651s-.225-3.27,1.654-5.159,5.159-1.654,5.159-1.654.227,3.282-1.654,5.161Z" transform="translate(-15.092 -17.367)"/>
    <path id="Path_278" data-name="Path 278" d="M55.486-37.341c-1.877,1.879-4.192,2.618-5.159,1.654s-.225-3.27,1.654-5.159S57.139-42.5,57.139-42.5,57.366-39.217,55.486-37.341Z" transform="translate(-15.092 -32.57)"/>
    <path id="Path_279" data-name="Path 279" d="M29.29-59.776c1.877,1.877,4.192,2.618,5.159,1.651s.225-3.27-1.654-5.159-5.159-1.654-5.159-1.654-.21,3.282,1.654,5.161Z" transform="translate(0 -17.367)"/>
    <path id="Path_280" data-name="Path 280" d="M29.29-37.341c1.877,1.879,4.192,2.618,5.159,1.654s.225-3.27-1.654-5.159S27.636-42.5,27.636-42.5,27.426-39.217,29.29-37.341Z" transform="translate(0 -32.57)"/>
    <path id="Path_281" data-name="Path 281" d="M48.73-44.587h.781V-61.328H48.73Z" transform="translate(-14.298 -19.819)"/>
  </g>
</svg>
