<svg xmlns="http://www.w3.org/2000/svg" width="35.443" height="35.443" viewBox="0 0 35.443 35.443">
  <g id="Group_197" data-name="Group 197" transform="translate(-1181.115 -63.111)">
    <path id="Path_3" data-name="Path 3" d="M888.965,36.6a17.222,17.222,0,1,0-17.221-17.222A17.222,17.222,0,0,0,888.965,36.6" transform="translate(309.872 61.459)" stroke="rgba(0,0,0,0)" stroke-miterlimit="10" stroke-width="1"/>
    <path id="Path_4" data-name="Path 4" d="M896.024,23.846h1.78v-1.73a4.617,4.617,0,0,1,.574-2.668,3.168,3.168,0,0,1,2.763-1.3,11.182,11.182,0,0,1,3.193.321l-.445,2.638a6.011,6.011,0,0,0-1.434-.215c-.693,0-1.313.248-1.313.941v2.011h2.839l-.2,2.576h-2.642v8.951H897.8V26.422h-1.78Z" transform="translate(298.659 54.071)" fill="#fff" stroke="rgba(0,0,0,0)" stroke-miterlimit="10" stroke-width="1"/>
  </g>
</svg>
