<svg xmlns="http://www.w3.org/2000/svg" width="107.551" height="109.825" viewBox="0 0 107.551 109.825">
  <g id="Group_77" data-name="Group 77" transform="translate(-10.509 93.516)">
    <path id="Path_38" data-name="Path 38" d="M116.988.426H99.233V-.337l.343.026c.358.026.706.042,1.043.042a8.628,8.628,0,0,0,6.856-2.917c3.841-4.438,2.746-12.332,2.7-12.664l-.244-1.661-1.614.452c-4.23,1.178-7.261,2.979-9.083,5.351v-7.017a11.643,11.643,0,0,0,2.626.348c9.482,0,10.24-13.1,10.271-13.66l.083-1.676-1.671.13c-5.377.42-9.166,2.107-11.309,4.983l-.005-6.176a8.607,8.607,0,0,0,3.919-5.73c1.043-5.912-4.37-12.15-4.6-12.41l-1.111-1.261-1.111,1.261c-3.7,4.2-5.242,8.19-4.593,11.86a10.469,10.469,0,0,0,4.541,6.664v5.066c-2.216-2.434-5.813-3.867-10.723-4.251l-1.671-.13.083,1.676c.031.561.789,13.66,10.271,13.66a11.3,11.3,0,0,0,2.04-.223v6.207c-1.858-2.034-4.692-3.607-8.5-4.666l-1.614-.452-.234,1.65c-.047.337-1.142,8.226,2.7,12.664A8.628,8.628,0,0,0,95.476-.274h.005c.254,0,.524-.016.8-.031V.421h-31V-.342l.343.026c.358.026.706.042,1.043.042a8.628,8.628,0,0,0,6.856-2.917c3.841-4.438,2.746-12.332,2.694-12.664l-.239-1.661-1.619.452c-4.23,1.178-7.261,2.979-9.083,5.351v-7.017a11.643,11.643,0,0,0,2.626.348c9.482,0,10.245-13.1,10.271-13.66l.083-1.676-1.671.13c-5.377.42-9.161,2.107-11.3,4.983l-.005-6.171a8.607,8.607,0,0,0,3.919-5.73c1.043-5.912-4.37-12.15-4.6-12.41l-1.106-1.261-1.111,1.261c-3.7,4.2-5.242,8.19-4.593,11.86a10.488,10.488,0,0,0,4.541,6.664v5.066C60.105-31.763,56.508-33.2,51.6-33.579l-1.671-.13.083,1.676c.026.561.789,13.66,10.271,13.66a11.345,11.345,0,0,0,2.04-.223v6.207c-1.858-2.034-4.692-3.607-8.5-4.666l-1.619-.452-.244,1.661c-.047.337-1.142,8.226,2.7,12.664A8.635,8.635,0,0,0,61.517-.264c.26,0,.529-.016.8-.031V.432h-31V-.331l.337.026c.363.026.711.042,1.043.042a8.628,8.628,0,0,0,6.856-2.917c3.841-4.438,2.746-12.332,2.7-12.664l-.239-1.661-1.614.452c-4.23,1.178-7.261,2.979-9.083,5.351V-18.72a11.643,11.643,0,0,0,2.626.348c9.482,0,10.24-13.1,10.271-13.66l.083-1.676-1.671.13c-5.377.42-9.166,2.107-11.3,4.983l.005-6.181a8.607,8.607,0,0,0,3.919-5.73c1.043-5.912-4.37-12.15-4.6-12.41l-1.106-1.261L28.43-52.918c-3.7,4.2-5.242,8.19-4.593,11.86a10.488,10.488,0,0,0,4.541,6.664v5.066c-2.221-2.434-5.818-3.867-10.723-4.251l-1.671-.13.083,1.676c.026.561.789,13.66,10.271,13.66a11.3,11.3,0,0,0,2.04-.223v6.207c-1.858-2.034-4.692-3.607-8.5-4.666l-1.619-.452-.239,1.661c-.047.337-1.142,8.226,2.7,12.664A8.635,8.635,0,0,0,27.574-.264c.26,0,.529-.016.8-.031V.432L9.439.427V3.38H116.99Zm-16.282-8.9c.945-2.216,3.187-3.96,6.675-5.2.083,2.278-.119,6.223-2.144,8.559a5.707,5.707,0,0,1-4.567,1.889,7.313,7.313,0,0,1,.036-5.247Zm.711-18.145c1.355-2,3.887-3.275,7.552-3.815-.488,3.067-2.092,9.109-7.116,9.109a7.881,7.881,0,0,1-1.479-.145,7.326,7.326,0,0,1,1.043-5.149Zm-5.709,5.143a7.817,7.817,0,0,1-1.469.145c-5.008-.005-6.618-6.041-7.116-9.109,3.649.54,6.176,1.817,7.536,3.794a7.4,7.4,0,0,1,1.048,5.169Zm-.3,18.253a5.726,5.726,0,0,1-4.557-1.894c-2.024-2.336-2.227-6.285-2.144-8.559,3.472,1.235,5.714,2.969,6.664,5.175a7.379,7.379,0,0,1,.036,5.278ZM66.767-8.5c.95-2.2,3.187-3.939,6.664-5.175.078,2.278-.119,6.223-2.144,8.559a5.692,5.692,0,0,1-4.557,1.889A7.337,7.337,0,0,1,66.767-8.5Zm.716-18.145c1.355-1.977,3.887-3.249,7.536-3.794-.488,3.073-2.092,9.109-7.116,9.109a7.817,7.817,0,0,1-1.469-.145,7.37,7.37,0,0,1,1.048-5.169Zm-5.73,5.169a7.816,7.816,0,0,1-1.469.145c-5.008-.005-6.618-6.041-7.116-9.109,3.649.54,6.176,1.817,7.531,3.794a7.35,7.35,0,0,1,1.054,5.169Zm-.3,18.254A5.726,5.726,0,0,1,56.9-5.117c-2.029-2.336-2.227-6.285-2.144-8.559,3.472,1.235,5.714,2.969,6.664,5.175a7.379,7.379,0,0,1,.036,5.278ZM32.818-8.5c.95-2.2,3.187-3.939,6.664-5.175.083,2.278-.119,6.223-2.144,8.559a5.692,5.692,0,0,1-4.557,1.889A7.337,7.337,0,0,1,32.818-8.5Zm.716-18.145c1.355-1.977,3.887-3.249,7.536-3.794-.488,3.073-2.092,9.109-7.116,9.109a7.735,7.735,0,0,1-1.469-.145,7.315,7.315,0,0,1,1.048-5.169ZM27.8-21.476a7.828,7.828,0,0,1-1.474.145c-5.008-.005-6.618-6.041-7.116-9.109,3.649.54,6.176,1.817,7.531,3.794A7.33,7.33,0,0,1,27.8-21.476Zm-.3,18.253a5.726,5.726,0,0,1-4.557-1.894C20.922-7.453,20.725-11.4,20.8-13.676c3.472,1.235,5.714,2.969,6.664,5.175a7.356,7.356,0,0,1,.042,5.278Zm2.138-33.985h-.13a7.252,7.252,0,0,1-2.772-4.365c-.42-2.372.509-5.066,2.761-8.008,1.474,2.107,3.358,5.621,2.839,8.559a5.759,5.759,0,0,1-2.7,3.815Zm33.949,0h-.135a7.252,7.252,0,0,1-2.772-4.365c-.42-2.372.509-5.066,2.761-8.008,1.474,2.107,3.358,5.621,2.839,8.559A5.734,5.734,0,0,1,63.6-37.208Zm33.949,0h-.119a7.359,7.359,0,0,1-2.792-4.4c-.4-2.367.524-5.045,2.766-7.982,1.474,2.107,3.353,5.616,2.839,8.559a5.731,5.731,0,0,1-2.694,3.82Z" transform="translate(1.07 12.929)" fill="#94c11c"/>
    <path id="Path_41" data-name="Path 41" d="M52.442-66.575A9.636,9.636,0,0,0,62.065-76.2a9.632,9.632,0,0,0-9.623-9.623A9.635,9.635,0,0,0,42.82-76.2,9.632,9.632,0,0,0,52.442-66.575Zm0-16.292A6.674,6.674,0,0,1,59.112-76.2a6.681,6.681,0,0,1-6.669,6.669A6.677,6.677,0,0,1,45.773-76.2,6.684,6.684,0,0,1,52.442-82.868Z" transform="translate(12.042 2.529)"/>
    <path id="Path_42" data-name="Path 42" d="M48.953-85.185h2.953v-8.33H48.953Z" transform="translate(14.058)"/>
    <path id="Path_43" data-name="Path 43" d="M48.953-61.42h2.953v-8.33H48.953Z" transform="translate(14.058 7.811)"/>
    <path id="Path_44" data-name="Path 44" d="M58.812-76.656h8.33v-2.953h-8.33Z" transform="translate(17.298 4.571)"/>
    <path id="Path_45" data-name="Path 45" d="M35.047-76.656h8.33v-2.953h-8.33Z" transform="translate(9.487 4.571)"/>
    <path id="Path_46" data-name="Path 46" d="M57.543-73.1l5.891,5.891-2.086,2.086-5.891-5.891Z" transform="translate(16.195 6.71)"/>
    <path id="Path_47" data-name="Path 47" d="M44.551-81.925,38.66-87.815,40.747-89.9l5.891,5.891Z" transform="translate(10.675 1.188)"/>
    <path id="Path_48" data-name="Path 48" d="M38.66-67.2l5.891-5.891,2.086,2.086-5.891,5.891Z" transform="translate(10.675 6.712)"/>
    <path id="Path_49" data-name="Path 49" d="M57.551-81.925l-2.086-2.086L61.356-89.9l2.086,2.086Z" transform="translate(16.198 1.188)"/>
  </g>
</svg>
