<svg xmlns="http://www.w3.org/2000/svg" width="98.895" height="77.434" viewBox="0 0 98.895 77.434">
  <g id="Group_81" data-name="Group 81" transform="translate(-361 -6481)">
    <g id="Group_79" data-name="Group 79" transform="translate(360.453 6569.719)">
      <path id="Path_60" data-name="Path 60" d="M98.938-41.047l-.023-.059a.367.367,0,0,1-.012-.035C92.024-59.821,75.8-69.77,69.141-73.184a11.344,11.344,0,0,0-3.7-1.066c0-.617.012-1.215.016-1.723l.082-6.895A5.772,5.772,0,0,0,63.867-87a5.733,5.733,0,0,0-4.109-1.715l-47.691,0c-6.352,0-11.52,6.414-11.52,14.3V-26.25c0,2.18,0,5.832,4.465,5.832h1.3a10.786,10.786,0,0,0,10.629,9.133,10.788,10.788,0,0,0,10.633-9.133h30.2a1.679,1.679,0,0,0,.375-.074,10.783,10.783,0,0,0,10.637,9.207,10.788,10.788,0,0,0,10.633-9.133H92.911c4.574,0,6.523-1.391,6.523-4.664l.008-13a8.283,8.283,0,0,0-.5-2.965ZM91.016-49.3H73.711c-.547,0-1-.68-1-1.481V-61.48c0-.828.438-1.48,1-1.48h4.957A57.205,57.205,0,0,1,91.016-49.3ZM67.621-70.211A65.774,65.774,0,0,1,74.2-66.293h-.484a4.545,4.545,0,0,0-4.34,4.813v10.691a4.548,4.548,0,0,0,4.34,4.813H93.074c.641,1.2,1.168,2.527,1.723,3.824l-27.641-.074c-.016,0-.027-.008-.043-.008h-1.7V-67.653c0-.914,0-2.07.012-3.262a7.832,7.832,0,0,1,2.2.7ZM12.066-85.383H59.754a2.422,2.422,0,0,1,1.742.73A2.447,2.447,0,0,1,62.2-82.9l-.082,6.895c-.023,2.3-.051,6.055-.051,8.352V-42.23l-58.188,0V-74.418c0-6.043,3.668-10.965,8.184-10.965Zm4.875,70.766A7.474,7.474,0,0,1,9.48-22.082a7.474,7.474,0,0,1,7.461-7.465,7.474,7.474,0,0,1,7.465,7.465A7.467,7.467,0,0,1,16.941-14.617Zm51.855,0a7.474,7.474,0,0,1-7.461-7.465,7.419,7.419,0,0,1,5.289-7.141,7.584,7.584,0,0,1,2.176-.324,7.474,7.474,0,0,1,7.465,7.465A7.478,7.478,0,0,1,68.8-14.617ZM96.108-25.078c0,.77,0,1.328-3.191,1.328H79.425a10.787,10.787,0,0,0-10.633-9.133,10.943,10.943,0,0,0-3.145.465,10.715,10.715,0,0,0-7.523,8.738,1.7,1.7,0,0,0-.34-.07H27.577a10.787,10.787,0,0,0-10.633-9.133A10.787,10.787,0,0,0,6.315-23.75H5.01c-1.047,0-1.129,0-1.129-2.5v-5.1H5.94a1.667,1.667,0,0,0,1.668-1.668A1.67,1.67,0,0,0,5.94-34.687l-2.059,0v-4.211H63.736l32.258.086a5,5,0,0,1,.125.73Z" fill="#99a891"/>
      <path id="Path_61" data-name="Path 61" d="M20.273-22.082c0,4.438-6.656,4.438-6.656,0s6.656-4.441,6.656,0" fill="#99a891"/>
      <path id="Path_62" data-name="Path 62" d="M72.125-22.082c0,4.438-6.66,4.438-6.66,0s6.66-4.441,6.66,0" fill="#99a891"/>
    </g>
    <g id="Group_80" data-name="Group 80" transform="translate(367.639 6590.92)">
      <path id="Path_63" data-name="Path 63" d="M26.093-100a11.105,11.105,0,0,1,7.52,2.962c8.2,7.976-2.962,19.826-7.52,27.118-4.558-7.292-15.724-19.142-7.52-27.118A10.684,10.684,0,0,1,26.093-100Zm6.152,4.33a8.8,8.8,0,0,0-6.152-2.506,8.952,8.952,0,0,0-6.38,2.506c-6.38,6.38,2.506,16.408,6.38,22.332C29.967-79.262,38.854-89.29,32.245-95.67Z" transform="translate(0)" stroke="#000" stroke-width="1"/>
      <path id="Path_64" data-name="Path 64" d="M38.725-82.574a4.866,4.866,0,0,1,5.014,4.786,4.914,4.914,0,0,1-5.014,5.014,4.914,4.914,0,0,1-5.014-5.014A4.866,4.866,0,0,1,38.725-82.574Zm0,1.824a3.07,3.07,0,0,0-3.19,2.962,3.115,3.115,0,0,0,3.19,3.19,3.07,3.07,0,0,0,2.962-3.19A3.016,3.016,0,0,0,38.725-80.75Z" transform="translate(-12.632 -12.184)" stroke="#000" stroke-width="1"/>
    </g>
  </g>
</svg>
