<svg xmlns="http://www.w3.org/2000/svg" width="17.054" height="18.706" viewBox="0 0 17.054 18.706">
  <g id="Group_53" data-name="Group 53" transform="translate(-14.582 85.422)">
    <path id="Path_26" data-name="Path 26" d="M28.884-72.22a2.963,2.963,0,0,0-1.65.55L20.028-75.8a2.421,2.421,0,0,1,.055-.275c0-.055,0-.22-.055-.275l7.206-4.124a2.828,2.828,0,0,0,1.65.55,2.724,2.724,0,0,0,2.751-2.751,2.724,2.724,0,0,0-2.751-2.751,2.724,2.724,0,0,0-2.751,2.751.5.5,0,0,0,.055.275l-7.205,4.127a2.7,2.7,0,0,0-1.65-.55,2.724,2.724,0,0,0-2.751,2.751,2.724,2.724,0,0,0,2.751,2.751,2.963,2.963,0,0,0,1.65-.55l7.206,4.125c0,.11-.055.165-.055.275a2.724,2.724,0,0,0,2.751,2.751,2.724,2.724,0,0,0,2.751-2.751A2.727,2.727,0,0,0,28.884-72.22Z" transform="translate(0)"/>
  </g>
</svg>
