<svg xmlns="http://www.w3.org/2000/svg" width="86.718" height="64.031" viewBox="0 0 86.718 64.031">
  <g id="Group_78" data-name="Group 78" transform="translate(-6.64 82.015)">
    <path id="Path_50" data-name="Path 50" d="M89.383-68.855,56.371-78.23a5.471,5.471,0,0,0-6.754,3.754l-6.2,21.07-1.242,1.012v0a10.325,10.325,0,0,0-3.641,9.6L38-42.3l-3.8,3.1,0,0a7.3,7.3,0,0,0-2.648,4.914,7.3,7.3,0,0,0,1.605,5.348l6.742,8.27a7.227,7.227,0,0,0,4.914,2.644,6.912,6.912,0,0,0,.754.039,7.221,7.221,0,0,0,4.594-1.641L56-24.39h0a11.418,11.418,0,0,0,8.457-2.5l5.707-4.652,7.973,2.266a5.46,5.46,0,0,0,4.16-.484,5.469,5.469,0,0,0,2.6-3.281L93.149-62.1a5.481,5.481,0,0,0-.48-4.16,5.491,5.491,0,0,0-3.285-2.6ZM52.246-73.718a2.73,2.73,0,0,1,1.3-1.641,2.734,2.734,0,0,1,2.078-.242l2.391.68L54.18-62.187l-7.016,5.719ZM62.734-29.011a8.7,8.7,0,0,1-6.75,1.863,1.374,1.374,0,0,0-1.238.254l-6.316,5.152a4.564,4.564,0,0,1-6.418-.656l-6.742-8.269,0,0a4.563,4.563,0,0,1-1-3.344,4.562,4.562,0,0,1,1.656-3.074l3.836-3.129c.023-.02.047-.039.066-.059l1.125-1.047v0a1.374,1.374,0,0,0,.4-1.328A7.566,7.566,0,0,1,43.9-50.277l16.164-13.18a4.781,4.781,0,0,1-.75,6.645l-5.461,4.453a1.35,1.35,0,0,0-.5.918,1.369,1.369,0,0,0,.3,1,1.365,1.365,0,0,0,1.922.2l4.6-3.75L71.55-63.262a1.6,1.6,0,0,1,2.234.238,1.591,1.591,0,0,1-.215,2.234h-.008L59.9-49.648l0,0a1.383,1.383,0,0,0-.5.922,1.392,1.392,0,0,0,.3,1,1.373,1.373,0,0,0,1.926.2L75.3-58.668l3.445-2.809a1.6,1.6,0,0,1,1.18-.375,1.6,1.6,0,0,1,1.09.582,1.585,1.585,0,0,1,.352,1.184,1.6,1.6,0,0,1-.6,1.082l-2.293,1.871,0,0L75.019-54.32l-11.367,9.27h0a1.355,1.355,0,0,0-.5.922,1.366,1.366,0,0,0,.3,1.008,1.359,1.359,0,0,0,.926.5,1.363,1.363,0,0,0,1-.309L79.52-54.465l.672-.547a1.6,1.6,0,0,1,2.238.238,1.6,1.6,0,0,1-.223,2.238l-4.02,3.277a1.771,1.771,0,0,0-.191.191,4.326,4.326,0,0,0-.383.277l-7.926,6.461h0a1.36,1.36,0,0,0-.5.922,1.362,1.362,0,0,0,.3,1.008,1.367,1.367,0,0,0,.926.5,1.358,1.358,0,0,0,1-.309l7.926-6.461a1.613,1.613,0,0,1,1.172-.359,1.585,1.585,0,0,1,1.082.582,1.583,1.583,0,0,1,.352,1.176,1.594,1.594,0,0,1-.59,1.078ZM90.519-62.847l-8.25,29.055A2.738,2.738,0,0,1,78.89-31.91l-6.137-1.742,10.336-8.426a4.317,4.317,0,0,0,1.578-3.734,4.323,4.323,0,0,0-2.207-3.4l1.477-1.2a4.319,4.319,0,0,0,1.57-3.8,4.314,4.314,0,0,0-2.316-3.4,4.329,4.329,0,0,0-.43-5.738,4.331,4.331,0,0,0-5.746-.242l-.324.266A4.335,4.335,0,0,0,73.8-66.175a4.335,4.335,0,0,0-3.977.793l-6.016,4.9h0a7.49,7.49,0,0,0-1.691-4.793,2.634,2.634,0,0,0-1.77-.953,2.619,2.619,0,0,0-1.926.578l-.457.375,2.68-8.9,27.988,7.949a2.73,2.73,0,0,1,1.641,1.3,2.717,2.717,0,0,1,.242,2.078Z" fill="#94c11c"/>
    <path id="Path_51" data-name="Path 51" d="M45.969-78.133a1.372,1.372,0,0,0,1.359-1.211,1.367,1.367,0,0,0-1.047-1.488c-.867-.2-1.762-.383-2.656-.535a.3.3,0,0,0-.062-.008l-3.895-.48c-.02,0-.039,0-.059-.008a51.369,51.369,0,0,0-5.484-.129A1.367,1.367,0,0,0,32.8-80.586,1.372,1.372,0,0,0,34.2-79.258a48.465,48.465,0,0,1,5.164.121l3.832.473c.828.141,1.656.309,2.457.5a1.394,1.394,0,0,0,.313.035Z"/>
    <path id="Path_52" data-name="Path 52" d="M26.453-78.484c1.215-.207,2.438-.375,3.633-.5a1.362,1.362,0,0,0,1.215-1.5A1.366,1.366,0,0,0,29.8-81.7c-1.254.133-2.531.309-3.8.523h0a1.366,1.366,0,0,0-.887.555,1.374,1.374,0,0,0-.234,1.02,1.368,1.368,0,0,0,1.578,1.121Z"/>
    <path id="Path_53" data-name="Path 53" d="M19.43-79.715a50.006,50.006,0,0,0-6.059,2.051,1.371,1.371,0,0,0-.707,1.8,1.371,1.371,0,0,0,1.8.707,47.854,47.854,0,0,1,5.7-1.922,1.366,1.366,0,0,0,.953-1.684,1.366,1.366,0,0,0-1.684-.953Z"/>
    <path id="Path_54" data-name="Path 54" d="M43.219-65.469a1.36,1.36,0,0,0,1.043-.18,1.375,1.375,0,0,0,.605-.871,1.388,1.388,0,0,0-.2-1.043,1.37,1.37,0,0,0-.887-.582c-.754-.156-1.527-.3-2.3-.418-.859-.133-1.738-.242-2.621-.324a1.37,1.37,0,0,0-1.492,1.23,1.37,1.37,0,0,0,1.23,1.492c.828.078,1.66.184,2.465.3.727.113,1.453.242,2.16.391Z"/>
    <path id="Path_55" data-name="Path 55" d="M26.293-65.8a1.581,1.581,0,0,0,.2-.016A55.845,55.845,0,0,1,32.3-66.34a1.369,1.369,0,0,0,1.344-1.391,1.371,1.371,0,0,0-1.391-1.344h-.051a58.108,58.108,0,0,0-6.106.551,1.362,1.362,0,0,0-1.172,1.449,1.366,1.366,0,0,0,1.363,1.27Z"/>
    <path id="Path_56" data-name="Path 56" d="M12.41-62.133a1.366,1.366,0,0,0,.543-.113,51.97,51.97,0,0,1,7.438-2.383,1.368,1.368,0,0,0,.988-1.652,1.366,1.366,0,0,0-1.645-1,53.667,53.667,0,0,0-7.875,2.527,1.37,1.37,0,0,0-.789,1.535,1.368,1.368,0,0,0,1.34,1.086Z"/>
    <path id="Path_57" data-name="Path 57" d="M33.879-51.949a42.522,42.522,0,0,1,5.344.813,1.365,1.365,0,0,0,1.613-1.043A1.367,1.367,0,0,0,39.809-53.8a45.13,45.13,0,0,0-5.687-.867,1.382,1.382,0,0,0-1.012.309,1.352,1.352,0,0,0-.488.934,1.361,1.361,0,0,0,.32,1,1.363,1.363,0,0,0,.938.477Z"/>
    <path id="Path_58" data-name="Path 58" d="M26.207-54.746c-1.539.1-3.121.266-4.7.5h0A1.371,1.371,0,0,0,20.344-52.8a1.372,1.372,0,0,0,1.367,1.27,1.712,1.712,0,0,0,.2-.016c1.5-.219,3.008-.379,4.477-.473h0a1.367,1.367,0,0,0,1.273-1.453,1.368,1.368,0,0,0-1.453-1.277Z"/>
    <path id="Path_59" data-name="Path 59" d="M12.613-52.3a48.124,48.124,0,0,0-5.152,1.793,1.37,1.37,0,0,0-.707,1.8,1.37,1.37,0,0,0,1.8.707,46.12,46.12,0,0,1,4.828-1.676,1.371,1.371,0,0,0,.824-.656,1.359,1.359,0,0,0,.113-1.047,1.362,1.362,0,0,0-.66-.816,1.376,1.376,0,0,0-1.047-.105Z"/>
  </g>
</svg>
