<svg xmlns="http://www.w3.org/2000/svg" width="35.231" height="35.232" viewBox="0 0 35.231 35.232">
  <path id="Exclusion_1" data-name="Exclusion 1" d="M17.116,34.232A17.116,17.116,0,0,1,5.013,5.013,17.116,17.116,0,0,1,29.218,29.219,17,17,0,0,1,17.116,34.232ZM20,16.317c1.221,0,1.893.864,1.893,2.432v5.526h3.783V18.338a5.183,5.183,0,0,0-1.227-3.661A4.034,4.034,0,0,0,21.44,13.5a3.4,3.4,0,0,0-3.331,1.778V13.6H14.361c.049.872,0,10.277,0,10.677h3.748V18.391a2.078,2.078,0,0,1,.083-.766A1.915,1.915,0,0,1,20,16.317ZM8.988,13.6V24.275h3.338V13.6ZM10.6,8.558a1.859,1.859,0,1,0-.049,3.7h.025a1.859,1.859,0,1,0,.024-3.7Z" transform="translate(0.5 0.5)" stroke="rgba(0,0,0,0)" stroke-miterlimit="10" stroke-width="1"/>
</svg>
