<svg xmlns="http://www.w3.org/2000/svg" width="35.443" height="35.443" viewBox="0 0 35.443 35.443">
  <g id="Group_1" data-name="Group 1" transform="translate(0.5 0.5)">
    <path id="Path_1" data-name="Path 1" d="M696.965,36.6a17.222,17.222,0,1,0-17.221-17.222A17.222,17.222,0,0,0,696.965,36.6" transform="translate(-679.744 -2.152)" stroke="rgba(0,0,0,0)" stroke-miterlimit="10" stroke-width="1"/>
    <path id="Path_2" data-name="Path 2" d="M712.994,24.345a7.1,7.1,0,0,1-2.032.558,3.545,3.545,0,0,0,1.555-1.958,7.082,7.082,0,0,1-2.248.859,3.544,3.544,0,0,0-6.031,3.227,10.047,10.047,0,0,1-7.294-3.7,3.545,3.545,0,0,0,1.1,4.727,3.539,3.539,0,0,1-1.6-.442v.044a3.538,3.538,0,0,0,2.84,3.47,3.423,3.423,0,0,1-.934.126,3.5,3.5,0,0,1-.665-.063,3.539,3.539,0,0,0,3.306,2.456,7.167,7.167,0,0,1-5.24,1.466,10.066,10.066,0,0,0,15.495-8.48c0-.154,0-.307-.01-.458a7.165,7.165,0,0,0,1.766-1.833" transform="translate(-687.133 -11.635)" fill="#fff" stroke="rgba(0,0,0,0)" stroke-miterlimit="10" stroke-width="1"/>
  </g>
</svg>
