<svg xmlns="http://www.w3.org/2000/svg" width="51" height="54.825" viewBox="0 0 51 54.825">
  <g id="Group_233" data-name="Group 233" transform="translate(-10 95)">
    <path id="Path_307" data-name="Path 307" d="M35.5-95a1.409,1.409,0,0,0-1.275,1.275V-89.9A1.325,1.325,0,0,0,35.5-88.608,1.325,1.325,0,0,0,36.775-89.9v-3.825A1.331,1.331,0,0,0,35.5-95Zm17.212,7.61a1.162,1.162,0,0,0-.159.02,1.287,1.287,0,0,0-.737.379l-2.55,2.55a1.325,1.325,0,0,0-.027,1.82,1.324,1.324,0,0,0,1.82-.007l2.55-2.55a1.3,1.3,0,0,0,.316-1.414,1.31,1.31,0,0,0-1.213-.8Zm-34.565.02a1.3,1.3,0,0,0-1.081.852,1.31,1.31,0,0,0,.324,1.34l2.55,2.55a1.324,1.324,0,0,0,1.82.007,1.325,1.325,0,0,0-.027-1.82l-2.55-2.55a1.3,1.3,0,0,0-1.036-.379ZM35.5-83.525A14.114,14.114,0,0,0,21.475-69.5c0,10.023,6.763,11.5,7.57,17.85H41.955c.807-6.345,7.57-7.827,7.57-17.85A14.114,14.114,0,0,0,35.5-83.525ZM53.987-68.862a1.375,1.375,0,0,0,1.275,1.275h4.462A1.309,1.309,0,0,0,61-68.862a1.309,1.309,0,0,0-1.275-1.275H55.263A1.324,1.324,0,0,0,53.987-68.862ZM10-68.862a1.377,1.377,0,0,0,1.275,1.275H15.1a1.325,1.325,0,0,0,1.292-1.275A1.325,1.325,0,0,0,15.1-70.137H11.275A1.326,1.326,0,0,0,10-68.862ZM21.634-56.47a1.29,1.29,0,0,0-.877.4L17.471-52.8a1.325,1.325,0,0,0-.027,1.82,1.324,1.324,0,0,0,1.82-.007l3.287-3.287a1.308,1.308,0,0,0,.289-1.409,1.306,1.306,0,0,0-1.205-.782Zm27.572,0a1.3,1.3,0,0,0-1.081.852,1.31,1.31,0,0,0,.324,1.34l3.287,3.287a1.324,1.324,0,0,0,1.82.007,1.325,1.325,0,0,0-.027-1.82l-3.287-3.267a1.289,1.289,0,0,0-.916-.4.955.955,0,0,0-.12,0ZM29.125-49.1v6.375a2.554,2.554,0,0,0,2.55,2.55h7.65a2.554,2.554,0,0,0,2.55-2.55V-49.1Z" fill="#99a891"/>
  </g>
</svg>
