<svg xmlns="http://www.w3.org/2000/svg" xmlns:xlink="http://www.w3.org/1999/xlink" width="291.374" height="247.825" viewBox="0 0 291.374 247.825">
  <defs>
    <clipPath id="clip-path">
      <rect id="Rectangle_72" data-name="Rectangle 72" width="242.493" height="20.433" fill="#99a891"/>
    </clipPath>
    <clipPath id="clip-path-2">
      <rect id="Rectangle_71" data-name="Rectangle 71" width="242.494" height="20.433" fill="#99a891"/>
    </clipPath>
  </defs>
  <g id="Group_4" data-name="Group 4" transform="translate(-5240.626 -2796.175)">
    <line id="Line_45" data-name="Line 45" x2="11.431" transform="translate(5276.766 2982.113)" fill="none" stroke="#8c8b8b" stroke-linejoin="round" stroke-width="0.148"/>
    <line id="Line_46" data-name="Line 46" x2="11.431" transform="translate(5276.766 2858.181)" fill="none" stroke="#8c8b8b" stroke-linejoin="round" stroke-width="0.148"/>
    <line id="Line_47" data-name="Line 47" x2="11.431" transform="translate(5276.766 2807.902)" fill="none" stroke="#8c8b8b" stroke-linejoin="round" stroke-width="0.148"/>
    <line id="Line_48" data-name="Line 48" x2="242.93" transform="translate(5276.563 3023.637)" fill="none" stroke="#8c8b8b" stroke-linejoin="round" stroke-width="0.148"/>
    <line id="Line_49" data-name="Line 49" y1="215.729" transform="translate(5276.778 2807.902)" fill="none" stroke="#8c8b8b" stroke-linejoin="round" stroke-width="0.196"/>
    <line id="Line_50" data-name="Line 50" y1="15.532" transform="translate(5370.129 3008.098)" fill="none" stroke="#8c8b8b" stroke-linejoin="round" stroke-width="0.196"/>
    <text id="_0" data-name="0" transform="translate(5266 3023.098)" fill="#43403e" font-size="10" font-family="OpenSans, Open Sans" opacity="0.3"><tspan x="0" y="0">0</tspan></text>
    <text id="_0_5" data-name="0,5" transform="translate(5258 2982.774)" fill="#43403e" font-size="10" font-family="OpenSans, Open Sans" opacity="0.3"><tspan x="0" y="0">0,5</tspan></text>
    <text id="_1_5" data-name="1,5" transform="translate(5258 2864.088)" fill="#43403e" font-size="10" font-family="OpenSans, Open Sans" opacity="0.3"><tspan x="0" y="0">1,5</tspan></text>
    <text id="_2" data-name="2" transform="translate(5266 2807.175)" fill="#43403e" font-size="10" font-family="OpenSans, Open Sans" opacity="0.3"><tspan x="0" y="0">2</tspan></text>
    <text id="_1" data-name="1" transform="translate(5266 2927.044)" fill="#43403e" font-size="10" font-family="OpenSans, Open Sans"><tspan x="0" y="0">1</tspan></text>
    <line id="Line_51" data-name="Line 51" x2="0.075" transform="translate(5276.766 2920.147)" fill="none" stroke="#100f0c" stroke-linecap="round" stroke-linejoin="round" stroke-width="0.294"/>
    <line id="Line_52" data-name="Line 52" x2="240.128" transform="translate(5279.365 2920.147)" fill="none" stroke="#100f0c" stroke-linecap="round" stroke-linejoin="round" stroke-width="1" stroke-dasharray="2 4" opacity="0.2"/>
    <line id="Line_53" data-name="Line 53" transform="translate(5277.819 2915.014)" fill="none" stroke="#7a7707" stroke-linejoin="round" stroke-width="0.735"/>
    <text id="Multisoortenindex_1990_1_" data-name="Multisoortenindex (1990 = 1)" transform="translate(5251.626 2990.02) rotate(-90)" font-size="10" font-family="OpenSans, Open Sans" opacity="0.5"><tspan x="0" y="0">Multisoortenindex (1990 = 1)</tspan></text>
    <text id="_2000" data-name="2000" transform="translate(5370 3041)" font-size="10" font-family="OpenSans, Open Sans" opacity="0.3"><tspan x="-11.436" y="0">2000</tspan></text>
    <text id="_1990" data-name="1990" transform="translate(5275 3041)" font-size="10" font-family="OpenSans, Open Sans" opacity="0.3"><tspan x="-11.436" y="0">1990</tspan></text>
    <text id="_2018" data-name="2018" transform="translate(5520 3041)" font-size="10" font-family="OpenSans, Open Sans" opacity="0.3"><tspan x="-11.436" y="0">2018</tspan></text>
    <text id="_2010" data-name="2010" transform="translate(5465 3041)" font-size="10" font-family="OpenSans, Open Sans" opacity="0.3"><tspan x="-11.436" y="0">2010</tspan></text>
    <line id="Line_54" data-name="Line 54" y1="15.532" transform="translate(5463.612 3008.098)" fill="none" stroke="#8c8b8b" stroke-linejoin="round" stroke-width="0.196"/>
    <g id="Group_224" data-name="Group 224" transform="translate(5102.84 2495.672)">
      <g id="Group_223" data-name="Group 223" transform="translate(174.161 408.328)">
        <g id="Group_222" data-name="Group 222" style="mix-blend-mode: multiply;isolation: isolate">
          <g id="Group_221" data-name="Group 221">
            <g id="Group_220" data-name="Group 220" clip-path="url(#clip-path)">
              <g id="Group_219" data-name="Group 219">
                <g id="Group_218" data-name="Group 218" clip-path="url(#clip-path-2)">
                  <g id="Group_217" data-name="Group 217">
                    <g id="Group_216" data-name="Group 216">
                      <g id="Group_215" data-name="Group 215" clip-path="url(#clip-path)">
                        <path id="Path_299" data-name="Path 299" d="M416.651,408.328l-8.66,3.32-8.661,1.636-8.662,1.616H295.4l-8.662,1.6h-8.661l-8.653,1.59h-8.662l-8.662,1.572-8.662,1.551h-8.661l-8.655,1.539H191.476l-8.662-1.539h-8.653v7.554h60.617l8.661-1.483H252.1l8.662-1.493h8.662l8.653-1.514h8.661l8.662-1.525h34.64l8.661,1.525h25.985l8.655-1.525h17.324l8.662,1.525h8.661l8.662,1.514V408.328Z" transform="translate(-174.161 -408.328)" fill="#99a891"/>
                      </g>
                    </g>
                  </g>
                </g>
              </g>
            </g>
          </g>
        </g>
      </g>
      <path id="Path_300" data-name="Path 300" d="M174.16,424.818l8.654.525,8.662.366,8.662.211,8.661.058,8.662-.115,8.662-.256,8.654-.4,8.662-.647,8.662-.892,8.661-.981,8.662-.832,8.653-.892,8.661-1.006,8.662-.712,8.662-.256,8.661-.031,8.663.076,8.653.076,8.662.18,8.663.333,8.661.123,8.661-.091,8.655-.141,8.662-.224,8.662-.346,8.662-.532,8.661-.648,8.662-.737" transform="translate(0)" fill="none" stroke="#533a54" stroke-linejoin="round" stroke-width="0.98"/>
    </g>
  </g>
</svg>
