<svg xmlns="http://www.w3.org/2000/svg" width="291.374" height="247.825" viewBox="0 0 291.374 247.825">
  <g id="Group_3" data-name="Group 3" transform="translate(-5240.626 -2796.175)">
    <line id="Line_45" data-name="Line 45" x2="11.431" transform="translate(5276.766 2982.113)" fill="none" stroke="#8c8b8b" stroke-linejoin="round" stroke-width="0.148"/>
    <line id="Line_46" data-name="Line 46" x2="11.431" transform="translate(5276.766 2858.181)" fill="none" stroke="#8c8b8b" stroke-linejoin="round" stroke-width="0.148"/>
    <line id="Line_47" data-name="Line 47" x2="11.431" transform="translate(5276.766 2807.902)" fill="none" stroke="#8c8b8b" stroke-linejoin="round" stroke-width="0.148"/>
    <line id="Line_48" data-name="Line 48" x2="242.93" transform="translate(5276.563 3023.637)" fill="none" stroke="#8c8b8b" stroke-linejoin="round" stroke-width="0.148"/>
    <line id="Line_49" data-name="Line 49" y1="215.729" transform="translate(5276.778 2807.902)" fill="none" stroke="#8c8b8b" stroke-linejoin="round" stroke-width="0.196"/>
    <line id="Line_50" data-name="Line 50" y1="15.532" transform="translate(5370.129 3008.098)" fill="none" stroke="#8c8b8b" stroke-linejoin="round" stroke-width="0.196"/>
    <text id="_0" data-name="0" transform="translate(5266 3023.098)" fill="#43403e" font-size="10" font-family="OpenSans, Open Sans" opacity="0.3"><tspan x="0" y="0">0</tspan></text>
    <text id="_0_5" data-name="0,5" transform="translate(5258 2982.774)" fill="#43403e" font-size="10" font-family="OpenSans, Open Sans" opacity="0.3"><tspan x="0" y="0">0,5</tspan></text>
    <text id="_1_5" data-name="1,5" transform="translate(5258 2864.088)" fill="#43403e" font-size="10" font-family="OpenSans, Open Sans" opacity="0.3"><tspan x="0" y="0">1,5</tspan></text>
    <text id="_2" data-name="2" transform="translate(5266 2807.175)" fill="#43403e" font-size="10" font-family="OpenSans, Open Sans" opacity="0.3"><tspan x="0" y="0">2</tspan></text>
    <text id="_1" data-name="1" transform="translate(5266 2927.044)" fill="#43403e" font-size="10" font-family="OpenSans, Open Sans"><tspan x="0" y="0">1</tspan></text>
    <line id="Line_51" data-name="Line 51" x2="0.075" transform="translate(5276.766 2920.147)" fill="none" stroke="#100f0c" stroke-linecap="round" stroke-linejoin="round" stroke-width="0.294"/>
    <line id="Line_52" data-name="Line 52" x2="240.128" transform="translate(5279.365 2920.147)" fill="none" stroke="#100f0c" stroke-linecap="round" stroke-linejoin="round" stroke-width="1" stroke-dasharray="2 4" opacity="0.2"/>
    <line id="Line_53" data-name="Line 53" transform="translate(5277.819 2915.014)" fill="none" stroke="#7a7707" stroke-linejoin="round" stroke-width="0.735"/>
    <text id="Multisoortenindex_1990_1_" data-name="Multisoortenindex (1990 = 1)" transform="translate(5251.626 2990.02) rotate(-90)" font-size="10" font-family="OpenSans, Open Sans" opacity="0.5"><tspan x="0" y="0">Multisoortenindex (1990 = 1)</tspan></text>
    <text id="_2000" data-name="2000" transform="translate(5370 3041)" font-size="10" font-family="OpenSans, Open Sans" opacity="0.3"><tspan x="-11.436" y="0">2000</tspan></text>
    <text id="_1990" data-name="1990" transform="translate(5275 3041)" font-size="10" font-family="OpenSans, Open Sans" opacity="0.3"><tspan x="-11.436" y="0">1990</tspan></text>
    <text id="_2018" data-name="2018" transform="translate(5520 3041)" font-size="10" font-family="OpenSans, Open Sans" opacity="0.3"><tspan x="-11.436" y="0">2018</tspan></text>
    <text id="_2010" data-name="2010" transform="translate(5465 3041)" font-size="10" font-family="OpenSans, Open Sans" opacity="0.3"><tspan x="-11.436" y="0">2010</tspan></text>
    <line id="Line_54" data-name="Line 54" y1="15.532" transform="translate(5463.612 3008.098)" fill="none" stroke="#8c8b8b" stroke-linejoin="round" stroke-width="0.196"/>
    <g id="Group_213" data-name="Group 213" transform="translate(5277.001 2909)">
      <g id="Group_212" data-name="Group 212" style="mix-blend-mode: multiply;isolation: isolate">
        <g id="Group_211" data-name="Group 211">
          <path id="Path_297" data-name="Path 297" d="M173.809,450.265l8.659,3.371,8.662,3.27,8.66,4.208,8.66,4.05,8.66,3.889,8.66,3.735,8.66,3.6,8.66,2.6,8.66,3.345,8.66,3.21,8.66,2.339,8.66,1.513L286.4,491.6l8.66,2.141,8.66,1.4,8.66,2.039,8.659,1.98,8.66,1.934,8.66,1.867,8.66,2.4,8.66,2.313,8.66,1.676L373,511.506l8.661,2.081,8.66,2.47,8.66,2.805,8.66,2.657,8.659,3.285V512.549l-8.659-.516-8.66-1.059-8.66-1.62-8.66-2.243L373,504.779l-8.661-2.426-8.66-2.536-8.66-1.969-8.66-2.7-8.66-2.83-8.66-2.192-8.659-1.5-8.66-2.3-8.66-2.374-8.66-1.62-8.661-1.66-8.66-2.547-8.66-2.623-8.66-2.709L243.092,470l-8.66-3.852-8.66-2.992-8.66-4.12-8.66-4.293-8.66-4.475-8.66-4.654-8.662-6.09-8.659-7.709Z" transform="translate(-173.809 -431.813)" fill="#99a891"/>
        </g>
      </g>
    </g>
    <path id="Path_298" data-name="Path 298" d="M173.808,443.473l8.66,4.863,8.661,4.558,8.66,4.3,8.66,4.061,8.66,3.854,8.659,3.611,8.66,3.32,8.66,3.128,8.66,2.993,8.66,2.774,8.661,2.515,8.66,2,8.661,1.644,8.66,1.846,8.66,1.982,8.66,1.837,8.659,1.856,8.66,2.006,8.66,2.219,8.66,2.258,8.66,2.194,8.66,2.127,8.66,2.152,8.661,2.128,8.66,2.078,8.66,2.02,8.66,1.963,8.66,1.938" transform="translate(5103.192 2477.187)" fill="none" stroke="#533a54" stroke-linejoin="round" stroke-width="0.98"/>
  </g>
</svg>
