<svg xmlns="http://www.w3.org/2000/svg" xmlns:xlink="http://www.w3.org/1999/xlink" width="291.374" height="247.825" viewBox="0 0 291.374 247.825">
  <defs>
    <clipPath id="clip-path">
      <rect id="SVGID" width="241.833" height="97.322" fill="#99a891"/>
    </clipPath>
  </defs>
  <g id="Group_233" data-name="Group 233" transform="translate(343.374 -202.175)">
    <line id="Line_1" data-name="Line 1" x2="11.431" transform="translate(-307.234 213.902)" fill="none" stroke="#8c8b8b" stroke-linejoin="round" stroke-width="0.148"/>
    <text id="_2" data-name="2" transform="translate(-318 213.175)" fill="#43403e" font-size="10" font-family="OpenSans, Open Sans" opacity="0.3"><tspan x="0" y="0">2</tspan></text>
    <g id="Group_1" data-name="Group 1" transform="translate(-347 -2586)">
      <line id="Line_19" data-name="Line 19" x2="11.431" transform="translate(39.766 2974.113)" fill="none" stroke="#8c8b8b" stroke-linejoin="round" stroke-width="0.148"/>
      <line id="Line_20" data-name="Line 20" x2="11.431" transform="translate(39.766 2850.181)" fill="none" stroke="#8c8b8b" stroke-linejoin="round" stroke-width="0.148"/>
      <line id="Line_23" data-name="Line 23" x2="242.93" transform="translate(39.563 3015.637)" fill="none" stroke="#8c8b8b" stroke-linejoin="round" stroke-width="0.148"/>
      <line id="Line_24" data-name="Line 24" y1="215.729" transform="translate(39.778 2799.902)" fill="none" stroke="#8c8b8b" stroke-linejoin="round" stroke-width="0.196"/>
      <line id="Line_25" data-name="Line 25" y1="15.532" transform="translate(133.129 3000.098)" fill="none" stroke="#8c8b8b" stroke-linejoin="round" stroke-width="0.196"/>
      <text id="_0" data-name="0" transform="translate(29 3015.098)" fill="#43403e" font-size="10" font-family="OpenSans, Open Sans" opacity="0.3"><tspan x="0" y="0">0</tspan></text>
      <text id="_0_5" data-name="0,5" transform="translate(21 2974.774)" fill="#43403e" font-size="10" font-family="OpenSans, Open Sans" opacity="0.3"><tspan x="0" y="0">0,5</tspan></text>
      <text id="_1_5" data-name="1,5" transform="translate(21 2856.088)" fill="#43403e" font-size="10" font-family="OpenSans, Open Sans" opacity="0.3"><tspan x="0" y="0">1,5</tspan></text>
      <text id="_1" data-name="1" transform="translate(29 2919.044)" fill="#43403e" font-size="10" font-family="OpenSans, Open Sans"><tspan x="0" y="0">1</tspan></text>
      <line id="Line_27" data-name="Line 27" x2="0.075" transform="translate(39.766 2912.147)" fill="none" stroke="#100f0c" stroke-linecap="round" stroke-linejoin="round" stroke-width="0.294"/>
      <line id="Line_28" data-name="Line 28" x2="240.128" transform="translate(42.365 2912.147)" fill="none" stroke="#100f0c" stroke-linecap="round" stroke-linejoin="round" stroke-width="1" stroke-dasharray="2 4" opacity="0.2"/>
      <line id="Line_30" data-name="Line 30" transform="translate(40.819 2907.014)" fill="none" stroke="#7a7707" stroke-linejoin="round" stroke-width="0.735"/>
      <text id="Multisoortenindex_1990_1_" data-name="Multisoortenindex (1990 = 1)" transform="translate(14.626 2982.02) rotate(-90)" font-size="10" font-family="OpenSans, Open Sans" opacity="0.5"><tspan x="0" y="0">Multisoortenindex (1990 = 1)</tspan></text>
      <g id="Group_162" data-name="Group 162" transform="translate(40 2822.641)">
        <g id="Group_161" data-name="Group 161" style="mix-blend-mode: multiply;isolation: isolate">
          <g id="Group_160" data-name="Group 160">
            <g id="Group_159" data-name="Group 159" clip-path="url(#clip-path)">
              <g id="Group_158" data-name="Group 158" transform="translate(0 0)">
                <g id="Group_157" data-name="Group 157" clip-path="url(#clip-path)">
                  <g id="Group_156" data-name="Group 156" transform="translate(0 0)">
                    <g id="Group_155" data-name="Group 155">
                      <g id="Group_154" data-name="Group 154" clip-path="url(#clip-path)">
                        <path id="Path_283" data-name="Path 283" d="M419.885,337.448l-8.638,7.6-8.639,7.312-8.632,3.541-8.639,1.737-8.638,1.728-8.639,1.72-8.632,1.69h-8.64l-8.638,1.673h-8.638l-8.631,1.675H307.6l-8.632,3.265-8.639,1.606-8.638,3.179-8.639,3.111-8.632,3.049-8.638,4.463-8.64,2.9-8.638,4.248-8.631,2.758-8.639,4.041-8.639,2.627-8.638,2.573-8.633,2.519h-8.638v16.307l8.638-3.3,8.633-3.4,8.638-3.51,8.639-2.4,8.639-2.451,8.631-2.488,8.638-1.267,8.64-3.888,8.638-2.649,8.632-1.344,8.639-2.734,8.638-2.789,8.639-1.412,8.632-1.43,8.639-1.436h25.908l8.638-1.467h8.64l8.632-1.467,8.639-1.489,8.638-3.027,8.639-1.529,8.632-1.544,8.639-1.567h8.638l8.638,1.567V325.45Z" transform="translate(-186.691 -325.449)" fill="#99a891"/>
                      </g>
                    </g>
                  </g>
                </g>
              </g>
            </g>
          </g>
        </g>
      </g>
      <path id="Path_284" data-name="Path 284" d="M186.691,423.4l8.638-2.55,8.633-2.635,8.638-2.681,8.639-2.811,8.639-2.919,8.631-2.957,8.638-2.942,8.64-3.026,8.638-3.111,8.632-2.98,8.638-2.6,8.638-2.473,8.64-2.451,8.631-1.943,8.639-.974,8.639-.208,8.631-.055,8.638-.468,8.639-.714,8.639-.738,8.631-1.221,8.639-1.736,8.638-2.013,8.639-2.366,8.632-2.826,8.639-3.372,8.639-3.848,8.638-4.3" transform="translate(-146.691 2489.1)" fill="none" stroke="#533a54" stroke-linejoin="round" stroke-width="0.98"/>
      <text id="_2000" data-name="2000" transform="translate(133 3033)" font-size="10" font-family="OpenSans, Open Sans" opacity="0.3"><tspan x="-11.436" y="0">2000</tspan></text>
      <text id="_1990" data-name="1990" transform="translate(38 3033)" font-size="10" font-family="OpenSans, Open Sans" opacity="0.3"><tspan x="-11.436" y="0">1990</tspan></text>
      <text id="_2018" data-name="2018" transform="translate(283 3033)" font-size="10" font-family="OpenSans, Open Sans" opacity="0.3"><tspan x="-11.436" y="0">2018</tspan></text>
      <text id="_2010" data-name="2010" transform="translate(228 3033)" font-size="10" font-family="OpenSans, Open Sans" opacity="0.3"><tspan x="-11.436" y="0">2010</tspan></text>
      <line id="Line_26" data-name="Line 26" y1="15.532" transform="translate(226.612 3000.098)" fill="none" stroke="#8c8b8b" stroke-linejoin="round" stroke-width="0.196"/>
    </g>
  </g>
</svg>
