<svg xmlns="http://www.w3.org/2000/svg" xmlns:xlink="http://www.w3.org/1999/xlink" width="291.374" height="247.825" viewBox="0 0 291.374 247.825">
  <defs>
    <clipPath id="clip-path">
      <rect id="Rectangle_69" data-name="Rectangle 69" width="243.493" height="67.695" fill="#99a891"/>
    </clipPath>
  </defs>
  <g id="Group_2" data-name="Group 2" transform="translate(-5240.626 -2796.175)">
    <line id="Line_45" data-name="Line 45" x2="11.431" transform="translate(5276.766 2982.113)" fill="none" stroke="#8c8b8b" stroke-linejoin="round" stroke-width="0.148"/>
    <line id="Line_46" data-name="Line 46" x2="11.431" transform="translate(5276.766 2858.181)" fill="none" stroke="#8c8b8b" stroke-linejoin="round" stroke-width="0.148"/>
    <line id="Line_47" data-name="Line 47" x2="11.431" transform="translate(5276.766 2807.902)" fill="none" stroke="#8c8b8b" stroke-linejoin="round" stroke-width="0.148"/>
    <line id="Line_48" data-name="Line 48" x2="242.93" transform="translate(5276.563 3023.637)" fill="none" stroke="#8c8b8b" stroke-linejoin="round" stroke-width="0.148"/>
    <line id="Line_49" data-name="Line 49" y1="215.729" transform="translate(5276.778 2807.902)" fill="none" stroke="#8c8b8b" stroke-linejoin="round" stroke-width="0.196"/>
    <line id="Line_50" data-name="Line 50" y1="15.532" transform="translate(5370.129 3008.098)" fill="none" stroke="#8c8b8b" stroke-linejoin="round" stroke-width="0.196"/>
    <text id="_0" data-name="0" transform="translate(5266 3023.098)" fill="#43403e" font-size="10" font-family="OpenSans, Open Sans" opacity="0.3"><tspan x="0" y="0">0</tspan></text>
    <text id="_0_5" data-name="0,5" transform="translate(5258 2982.774)" fill="#43403e" font-size="10" font-family="OpenSans, Open Sans" opacity="0.3"><tspan x="0" y="0">0,5</tspan></text>
    <text id="_1_5" data-name="1,5" transform="translate(5258 2864.088)" fill="#43403e" font-size="10" font-family="OpenSans, Open Sans" opacity="0.3"><tspan x="0" y="0">1,5</tspan></text>
    <text id="_2" data-name="2" transform="translate(5266 2807.175)" fill="#43403e" font-size="10" font-family="OpenSans, Open Sans" opacity="0.3"><tspan x="0" y="0">2</tspan></text>
    <text id="_1" data-name="1" transform="translate(5266 2927.044)" fill="#43403e" font-size="10" font-family="OpenSans, Open Sans"><tspan x="0" y="0">1</tspan></text>
    <line id="Line_51" data-name="Line 51" x2="0.075" transform="translate(5276.766 2920.147)" fill="none" stroke="#100f0c" stroke-linecap="round" stroke-linejoin="round" stroke-width="0.294"/>
    <line id="Line_52" data-name="Line 52" x2="240.128" transform="translate(5279.365 2920.147)" fill="none" stroke="#100f0c" stroke-linecap="round" stroke-linejoin="round" stroke-width="1" stroke-dasharray="2 4" opacity="0.2"/>
    <line id="Line_53" data-name="Line 53" transform="translate(5277.819 2915.014)" fill="none" stroke="#7a7707" stroke-linejoin="round" stroke-width="0.735"/>
    <text id="Multisoortenindex_1990_1_" data-name="Multisoortenindex (1990 = 1)" transform="translate(5251.626 2990.02) rotate(-90)" font-size="10" font-family="OpenSans, Open Sans" opacity="0.5"><tspan x="0" y="0">Multisoortenindex (1990 = 1)</tspan></text>
    <text id="_2000" data-name="2000" transform="translate(5370 3041)" font-size="10" font-family="OpenSans, Open Sans" opacity="0.3"><tspan x="-11.436" y="0">2000</tspan></text>
    <text id="_1990" data-name="1990" transform="translate(5275 3041)" font-size="10" font-family="OpenSans, Open Sans" opacity="0.3"><tspan x="-11.436" y="0">1990</tspan></text>
    <text id="_2018" data-name="2018" transform="translate(5520 3041)" font-size="10" font-family="OpenSans, Open Sans" opacity="0.3"><tspan x="-11.436" y="0">2018</tspan></text>
    <text id="_2010" data-name="2010" transform="translate(5465 3041)" font-size="10" font-family="OpenSans, Open Sans" opacity="0.3"><tspan x="-11.436" y="0">2010</tspan></text>
    <line id="Line_54" data-name="Line 54" y1="15.532" transform="translate(5463.612 3008.098)" fill="none" stroke="#8c8b8b" stroke-linejoin="round" stroke-width="0.196"/>
    <g id="Group_208" data-name="Group 208" transform="translate(5095.769 2478.413)">
      <g id="Group_207" data-name="Group 207" transform="translate(180.231 429.587)">
        <g id="Group_206" data-name="Group 206" style="mix-blend-mode: multiply;isolation: isolate">
          <g id="Group_205" data-name="Group 205">
            <g id="Group_204" data-name="Group 204" clip-path="url(#clip-path)">
              <g id="Group_203" data-name="Group 203" transform="translate(0 0)">
                <g id="Group_202" data-name="Group 202" clip-path="url(#clip-path)">
                  <g id="Group_201" data-name="Group 201" transform="translate(0 0)">
                    <g id="Group_200" data-name="Group 200">
                      <g id="Group_199" data-name="Group 199" clip-path="url(#clip-path)">
                        <path id="Path_295" data-name="Path 295" d="M180.231,450.787l8.7,2.783,8.691,1.374,8.7,2.709,8.7,2.668,8.7,1.3,8.691,2.588,8.7,1.266h52.182l8.69,2.5,8.7,1.233,8.7,2.424,8.692,3.554,8.7,3.44,8.7,2.241,8.7,1.1,8.69,2.181,8.7,1.07,8.7,1.055,8.7,1.057,8.691,2.064,8.7,2.032,8.7,1.99,8.7,3.859V469.211l-8.7,3.615-8.7,1.192-8.7,1.171-8.691-1.171-8.7-1.192-8.7-1.191-8.7-2.424-8.69-2.486-8.7-1.251-8.7-2.56-8.7-2.593-8.692-4.009-8.7-4.124-8.7-2.816h-8.69l-8.7-1.436h-17.4l-8.691,1.436-8.7,1.415-8.7-1.415h-8.7l-8.691-1.436-8.7-1.441-8.7-1.463-8.7-4.475-8.691-4.611-8.7-6.358Z" transform="translate(-180.231 -429.587)" fill="#99a891"/>
                      </g>
                    </g>
                  </g>
                </g>
              </g>
            </g>
          </g>
        </g>
      </g>
      <path id="Path_296" data-name="Path 296" d="M180.231,441.159l8.7,3.764,8.692,3.271,8.7,2.789,8.7,2.275,8.7,1.835,8.692,1.476,8.7,1.178,8.7.359,8.7-.6,8.691-.765,8.7-.108,8.7.406,8.7.542,8.691,1.191,8.7,2.445,8.7,3.324,8.692,3.439,8.7,2.817,8.7,2.214,8.7,2.032,8.691,1.807,8.7,1.6,8.7,1.428,8.7,1.226,8.692,1.009,8.7.827,8.7.649,8.7.468" fill="none" stroke="#533a54" stroke-linejoin="round" stroke-width="0.982"/>
    </g>
  </g>
</svg>
