<svg xmlns="http://www.w3.org/2000/svg" xmlns:xlink="http://www.w3.org/1999/xlink" width="821.289" height="400.188" viewBox="0 0 821.289 400.188">
  <defs>
    <clipPath id="clip-path">
      <rect id="Rectangle_29" data-name="Rectangle 29" width="821.289" height="400.188" fill="none"/>
    </clipPath>
    <clipPath id="clip-path-3">
      <rect id="SVGID" width="677.346" height="126.545" fill="none"/>
    </clipPath>
  </defs>
  <g id="Group_197" data-name="Group 197" transform="translate(-239 -2470.297)">
    <g id="Group_109" data-name="Group 109" transform="translate(75.813 2198.833)">
      <line id="Line_19" data-name="Line 19" x2="11.431" transform="translate(227.953 559.399)" fill="none" stroke="#8c8b8b" stroke-linejoin="round" stroke-width="0.148"/>
      <line id="Line_20" data-name="Line 20" x2="11.431" transform="translate(227.953 373.403)" fill="none" stroke="#8c8b8b" stroke-linejoin="round" stroke-width="0.148"/>
      <line id="Line_22" data-name="Line 22" x2="11.431" transform="translate(227.953 290.069)" fill="none" stroke="#8c8b8b" stroke-linejoin="round" stroke-width="0.148"/>
      <line id="Line_23" data-name="Line 23" x2="679.782" transform="translate(227.75 631.586)" fill="none" stroke="#8c8b8b" stroke-linejoin="round" stroke-width="0.148"/>
      <line id="Line_24" data-name="Line 24" y1="341.51" transform="translate(227.965 290.069)" fill="none" stroke="#8c8b8b" stroke-linejoin="round" stroke-width="0.196"/>
      <line id="Line_25" data-name="Line 25" y1="14.258" transform="translate(470.68 617.32)" fill="none" stroke="#8c8b8b" stroke-linejoin="round" stroke-width="0.196"/>
      <line id="Line_26" data-name="Line 26" y1="14.258" transform="translate(713.398 617.32)" fill="none" stroke="#8c8b8b" stroke-linejoin="round" stroke-width="0.196"/>
      <text id="_0" data-name="0" transform="translate(202.274 631.047)" fill="#43403e" font-size="14" font-family="OpenSans, Open Sans" opacity="0.3"><tspan x="0" y="0">0</tspan></text>
      <text id="_0_5" data-name="0,5" transform="translate(193.222 560.075)" fill="#43403e" font-size="14" font-family="OpenSans, Open Sans" opacity="0.3"><tspan x="0" y="0">0,5</tspan></text>
      <text id="_1_5" data-name="1,5" transform="translate(193.222 377.089)" fill="#43403e" font-size="14" font-family="OpenSans, Open Sans" opacity="0.3"><tspan x="0" y="0">1,5</tspan></text>
      <text id="_2" data-name="2" transform="translate(207.666 289.342)" fill="#43403e" font-size="14" font-family="OpenSans, Open Sans" opacity="0.3"><tspan x="0" y="0">2</tspan></text>
      <text id="_1" data-name="1" transform="translate(207.666 474.154)" fill="#43403e" font-size="14" font-family="OpenSans, Open Sans"><tspan x="0" y="0">1</tspan></text>
      <line id="Line_27" data-name="Line 27" x2="0.075" transform="translate(227.953 466.401)" fill="none" stroke="#100f0c" stroke-linecap="round" stroke-linejoin="round" stroke-width="0.294"/>
      <line id="Line_28" data-name="Line 28" x2="675.641" transform="translate(230.552 466.401)" fill="none" stroke="#100f0c" stroke-linecap="round" stroke-linejoin="round" stroke-width="1" stroke-dasharray="2 4" opacity="0.2"/>
      <line id="Line_29" data-name="Line 29" x2="0.072" transform="translate(907.457 466.401)" fill="none" stroke="#100f0c" stroke-linecap="round" stroke-linejoin="round" stroke-width="0.294"/>
      <line id="Line_30" data-name="Line 30" transform="translate(229.006 458.698)" fill="none" stroke="#7a7707" stroke-linejoin="round" stroke-width="0.735"/>
      <g id="Group_108" data-name="Group 108" transform="translate(163.187 271.464)">
        <g id="Group_107" data-name="Group 107" clip-path="url(#clip-path)">
          <text id="Pourcentages_des_espèces_par_" data-name="Pourcentages des espèces par " transform="translate(-311.781 210.405)" fill="#100f0c" font-size="9" font-family="WWF"><tspan x="0" y="0">Pourcentages des espèces par </tspan></text>
          <text id="tendance" transform="translate(-311.781 223.995)" fill="#100f0c" font-size="9" font-family="WWF"><tspan x="0" y="0">tendance</tspan></text>
          <text id="IPV_Belgique_-_Zones_naturelles_ouvertes" data-name="IPV Belgique - Zones naturelles ouvertes" transform="translate(-314.074 -7.63)" fill="#100f0c" font-size="14" font-family="WWF"><tspan x="0" y="0">IPV Belgique - Zones naturelles ouvertes</tspan></text>
          <path id="Path_139" data-name="Path 139" d="M109.573,520.959,98.5,477.607c3.786-.223,7.259-.324,11.076-.324Z" transform="translate(-265.201 -222.397)" fill="#c6c6c5"/>
          <path id="Path_140" data-name="Path 140" d="M158.418,520.9,107.6,557.106C65.98,543.618,55,516.472,83.07,496.473c15.158-10.8,37.369-17.34,64.272-18.928Z" transform="translate(-314.047 -222.334)" fill="#ffca00"/>
          <path id="Path_141" data-name="Path 141" d="M133.9,512.551l90.39,4.566c-5.247,23.989-49.967,41.394-99.891,38.872a156.185,156.185,0,0,1-41.322-7.229Z" transform="translate(-289.525 -213.989)" fill="#91b508"/>
          <path id="Path_142" data-name="Path 142" d="M102.795,520.959V477.283c50.194,0,90.885,19.554,90.885,43.676a17.839,17.839,0,0,1-.495,4.566Z" transform="translate(-258.424 -222.397)" fill="#c90037"/>
          <text id="Cet_index_est_composé_de_" data-name="Cet index est composé de " transform="translate(-314.075 25.87)" fill="#100f0c" font-size="5" font-family="OpenSans, Open Sans"><tspan x="0" y="0">Cet index est composé de </tspan></text>
          <text id="_52_espèces._2_de_ces_espèces_sont_" data-name="52 espèces. 2 de ces espèces sont " transform="translate(-314.075 36.795)" fill="#100f0c" font-size="5" font-family="OpenSans, Open Sans"><tspan x="0" y="0">52 espèces. 2 de ces espèces sont </tspan></text>
          <text id="des_oiseaux_22_des_sauterelles_et_" data-name="des oiseaux, 22 des sauterelles et " transform="translate(-314.075 47.721)" fill="#100f0c" font-size="5" font-family="OpenSans, Open Sans"><tspan x="0" y="0">des oiseaux, 22 des sauterelles et </tspan></text>
          <text id="criquets_2_des_reptiles_1_des_" data-name="criquets, 2 des reptiles, 1 des " transform="translate(-314.075 58.646)" fill="#100f0c" font-size="5" font-family="OpenSans, Open Sans"><tspan x="0" y="0">criquets, 2 des reptiles, 1 des </tspan></text>
          <text id="amphibiens_et_25_des_papillons_de_" data-name="amphibiens, et 25 des papillons de " transform="translate(-314.075 69.571)" fill="#100f0c" font-size="5" font-family="OpenSans, Open Sans"><tspan x="0" y="0">amphibiens, et 25 des papillons de </tspan></text>
          <text id="jour._La_tendance_générale_de_cet_" data-name="jour. La tendance générale de cet " transform="translate(-314.075 80.495)" fill="#100f0c" font-size="5" font-family="OpenSans, Open Sans"><tspan x="0" y="0">jour. La tendance générale de cet </tspan></text>
          <text id="index_est_une_augmentation_" data-name="index est une augmentation " transform="translate(-314.075 91.421)" fill="#100f0c" font-size="5" font-family="OpenSans, Open Sans"><tspan x="0" y="0">index est une augmentation </tspan></text>
          <text id="modérée_de_0_5_par_an._Sur_les_10_" data-name="modérée de 0,5 % par an. Sur les 10 " transform="translate(-314.075 102.346)" fill="#100f0c" font-size="5" font-family="OpenSans, Open Sans"><tspan x="0" y="0">modérée de 0,5 % par an. Sur les 10 </tspan></text>
          <text id="dernières_années_cette_tendance_" data-name="dernières années, cette tendance " transform="translate(-314.075 113.271)" fill="#100f0c" font-size="5" font-family="OpenSans, Open Sans"><tspan x="0" y="0">dernières années, cette tendance </tspan></text>
          <text id="est_de_0_4_par_an_et_est_stable." data-name="est de +0,4 % par an et est stable." transform="translate(-314.075 124.196)" fill="#100f0c" font-size="5" font-family="OpenSans, Open Sans"><tspan x="0" y="0">est de +0,4 % par an et est stable.</tspan></text>
          <text id="En_diminution" data-name="En diminution" transform="translate(-101.686 242.159)" fill="#c90037" font-size="8" font-family="WWF"><tspan x="0" y="0">En diminution</tspan></text>
          <text id="En_augmentation" data-name="En augmentation" transform="translate(-116.528 358.584)" fill="#91b508" font-size="8" font-family="WWF"><tspan x="0" y="0">En augmentation</tspan></text>
          <text id="Stable" transform="translate(-311.451 281.917)" fill="#ffca00" font-size="8" font-family="WWF"><tspan x="0" y="0">Stable</tspan></text>
          <text id="Incertain" transform="translate(-259.288 242.869)" fill="#c6c6c5" font-size="8" font-family="WWF"><tspan x="0" y="0">Ince</tspan><tspan y="0" letter-spacing="0.012em">r</tspan><tspan y="0">tain</tspan></text>
          <path id="Path_143" data-name="Path 143" d="M126.128,477.384c0,1.9-3.2,3.435-7.149,3.435s-7.151-1.538-7.151-3.435,3.2-3.435,7.151-3.435,7.149,1.538,7.149,3.435" transform="translate(-244.179 -223.192)" fill="#c90037"/>
          <path id="Path_144" data-name="Path 144" d="M119.182,476.071v-7.465H86.929" transform="translate(-283.444 -224.465)" fill="none" stroke="#c6c6c5" stroke-miterlimit="10" stroke-width="0.738"/>
          <path id="Path_145" data-name="Path 145" d="M110.97,475.156c0,1.9-3.2,3.435-7.149,3.435s-7.151-1.538-7.151-3.435,3.2-3.435,7.151-3.435,7.149,1.538,7.149,3.435" transform="translate(-268.083 -223.723)" fill="#c6c6c5"/>
          <path id="Path_146" data-name="Path 146" d="M102.9,550.436v14.387h33.918" transform="translate(-258.263 -204.957)" fill="none" stroke="#91b508" stroke-miterlimit="10" stroke-width="0.738"/>
          <path id="Path_147" data-name="Path 147" d="M100.122,551.236c0-1.9,3.2-3.435,7.149-3.435s7.151,1.538,7.151,3.435-3.2,3.435-7.151,3.435-7.149-1.538-7.149-3.435" transform="translate(-262.639 -205.585)" fill="#91b508"/>
          <path id="Path_148" data-name="Path 148" d="M88.869,519.414H48.951V505.736" transform="translate(-343.334 -215.614)" fill="none" stroke="#ffca00" stroke-miterlimit="10" stroke-width="0.738"/>
          <path id="Path_149" data-name="Path 149" d="M68.678,514.006c3.948,0,7.149,1.539,7.149,3.435s-3.2,3.437-7.149,3.437-7.149-1.538-7.149-3.437,3.2-3.435,7.149-3.435" transform="translate(-323.499 -213.642)" fill="#ffca00"/>
          <text id="_26_9_" data-name="26,9 %" transform="translate(-133.157 283.413)" fill="#161615" font-size="8" font-family="WWF"><tspan x="0" y="0">26,9</tspan><tspan y="0" letter-spacing="0.05em"> </tspan><tspan y="0">%</tspan></text>
          <text id="_32_7_" data-name="32,7 %" transform="translate(-157.977 318.824)" fill="#161615" font-size="8" font-family="WWF"><tspan x="0" y="0">32,7</tspan><tspan y="0" letter-spacing="0.05em"> </tspan><tspan y="0">%</tspan></text>
          <text id="_38_5_" data-name="38,5 %" transform="translate(-226.436 294.063)" fill="#161615" font-size="8" font-family="WWF"><tspan x="0" y="0">38,5</tspan><tspan y="0" letter-spacing="0.05em"> </tspan><tspan y="0">%</tspan></text>
          <text id="_1_9" data-name="1,9" transform="translate(-172.705 270.415)" fill="#161615" font-size="8" font-family="WWF"><tspan x="0" y="0">1,9</tspan></text>
          <text id="IPV_Belgique_-_Zones_" data-name="IPV Belgique - Zones " transform="translate(-290.425 161.954)" fill="#100f0c" font-size="5" font-family="OpenSans, Open Sans"><tspan x="0" y="0">IPV Belgique - Zones </tspan></text>
          <text id="naturelles_ouvertes" data-name="naturelles ouvertes" transform="translate(-290.425 172.879)" fill="#100f0c" font-size="5" font-family="OpenSans, Open Sans"><tspan x="0" y="0">naturelles ouvertes</tspan></text>
          <path id="Path_150" data-name="Path 150" d="M51.16,424.1v-6.064h1.469V424.1Zm11.192,0v-2.941a.881.881,0,0,0-.528-.828,3.725,3.725,0,0,0-1.647-.275A4.652,4.652,0,0,0,58,420.44a1.347,1.347,0,0,0-.691,1.273V424.1H55.876v-4.546h1.167l.232.623h.07a3.242,3.242,0,0,1,1.234-.521,7.842,7.842,0,0,1,1.77-.185,6.444,6.444,0,0,1,2.572.4,1.321,1.321,0,0,1,.863,1.267V424.1Zm7.435-.486q.379,0,.734-.026c.235-.019.423-.037.562-.057v.528a5.012,5.012,0,0,1-.688.089c-.3.024-.572.035-.814.035q-2.744,0-2.744-1.389v-2.7H65.48v-.332l1.355-.286.6-.971h.83v1.054h2.744v.535H68.269v2.676a.685.685,0,0,0,.4.63A2.361,2.361,0,0,0,69.786,423.613Zm7.182.568a7.426,7.426,0,0,1-3.311-.613,1.883,1.883,0,0,1-1.211-1.705,1.952,1.952,0,0,1,1.126-1.746,6.055,6.055,0,0,1,3.025-.648,5.926,5.926,0,0,1,2.814.562,1.675,1.675,0,0,1,1.036,1.484v.435H73.93a1.406,1.406,0,0,0,.84,1.216,4.974,4.974,0,0,0,2.25.415,14.981,14.981,0,0,0,3.02-.307v.613a14.01,14.01,0,0,1-1.435.227C78.151,424.159,77.607,424.181,76.968,424.181Zm-.389-4.135a3.914,3.914,0,0,0-1.817.357,1.405,1.405,0,0,0-.8.987h4.948a1.1,1.1,0,0,0-.606-1A3.522,3.522,0,0,0,76.579,420.046Zm10.625-.577c.42,0,.8.017,1.131.049l-.2.639A10.142,10.142,0,0,0,87.1,420.1a4.026,4.026,0,0,0-1.964.448,1.3,1.3,0,0,0-.814,1.116V424.1H82.89v-4.546h1.18l.165.842h.07a3.726,3.726,0,0,1,1.268-.685A5.283,5.283,0,0,1,87.2,419.469Zm4.968,4.629-3.59-4.546h1.536l2.038,2.7a9.512,9.512,0,0,1,.812,1.228h.067a6.578,6.578,0,0,1,.6-.91q.506-.691,2.265-3.014H97.44L93.848,424.1Zm12.6,0-.286-.646h-.067a4.6,4.6,0,0,1-1.412.578,8.5,8.5,0,0,1-1.757.151,5.622,5.622,0,0,1-2.2-.348c-.533-.233-.8-.562-.8-.992q0-1.376,4.582-1.443l1.605-.025v-.282a.838.838,0,0,0-.479-.79,3.411,3.411,0,0,0-1.531-.255,11.93,11.93,0,0,0-2.675.348l-.441-.526a11.6,11.6,0,0,1,1.531-.286,13.5,13.5,0,0,1,1.67-.1,6.552,6.552,0,0,1,2.507.36,1.208,1.208,0,0,1,.817,1.158v3.1Zm-3.237-.486a5.121,5.121,0,0,0,2.1-.352,1.094,1.094,0,0,0,.763-.988v-.41l-1.433.028a10.159,10.159,0,0,0-2.464.255c-.505.151-.755.385-.755.7,0,.249.155.438.469.568A3.549,3.549,0,0,0,101.54,423.613Zm8.682.486h-1.433v-6.455h1.433Zm4.471,0H113.26v-6.455h1.433Zm7.038.083a7.426,7.426,0,0,1-3.311-.613,1.882,1.882,0,0,1-1.214-1.705,1.955,1.955,0,0,1,1.129-1.746,6.049,6.049,0,0,1,3.025-.648,5.926,5.926,0,0,1,2.814.562,1.675,1.675,0,0,1,1.036,1.484v.435h-6.517a1.406,1.406,0,0,0,.84,1.216,4.974,4.974,0,0,0,2.25.415,14.982,14.982,0,0,0,3.02-.307v.613a13.944,13.944,0,0,1-1.438.227C122.913,424.159,122.367,424.181,121.73,424.181Zm-.389-4.135a3.914,3.914,0,0,0-1.817.357,1.4,1.4,0,0,0-.8.987h4.945a1.093,1.093,0,0,0-.6-1A3.528,3.528,0,0,0,121.341,420.046Zm17.346,3.443h-.08a5.191,5.191,0,0,1-2.969.692,5.7,5.7,0,0,1-2.886-.609,1.914,1.914,0,0,1-1.033-1.734,1.94,1.94,0,0,1,1.036-1.746,5.612,5.612,0,0,1,2.884-.623,5.4,5.4,0,0,1,2.953.672h.111l-.059-.328-.036-.319v-1.85h1.433V424.1h-1.165Zm-2.866.116a4.435,4.435,0,0,0,2.126-.384,1.323,1.323,0,0,0,.66-1.238v-.145a1.492,1.492,0,0,0-.667-1.38,4.221,4.221,0,0,0-2.136-.412,3.338,3.338,0,0,0-1.93.471,1.529,1.529,0,0,0-.667,1.329,1.479,1.479,0,0,0,.665,1.315A3.516,3.516,0,0,0,135.821,423.605Zm11.259.576a7.426,7.426,0,0,1-3.311-.613,1.883,1.883,0,0,1-1.211-1.705,1.952,1.952,0,0,1,1.126-1.746,6.055,6.055,0,0,1,3.025-.648,5.926,5.926,0,0,1,2.814.562,1.675,1.675,0,0,1,1.036,1.484v.435h-6.517a1.406,1.406,0,0,0,.84,1.216,4.974,4.974,0,0,0,2.25.415,14.981,14.981,0,0,0,3.02-.307v.613a14.009,14.009,0,0,1-1.435.227C148.263,424.159,147.719,424.181,147.08,424.181Zm-.389-4.135a3.914,3.914,0,0,0-1.817.357,1.405,1.405,0,0,0-.8.987h4.948a1.1,1.1,0,0,0-.606-1A3.521,3.521,0,0,0,146.691,420.046Zm17.078,3.9a10.076,10.076,0,0,1-2.391.237,6.8,6.8,0,0,1-3.18-.607,1.881,1.881,0,0,1-1.126-1.72,1.93,1.93,0,0,1,1.144-1.762,6.916,6.916,0,0,1,3.257-.623,13.217,13.217,0,0,1,1.363.071,8.41,8.41,0,0,1,1.072.166l-.441.584c-.317-.061-.662-.11-1.036-.151a9.562,9.562,0,0,0-.992-.059q-2.884,0-2.884,1.766a1.436,1.436,0,0,0,.7,1.287,3.925,3.925,0,0,0,2.085.448,12.516,12.516,0,0,0,2.425-.245v.609Zm10.408-2.124a1.915,1.915,0,0,1-1.165,1.736,6.882,6.882,0,0,1-3.219.624,8.1,8.1,0,0,1-2.255-.286,3.477,3.477,0,0,1-1.518-.821,1.711,1.711,0,0,1-.536-1.253,1.907,1.907,0,0,1,1.157-1.731,6.869,6.869,0,0,1,3.211-.62,6.624,6.624,0,0,1,3.154.635A1.914,1.914,0,0,1,174.177,421.821Zm-7.208,0a1.472,1.472,0,0,0,.727,1.328,4.031,4.031,0,0,0,2.131.457,4.09,4.09,0,0,0,2.136-.454,1.469,1.469,0,0,0,.729-1.33,1.452,1.452,0,0,0-.729-1.316,4.16,4.16,0,0,0-2.154-.451,4.09,4.09,0,0,0-2.123.445A1.458,1.458,0,0,0,166.969,421.821Zm16.194,2.277v-2.941a.883.883,0,0,0-.526-.828,3.737,3.737,0,0,0-1.649-.275,4.647,4.647,0,0,0-2.175.386,1.342,1.342,0,0,0-.691,1.273V424.1H176.69v-4.546h1.165l.234.623h.067a3.26,3.26,0,0,1,1.234-.521,7.875,7.875,0,0,1,1.77-.185,6.435,6.435,0,0,1,2.572.4,1.321,1.321,0,0,1,.863,1.267V424.1Zm8.646-4.011H189.4V424.1h-1.433v-4.011h-1.69v-.311l1.69-.249v-.253q0-1.676,3.046-1.677a12.633,12.633,0,0,1,1.763.146l-.371.551a9.528,9.528,0,0,0-1.417-.129,2.187,2.187,0,0,0-1.2.26.923.923,0,0,0-.389.831v.295h2.409Zm1.605-1.767a.362.362,0,0,1,.24-.346,1.682,1.682,0,0,1,1.2,0,.364.364,0,0,1,0,.691,1.638,1.638,0,0,1-1.2,0A.368.368,0,0,1,193.414,418.32Zm1.554,5.778h-1.433v-4.546h1.433Zm8.86,0-.286-.646h-.07a4.586,4.586,0,0,1-1.41.578,8.517,8.517,0,0,1-1.757.151,5.645,5.645,0,0,1-2.206-.348c-.531-.233-.8-.562-.8-.992q0-1.376,4.584-1.443l1.605-.025v-.282a.838.838,0,0,0-.479-.79,3.418,3.418,0,0,0-1.531-.255,11.951,11.951,0,0,0-2.677.348l-.441-.526a11.561,11.561,0,0,1,1.533-.286,13.441,13.441,0,0,1,1.67-.1,6.552,6.552,0,0,1,2.507.36,1.208,1.208,0,0,1,.817,1.158v3.1Zm-3.237-.486a5.1,5.1,0,0,0,2.1-.352,1.093,1.093,0,0,0,.765-.988v-.41l-1.433.028a10.184,10.184,0,0,0-2.466.255c-.5.151-.755.385-.755.7q0,.373.472.568A3.54,3.54,0,0,0,200.591,423.613Zm13.72.486v-2.941a.883.883,0,0,0-.526-.828,3.73,3.73,0,0,0-1.649-.275,4.647,4.647,0,0,0-2.175.386,1.342,1.342,0,0,0-.691,1.273V424.1h-1.433v-4.546H209l.235.623h.07a3.224,3.224,0,0,1,1.234-.521,7.835,7.835,0,0,1,1.768-.185,6.435,6.435,0,0,1,2.572.4,1.317,1.317,0,0,1,.863,1.267V424.1Zm10.553-.154a10.061,10.061,0,0,1-2.391.237,6.8,6.8,0,0,1-3.18-.607,1.886,1.886,0,0,1-1.126-1.72,1.93,1.93,0,0,1,1.144-1.762,6.923,6.923,0,0,1,3.257-.623,13.179,13.179,0,0,1,1.363.071,8.41,8.41,0,0,1,1.072.166l-.441.584c-.317-.061-.662-.11-1.036-.151a9.563,9.563,0,0,0-.992-.059q-2.884,0-2.884,1.766a1.436,1.436,0,0,0,.7,1.287,3.926,3.926,0,0,0,2.085.448,12.5,12.5,0,0,0,2.425-.245v.609Zm6.239.237a7.422,7.422,0,0,1-3.309-.613,1.882,1.882,0,0,1-1.214-1.705,1.957,1.957,0,0,1,1.126-1.746,6.062,6.062,0,0,1,3.025-.648,5.926,5.926,0,0,1,2.814.562,1.675,1.675,0,0,1,1.036,1.484v.435h-6.517a1.408,1.408,0,0,0,.843,1.216,4.959,4.959,0,0,0,2.25.415,14.981,14.981,0,0,0,3.02-.307v.613a14.166,14.166,0,0,1-1.438.227Q232.062,424.182,231.1,424.181Zm-.387-4.135a3.913,3.913,0,0,0-1.817.357,1.4,1.4,0,0,0-.8.987h4.945a1.093,1.093,0,0,0-.6-1A3.528,3.528,0,0,0,230.716,420.046Zm10.094,1.725a3.525,3.525,0,0,1,.667-2.057,5.834,5.834,0,0,1,1.93-1.68h1.4a6.175,6.175,0,0,0-1.871,1.758,3.558,3.558,0,0,0-.624,1.97,3.449,3.449,0,0,0,.637,1.946,6.394,6.394,0,0,0,1.84,1.735h-1.381a5.7,5.7,0,0,1-1.933-1.647A3.444,3.444,0,0,1,240.81,421.771Zm13.684-1.149q0,3.559-5.734,3.559a11.841,11.841,0,0,1-1.587-.083v-.593a10.3,10.3,0,0,0,1.572.108,6.333,6.333,0,0,0,3.128-.615,2.244,2.244,0,0,0,1.152-1.89h-.1a3.441,3.441,0,0,1-1.26.525,7.93,7.93,0,0,1-1.77.181,6.111,6.111,0,0,1-2.657-.482,1.48,1.48,0,0,1-.984-1.344,1.663,1.663,0,0,1,1.1-1.493,6.529,6.529,0,0,1,2.9-.547,7.185,7.185,0,0,1,2.247.317,3.218,3.218,0,0,1,1.482.925A2.139,2.139,0,0,1,254.493,420.622Zm-4.247-2.087a3.912,3.912,0,0,0-1.91.383,1.173,1.173,0,0,0-.673,1.061,1.04,1.04,0,0,0,.621.94,4.062,4.062,0,0,0,1.892.342,6.364,6.364,0,0,0,1.446-.154,2.975,2.975,0,0,0,1.039-.419.719.719,0,0,0,.381-.556,1.151,1.151,0,0,0-.353-.8,2.413,2.413,0,0,0-.99-.581A4.581,4.581,0,0,0,250.247,418.535Zm8.03,1.954q.993-.095,1.977-.1a8.385,8.385,0,0,1,3.139.476q1.144.474,1.144,1.3c0,.628-.417,1.119-1.247,1.476a8.951,8.951,0,0,1-3.44.535,12.322,12.322,0,0,1-3.255-.327v-.664a8.659,8.659,0,0,0,1.5.292,15.08,15.08,0,0,0,1.77.105,6.421,6.421,0,0,0,2.361-.344q.839-.344.84-1,0-1.269-3.237-1.269-.819,0-2.193.121l-.742-.229.477-2.837h6.275v.635H258.6l-.32,1.821Zm17.92-.646a1.665,1.665,0,0,1-.66,1.429,3.263,3.263,0,0,1-1.938.483,3.112,3.112,0,0,1-1.879-.494,1.865,1.865,0,0,1-.026-2.837,3.173,3.173,0,0,1,1.9-.477,3.232,3.232,0,0,1,1.925.493A1.638,1.638,0,0,1,276.2,419.843Zm-3.953,0a1.528,1.528,0,0,0,.32,1.058,1.332,1.332,0,0,0,1.036.352,1.406,1.406,0,1,0,0-2.812,1.34,1.34,0,0,0-1.036.349A1.509,1.509,0,0,0,272.244,419.843Zm9.331-1.809-7,6.064h-1.268l7-6.064Zm2.226,4.239a1.659,1.659,0,0,1-.66,1.425,3.263,3.263,0,0,1-1.938.483,3.114,3.114,0,0,1-1.886-.493,1.868,1.868,0,0,1-.018-2.833,3.173,3.173,0,0,1,1.9-.477,3.266,3.266,0,0,1,1.912.487A1.625,1.625,0,0,1,283.8,422.273Zm-3.963,0a1.536,1.536,0,0,0,.32,1.06,1.357,1.357,0,0,0,1.046.35,1.233,1.233,0,0,0,1.415-1.411,1.431,1.431,0,0,0-.345-1.051,1.467,1.467,0,0,0-1.069-.342,1.38,1.38,0,0,0-1.046.342A1.508,1.508,0,0,0,279.838,422.273Zm9.388-.5a3.435,3.435,0,0,1-.667,2.032,5.721,5.721,0,0,1-1.93,1.64h-1.381a6.3,6.3,0,0,0,1.837-1.733,3.443,3.443,0,0,0,.639-1.948,3.561,3.561,0,0,0-.626-1.97,6.133,6.133,0,0,0-1.868-1.758h1.4a5.8,5.8,0,0,1,1.933,1.687A3.538,3.538,0,0,1,289.226,421.771Z" transform="translate(-339.851 -236.626)" fill="#100f0c"/>
        </g>
      </g>
      <text id="Index_multi-espèces_1990_1_" data-name="Index multi-espèces (1990 = 1)" transform="translate(182.813 548.072) rotate(-90)" fill="#161615" font-size="10" font-family="OpenSans-Bold, Open Sans" font-weight="700" opacity="0.5"><tspan x="0" y="0" letter-spacing="-0.005em">In</tspan><tspan y="0" letter-spacing="-0.004em">de</tspan><tspan y="0" letter-spacing="-0.005em">x</tspan><tspan y="0" xml:space="preserve" letter-spacing="-0.004em"> m</tspan><tspan y="0" letter-spacing="-0.005em">ulti</tspan><tspan y="0" letter-spacing="-0.004em">-e</tspan><tspan y="0" letter-spacing="-0.005em">s</tspan><tspan y="0" letter-spacing="-0.004em">pè</tspan><tspan y="0" letter-spacing="-0.005em">c</tspan><tspan y="0" letter-spacing="-0.004em">e</tspan><tspan y="0" letter-spacing="-0.005em">s</tspan><tspan y="0" xml:space="preserve" letter-spacing="-0.004em"> (1990 = 1</tspan><tspan y="0">)</tspan></text>
      <g id="Group_154" data-name="Group 154" transform="translate(41.496 23.718)">
        <g id="Group_162" data-name="Group 162" transform="translate(186.691 325.449)">
          <g id="Group_161" data-name="Group 161" style="mix-blend-mode: multiply;isolation: isolate">
            <g id="Group_160" data-name="Group 160">
              <g id="Group_159" data-name="Group 159" clip-path="url(#clip-path-3)">
                <g id="Group_158" data-name="Group 158" transform="translate(0 0)">
                  <g id="Group_157" data-name="Group 157" clip-path="url(#clip-path-3)">
                    <g id="Group_156" data-name="Group 156" transform="translate(0 0)">
                      <g id="Group_155" data-name="Group 155">
                        <g id="Group_154-2" data-name="Group 154" clip-path="url(#clip-path-3)">
                          <path id="Path_283" data-name="Path 283" d="M839.84,341.051l-24.194,9.878-24.2,9.508-24.178,4.6-24.2,2.258-24.194,2.247-24.2,2.237-24.176,2.2h-24.2l-24.194,2.176H597.923l-24.176,2.178H525.355l-24.178,4.246-24.2,2.088L452.787,388.8l-24.2,4.045-24.176,3.965-24.194,5.8-24.2,3.775-24.194,5.523L307.652,415.5l-24.2,5.254-24.2,3.416-24.194,3.346-24.181,3.275H186.691v21.2l24.194-4.3,24.181-4.424,24.194-4.564,24.2-3.126,24.2-3.187,24.176-3.235,24.194-1.648,24.2-5.055,24.194-3.445,24.176-1.748,24.2-3.555,24.194-3.627,24.2-1.836,24.178-1.859,24.2-1.867h72.566l24.194-1.908h24.2l24.176-1.908,24.2-1.936,24.194-3.936,24.2-1.988,24.178-2.008,24.2-2.037H839.84l24.194,2.037V325.45Z" transform="translate(-186.691 -325.449)" fill="#d7caa1"/>
                        </g>
                      </g>
                    </g>
                  </g>
                </g>
              </g>
            </g>
          </g>
        </g>
        <path id="Path_284" data-name="Path 284" d="M186.691,442.3l24.194-3.316,24.181-3.426,24.194-3.486,24.2-3.655,24.2-3.8,24.176-3.845,24.194-3.826,24.2-3.935,24.194-4.045,24.178-3.875,24.194-3.377L476.98,398.5l24.2-3.187,24.176-2.527,24.2-1.267,24.2-.27,24.176-.071,24.194-.608,24.2-.929,24.2-.96,24.176-1.587,24.2-2.257,24.194-2.617,24.2-3.077,24.178-3.675,24.2-4.385,24.2-5,24.194-5.592" transform="translate(0)" fill="none" stroke="#7a7707" stroke-linejoin="round" stroke-width="0.98"/>
      </g>
    </g>
    <text id="_2000" data-name="2000" transform="translate(548 2847)" font-size="10" font-family="OpenSans, Open Sans" opacity="0.3"><tspan x="-11.436" y="0">2000</tspan></text>
    <text id="_2010" data-name="2010" transform="translate(788 2847)" font-size="10" font-family="OpenSans, Open Sans" opacity="0.3"><tspan x="-11.436" y="0">2010</tspan></text>
    <text id="_2018" data-name="2018" transform="translate(978 2847)" font-size="10" font-family="OpenSans, Open Sans" opacity="0.3"><tspan x="-11.436" y="0">2018</tspan></text>
    <text id="A" transform="translate(650 2699)" font-size="107" font-family="WWF"><tspan x="-21.721" y="0">A</tspan></text>
  </g>
</svg>
