<svg xmlns="http://www.w3.org/2000/svg" width="71.026" height="66.03" viewBox="0 0 71.026 66.03">
  <g id="logo_Natagora" data-name="logo Natagora" transform="translate(0 0)">
    <g id="logo" transform="translate(0 0)">
      <g id="nom" transform="translate(0 49.205)">
        <path id="Path_126" data-name="Path 126" d="M28.507,152.006v-7c0-.808-.382-1.65-1.85-1.65a3.988,3.988,0,0,0-1.6.276v8.375H22.726v-9.347a9.8,9.8,0,0,1,4.026-.714c3.071,0,4.082,1.429,4.082,3.023v7.038Z" transform="translate(-22.726 -139.324)" fill="#2b1d1a"/>
        <path id="Path_127" data-name="Path 127" d="M51.687,146.6c-2.2.256-3.55.716-3.55,2.51,0,1.283.8,1.833,2.156,1.833a3.369,3.369,0,0,0,1.393-.276Zm-1.546,5.589c-2.8,0-4.2-1.1-4.2-3.006,0-2.6,2.614-3.353,5.743-3.647v-.53c0-1.283-.84-1.631-2.042-1.631a6.379,6.379,0,0,0-2.575.6l-.534-1.281a8.42,8.42,0,0,1,3.529-.752c2.118,0,3.8.862,3.8,3.409v6.121a8.5,8.5,0,0,1-3.721.713" transform="translate(-35.852 -139.324)" fill="#2b1d1a"/>
        <path id="Path_128" data-name="Path 128" d="M72.25,148.708a2.546,2.546,0,0,1-2.825-2.676v-5.883H68.281v-1.429h1.145v-2.182l2.327-.622v2.8h1.68v1.429h-1.68v5.774c0,.769.326,1.282,1.127,1.282a1.831,1.831,0,0,0,.553-.092V148.5a3.106,3.106,0,0,1-1.181.2" transform="translate(-48.479 -135.915)" fill="#2b1d1a"/>
        <path id="Path_129" data-name="Path 129" d="M89.21,146.6c-2.194.256-3.55.716-3.55,2.51,0,1.283.8,1.833,2.156,1.833a3.379,3.379,0,0,0,1.393-.276Zm-1.546,5.589c-2.806,0-4.2-1.1-4.2-3.006,0-2.6,2.615-3.353,5.745-3.647v-.53c0-1.283-.841-1.631-2.041-1.631a6.38,6.38,0,0,0-2.576.6l-.536-1.281a8.438,8.438,0,0,1,3.531-.752c2.117,0,3.8.862,3.8,3.409v6.121a8.5,8.5,0,0,1-3.721.713" transform="translate(-57.063 -139.324)" fill="#2b1d1a"/>
        <path id="Path_130" data-name="Path 130" d="M112.578,143.483a2.56,2.56,0,0,0-1.2-.22c-1.812,0-2.555,1.43-2.555,3.9,0,2.4.724,3.628,2.441,3.628a2.722,2.722,0,0,0,1.317-.31Zm-1.966,12.665a7.666,7.666,0,0,1-3.51-.7l.648-1.467a5.569,5.569,0,0,0,2.461.585c1.717,0,2.366-.9,2.366-2.217v-.623a4.135,4.135,0,0,1-1.927.368c-2.461,0-4.142-1.833-4.142-4.821,0-3.207,1.661-5.333,4.98-5.333a6.69,6.69,0,0,1,3.339.715v9.494c0,2.639-1.658,3.995-4.216,3.995" transform="translate(-70.09 -139.323)" fill="#2b1d1a"/>
        <path id="Path_131" data-name="Path 131" d="M134.75,143.355c-1.641,0-1.966,1.815-1.966,3.7,0,1.869.363,3.609,1.966,3.609,1.66,0,1.967-1.74,1.967-3.609,0-1.888-.306-3.7-1.967-3.7m0,8.834c-2.879,0-4.273-2.2-4.273-5.113,0-2.951,1.394-5.131,4.273-5.131,2.9,0,4.275,2.18,4.275,5.131,0,2.914-1.395,5.113-4.275,5.113" transform="translate(-83.64 -139.324)" fill="#2b1d1a"/>
        <path id="Path_132" data-name="Path 132" d="M159.47,143.6a2.909,2.909,0,0,0-2.175.074v8.338h-2.327v-9.347a10.46,10.46,0,0,1,4.961-.7Z" transform="translate(-97.485 -139.332)" fill="#2b1d1a"/>
        <path id="Path_133" data-name="Path 133" d="M173.658,146.6c-2.194.256-3.547.716-3.547,2.51,0,1.283.8,1.833,2.155,1.833a3.369,3.369,0,0,0,1.393-.276Zm-1.545,5.589c-2.8,0-4.2-1.1-4.2-3.006,0-2.6,2.613-3.353,5.741-3.647v-.53c0-1.283-.838-1.631-2.042-1.631a6.378,6.378,0,0,0-2.575.6l-.535-1.281a8.43,8.43,0,0,1,3.53-.752c2.119,0,3.8.862,3.8,3.409v6.121a8.487,8.487,0,0,1-3.719.713" transform="translate(-104.806 -139.324)" fill="#2b1d1a"/>
      </g>
      <g id="main" transform="translate(6.99)">
        <path id="Path_134" data-name="Path 134" d="M147.453,86.532a1.871,1.871,0,0,0-1.873,1.85,2.279,2.279,0,0,0,2.167,2.016,2.073,2.073,0,0,0,1.741-2.2A1.869,1.869,0,0,0,147.453,86.532Z" transform="translate(-99.167 -58.791)" fill="none"/>
        <path id="Path_135" data-name="Path 135" d="M109.393,55.685c-2.04-1.4-11.893-.07-11.893-.07-6.634,1.329-.238-7.633-.238-7.633,6.481-10.11,3.251-12.364.91-12.832-4,16.169-16.812,28.9-33.133,32A14.712,14.712,0,0,0,77.9,70.234s25.9-5.606,30.773-9.419C112.731,57.64,109.393,55.685,109.393,55.685Zm-7.177,5.667a2.279,2.279,0,0,1-2.167-2.016,1.967,1.967,0,0,1,3.908-.18A2.073,2.073,0,0,1,102.216,61.352Z" transform="translate(-53.636 -29.745)" fill="#c2bc00"/>
        <path id="Path_136" data-name="Path 136" d="M83.342,28.12a6.051,6.051,0,0,0-1.7-.091c-4.186.471-7.027,6.748-7.027,6.748-7.032,18.486-5.789,1.471-5.789,1.471.273-1.955.431-7.345.431-7.345.584-8.289-3.664-5.854-3.664-5.854-4.448,2.122-3.96,11.1-3.96,11.1.624,23.437-3.845,2.7-3.946,2.015s-1.316-8.489-1.316-8.489c-.686-3.483-5.107-2.129-5.107-2.129-5.747,1.379-1.821,11.513-1.821,11.513,6.379,19.09-3.551,1.279-3.551,1.279-1.048-1.8-2.8-4.687-5.351-3.985s-1.527,4.9-1.527,4.9.616,4.166,5.96,14.236a21.329,21.329,0,0,0,5.24,6.629C66.531,57.018,79.347,44.29,83.342,28.12Z" transform="translate(-38.806 -22.715)" fill="#9ba509"/>
      </g>
    </g>
  </g>
</svg>
