<svg xmlns="http://www.w3.org/2000/svg" width="155.872" height="48.777" viewBox="0 0 155.872 48.777">
  <g id="Group_86" data-name="Group 86" transform="translate(0 0)">
    <path id="Path_88" data-name="Path 88" d="M336.741,300.879c-1.771-.276-2.823-.525-2.823-1.273,0-.526.692-1.135,2.38-1.135,1.356,0,2.158.526,2.38,1.19h3.791c-.47-2.684-2.906-4.455-6.171-4.455-4.123,0-6.088,2.324-6.088,4.566,0,3.182,3.4,3.874,5.95,4.262,2.49.387,2.988.719,2.988,1.522,0,.83-1.107,1.273-2.574,1.273a3.227,3.227,0,0,1-3.044-1.66h-3.708c.443,3.072,3.127,4.981,6.752,4.981,3.653,0,6.254-1.993,6.254-4.815C342.829,302.236,340.283,301.461,336.741,300.879Z" transform="translate(-288.366 -261.377)" fill="#1a1818"/>
    <path id="Path_89" data-name="Path 89" d="M291.422,296.251a1.822,1.822,0,0,1,1.742,1.7v6.63a2.646,2.646,0,0,1-2.767,2.712,2.492,2.492,0,0,1-2.684-2.712v-6.615a1.822,1.822,0,0,1,1.744-1.716l-5.4,0v8.219c0,3.735,2.352,6.365,6.337,6.365a6.131,6.131,0,0,0,6.42-6.365v-8.219Z" transform="translate(-258.431 -262.059)" fill="#1a1818"/>
    <path id="Path_90" data-name="Path 90" d="M225.467,295.216a5.931,5.931,0,0,0-4.538,2.02,5.722,5.722,0,0,0-4.538-2.02,6.116,6.116,0,0,0-6.42,6.365v8.246h5.4a1.822,1.822,0,0,1-1.744-1.728v-6.6a2.615,2.615,0,0,1,2.767-2.712,2.468,2.468,0,0,1,2.657,2.712v6.585a1.823,1.823,0,0,1-1.747,1.744h7.142a1.822,1.822,0,0,1-1.742-1.7V301.5a2.63,2.63,0,0,1,2.767-2.712,2.492,2.492,0,0,1,2.685,2.712v6.6a1.823,1.823,0,0,1-1.746,1.731h5.4v-8.246C231.8,297.845,229.452,295.216,225.467,295.216Z" transform="translate(-209.971 -261.383)"/>
    <path id="Path_91" data-name="Path 91" d="M489.311,295.193a5.931,5.931,0,0,0-4.538,2.02,5.722,5.722,0,0,0-4.538-2.02,6.116,6.116,0,0,0-6.42,6.365V309.8h5.4a1.823,1.823,0,0,1-1.744-1.728v-6.6a2.615,2.615,0,0,1,2.767-2.712,2.467,2.467,0,0,1,2.657,2.712v6.586a1.824,1.824,0,0,1-1.747,1.744h7.142a1.822,1.822,0,0,1-1.742-1.7v-6.626a2.63,2.63,0,0,1,2.767-2.712A2.491,2.491,0,0,1,492,301.475v6.6a1.824,1.824,0,0,1-1.746,1.732h5.4v-8.246C495.648,297.822,493.3,295.193,489.311,295.193Z" transform="translate(-382.549 -261.368)" fill="#1a1818"/>
    <path id="Path_92" data-name="Path 92" d="M433.33,296.24a1.822,1.822,0,0,1,1.741,1.7v6.63a2.646,2.646,0,0,1-2.767,2.712,2.492,2.492,0,0,1-2.684-2.712v-6.615a1.823,1.823,0,0,1,1.745-1.716l-5.4,0v8.219c0,3.736,2.353,6.365,6.337,6.365a6.132,6.132,0,0,0,6.42-6.365v-8.219Z" transform="translate(-351.253 -262.052)" fill="#1a1818"/>
    <path id="Path_93" data-name="Path 93" d="M381.975,295.218a7.474,7.474,0,0,0-.049,14.942v-3.209a3.627,3.627,0,0,1-3.549-2.822h10.765C389.667,298.483,386.181,295.218,381.975,295.218Zm-3.542,5.922a3.647,3.647,0,0,1,3.514-2.712,3.571,3.571,0,0,1,3.569,2.712Z" transform="translate(-317.699 -261.384)" fill="#937600"/>
    <path id="Path_94" data-name="Path 94" d="M554.66,197.419l-23.341-.012a2.033,2.033,0,0,1,1.959,1.731c0,5.089.007,19.654.007,19.656a21.375,21.375,0,1,0,21.376-21.375Z" transform="translate(-420.163 -197.406)" fill="#937600"/>
    <path id="Path_95" data-name="Path 95" d="M569.307,214.13a12.74,12.74,0,0,0-1.3-.786c-.17-.065-.194-.387-.551-.447a6.119,6.119,0,0,1-1.255-.2c-.99-.23-1.529.58-1.809,1.245-.2.47-.951,2.073-1.067,2.519-.218.836-.771.649-.852.514a14.524,14.524,0,0,0-4.39-4.384c-3.863-2.444-6.331-1.239-8.942-1.165-4.124.116-4.828.242-7.407-.605a11,11,0,0,1-6.709-6.33c-1.418-2.691-1.131-5.586-2.4-6.581a2.123,2.123,0,0,0-1.309-.5,1.731,1.731,0,0,1,1.136.8c1.3,2.269-.3,8.477,4.678,14.562,2.462,3.008,6.89,4.579,7.621,4.992,1.006.569,1.019.639,1.328,1.152a5.827,5.827,0,0,1,.86,1.67c.406,1.581-1.754,4.091-1.838,4.252a1.692,1.692,0,0,0-.2,1.028,7.176,7.176,0,0,1-.344,2.082,3.152,3.152,0,0,0-.331,1.489c.012.569.516.693.92.656a6.944,6.944,0,0,1,1.206.029,4.685,4.685,0,0,0,1.336-.094c.283-.053.486.188.694.142.121-.027.349-.78-.472-1-.394-.107-.256.02-.691-.567s0-1.795.233-2.4a2.524,2.524,0,0,1,1.513-1.176c1.306-.549,1.547-2.57,2.614-2.535.64.02.724.3,1.518.28,1.054-1.3.99-2.321-.651-2.553-2.488-.351-2.8-1.962-5.572-3.856a35.746,35.746,0,0,0-5.974-3.134,30.178,30.178,0,0,1,6.552,2.953c2.669,1.731,2.816,2.889,5.663,3.184,4.05.421.679,4.443.367,4.885s-.027.956.536,1.684c.62.8,1.091,1.127,1.331,1.572.424.783-.257.682-.44,1.332a2.248,2.248,0,0,0-.154,1.236c.111.346.279.031.529-.074.279-.118.322.1.391.4.061.265.1.528.237.55.17.027.583-.528.66-.793.064-.223.277-.311.42-.151.1.117.18.456.283.476.185.036.354-.34.383-.489a2.977,2.977,0,0,0-.282-1.867c-.251-.641-.172-1.442-.621-2.07a1.579,1.579,0,0,1,.493-2.386,3.288,3.288,0,0,0,1.61-1.877,4.074,4.074,0,0,0,.307-2.32,6.421,6.421,0,0,0-1.416-2.711,5.923,5.923,0,0,1,1.867,2.755,3.923,3.923,0,0,1-.062,2.1,3.461,3.461,0,0,1-1.2,2.044,6.137,6.137,0,0,0,1.149.4,3.915,3.915,0,0,1,1.836-2.181l-.992,1.53a1.607,1.607,0,0,0-.167.523c-.095.453-.266,2.432-.3,2.69-.063.442-.18.5-.251.577a2.855,2.855,0,0,0-.631.64c-.288.414-.294.8-.2.844.131.065.537-.6.76-.261.165.25-.145,1.23.465,1.422a2.4,2.4,0,0,0,.734-.009c.417.024.466.057.534.015.107-.089.052-.534-.206-.663-.1-.051-.088-.269,0-.545a2.58,2.58,0,0,0,.2-1.027c-.04-.426-.235-.351-.056-1.014a4.292,4.292,0,0,1,1.036-2.176c.024-.031.049-.069.074-.109,0,0,.094-.048.1.222.007.2.1.269.265.465.229.278.073.694.133.89.033.107.285.266.573.039s.269-.291.527-.343c.3-.06.178-.77-.061-1.3-.092-.2-.151-.469.072-.608.351-.219.7-.091.714-.234.013-.168-.364-.409-1.253-.461-.1-.006-.179-.128-.24-.228a7.769,7.769,0,0,0,.908-1.213,6.679,6.679,0,0,1,.353-.932,12.472,12.472,0,0,0,1.352-2.035c.288-.861.241-1.923.429-2.631.024-.1.218-.084.42-.113a1.323,1.323,0,0,0,.7-.2,1.3,1.3,0,0,1,.786-.186c.349-.036.877.066,1.105-.053s.085-.19.176-.342C569.665,214.622,569.619,214.36,569.307,214.13Zm-1.888-.138c-.233.028-.437-.074-.455-.23s.157-.3.39-.331.438.075.455.23S567.652,213.965,567.419,213.992Z" transform="translate(-420.163 -197.405)" fill="#fff"/>
  </g>
</svg>
