<svg xmlns="http://www.w3.org/2000/svg" width="72.393" height="62.209" viewBox="0 0 72.393 62.209">
  <g id="Group_85" data-name="Group 85" transform="translate(0 0)">
    <path id="Path_65" data-name="Path 65" d="M123.551,36.055s2.368-4.524,1.873-6.309c-.041-.978-1.052-1.151-1.185-.583S123.551,36.055,123.551,36.055Z" transform="translate(-96.179 -26.682)" fill="#fff"/>
    <path id="Path_66" data-name="Path 66" d="M98.7,171.635s-1.819.279-1.843-.592.46-1.275.814-1.11-.025.55.362.929A6.413,6.413,0,0,1,98.7,171.635Z" transform="translate(-75.853 -134.085)" fill="#fff"/>
    <path id="Path_67" data-name="Path 67" d="M113.3,149.243a2.107,2.107,0,0,1,2.074.666c.7.986.115-2.1-.848-1.95S113.3,149.243,113.3,149.243Z" transform="translate(-88.373 -117.377)" fill="#fff"/>
    <g id="Group_83" data-name="Group 83" transform="translate(0 50.436)">
      <g id="Group_82" data-name="Group 82" transform="translate(0)">
        <path id="Path_68" data-name="Path 68" d="M8.827,233.023a8.886,8.886,0,0,1,1.924-.189,3.211,3.211,0,0,1,2.227.619,1.825,1.825,0,0,1,.69,1.5,2.006,2.006,0,0,1-1.38,1.872v.038a2.145,2.145,0,0,1,1.683,2.125,2.31,2.31,0,0,1-.7,1.707,3.922,3.922,0,0,1-2.808.8,11.924,11.924,0,0,1-1.634-.1Zm1.053,3.49h.956c1.1,0,1.755-.62,1.755-1.442,0-.986-.714-1.391-1.779-1.391a4.344,4.344,0,0,0-.932.076Zm0,4.072a5.507,5.507,0,0,0,.884.051c1.089,0,2.094-.418,2.094-1.657,0-1.151-.956-1.644-2.106-1.644H9.88Z" transform="translate(-8.827 -232.442)" fill="#fc9213"/>
        <path id="Path_69" data-name="Path 69" d="M36.227,233.89a.716.716,0,0,1,.024-1.429.67.67,0,0,1,.678.708.683.683,0,0,1-.69.721Zm-.508,7.246v-6.12h1.065v6.12Z" transform="translate(-29.183 -232.158)" fill="#fc9213"/>
        <path id="Path_70" data-name="Path 70" d="M49.125,248.983a2.863,2.863,0,0,1-2.808-3.149,2.94,2.94,0,0,1,2.905-3.25,2.842,2.842,0,0,1,2.82,3.136,2.94,2.94,0,0,1-2.905,3.262Zm.036-.835c1.017,0,1.78-1,1.78-2.39,0-1.037-.5-2.339-1.755-2.339s-1.792,1.213-1.792,2.377c0,1.341.726,2.352,1.755,2.352Z" transform="translate(-37.372 -239.865)" fill="#fc9213"/>
        <path id="Path_71" data-name="Path 71" d="M79.7,231.189v7.4c0,.544.012,1.164.048,1.581h-.956l-.048-1.062h-.024a2.138,2.138,0,0,1-1.985,1.2c-1.416,0-2.518-1.252-2.518-3.111-.012-2.048,1.21-3.288,2.626-3.288a1.928,1.928,0,0,1,1.767.924h.024v-3.642Zm-1.065,5.349a2.143,2.143,0,0,0-.048-.48,1.586,1.586,0,0,0-1.537-1.277c-1.1,0-1.755,1.012-1.755,2.352,0,1.252.593,2.276,1.731,2.276a1.631,1.631,0,0,0,1.561-1.328,2.009,2.009,0,0,0,.048-.481Z" transform="translate(-58.618 -231.189)" fill="#fc9213"/>
        <path id="Path_72" data-name="Path 72" d="M104.614,233.89a.716.716,0,0,1,.024-1.429.67.67,0,0,1,.678.708.683.683,0,0,1-.69.721Zm-.508,7.246v-6.12h1.065v6.12Z" transform="translate(-81.253 -232.158)" fill="#fc9213"/>
        <path id="Path_73" data-name="Path 73" d="M114.573,243.168l1.15,3.427c.193.569.351,1.074.472,1.58h.036c.133-.506.3-1.011.5-1.58l1.138-3.427h1.114l-2.3,6.12h-1.017l-2.227-6.12Z" transform="translate(-88.477 -240.31)" fill="#fc9213"/>
        <path id="Path_74" data-name="Path 74" d="M139.577,245.935a1.909,1.909,0,0,0,2,2.124,3.9,3.9,0,0,0,1.622-.3l.193.783a4.6,4.6,0,0,1-1.961.392,2.8,2.8,0,0,1-2.881-3.086c0-1.859,1.053-3.313,2.76-3.313,1.913,0,2.409,1.758,2.409,2.883a2.986,2.986,0,0,1-.036.532Zm3.111-.8c.012-.7-.278-1.808-1.464-1.808-1.09,0-1.55,1.037-1.634,1.808Z" transform="translate(-107.598 -239.826)" fill="#fc9213"/>
        <path id="Path_75" data-name="Path 75" d="M165.637,244.633c0-.721-.012-1.34-.048-1.909h.932l.048,1.2h.036a1.788,1.788,0,0,1,1.634-1.341,1.088,1.088,0,0,1,.291.038v1.037a3.3,3.3,0,0,0-.375-.025,1.522,1.522,0,0,0-1.428,1.416,3.635,3.635,0,0,0-.036.531v3.262h-1.065Z" transform="translate(-128.188 -239.865)" fill="#fc9213"/>
        <path id="Path_76" data-name="Path 76" d="M180.911,247.718a2.916,2.916,0,0,0,1.416.43c.763,0,1.126-.392,1.126-.91s-.3-.822-1.077-1.126c-1.066-.4-1.561-1-1.561-1.732a1.844,1.844,0,0,1,2.021-1.8,2.627,2.627,0,0,1,1.429.38l-.255.8a2.317,2.317,0,0,0-1.2-.355.857.857,0,0,0-.968.835c0,.518.339.746,1.1,1.049,1,.392,1.537.924,1.537,1.847,0,1.088-.811,1.846-2.179,1.846a3.226,3.226,0,0,1-1.646-.43Z" transform="translate(-139.66 -239.865)" fill="#fc9213"/>
        <path id="Path_77" data-name="Path 77" d="M202.427,233.89a.716.716,0,0,1,.024-1.429.67.67,0,0,1,.678.708.683.683,0,0,1-.69.721Zm-.508,7.246v-6.12h1.065v6.12Z" transform="translate(-155.729 -232.158)" fill="#fc9213"/>
        <path id="Path_78" data-name="Path 78" d="M213.449,237.021v1.467h1.525v.847h-1.525v3.3c0,.759.206,1.189.8,1.189a1.9,1.9,0,0,0,.617-.076l.048.847a2.794,2.794,0,0,1-.944.152,1.485,1.485,0,0,1-1.15-.468,2.466,2.466,0,0,1-.412-1.606v-3.338H211.5v-.847h.908v-1.125Z" transform="translate(-163.145 -235.63)" fill="#fc9213"/>
        <path id="Path_79" data-name="Path 79" d="M229.445,243.168l1.27,3.616c.146.4.291.885.388,1.252h.024c.109-.367.23-.834.375-1.276l1.162-3.592h1.125l-1.6,4.363c-.763,2.1-1.284,3.174-2.01,3.844a2.977,2.977,0,0,1-1.307.708l-.266-.936a2.409,2.409,0,0,0,.932-.544,3.506,3.506,0,0,0,.9-1.239.745.745,0,0,0,.084-.265.692.692,0,0,0-.084-.279l-2.155-5.652Z" transform="translate(-175.923 -240.31)" fill="#fc9213"/>
        <path id="Path_80" data-name="Path 80" d="M252.585,264.319a.73.73,0,0,1-.7-.8.741.741,0,0,1,.727-.8.724.724,0,0,1,.714.8.733.733,0,0,1-.726.8Z" transform="translate(-193.893 -255.201)" fill="#fc9213"/>
        <path id="Path_81" data-name="Path 81" d="M263.3,231.189h1.065v3.831h.025a2.153,2.153,0,0,1,2-1.113c1.453,0,2.469,1.265,2.469,3.111,0,2.2-1.331,3.287-2.639,3.287a2.083,2.083,0,0,1-1.961-1.15h-.024l-.061,1.011h-.92c.036-.417.048-1.037.048-1.581Zm1.065,6.525a2.153,2.153,0,0,0,.037.4,1.668,1.668,0,0,0,1.6,1.3c1.126,0,1.779-.948,1.779-2.352,0-1.239-.605-2.289-1.743-2.289a1.706,1.706,0,0,0-1.61,1.366,1.817,1.817,0,0,0-.061.467Z" transform="translate(-202.546 -231.189)" fill="#fc9213"/>
        <path id="Path_82" data-name="Path 82" d="M291.618,245.935a1.909,1.909,0,0,0,2,2.124,3.9,3.9,0,0,0,1.622-.3l.194.783a4.6,4.6,0,0,1-1.961.392,2.8,2.8,0,0,1-2.881-3.086c0-1.859,1.053-3.313,2.76-3.313,1.913,0,2.409,1.758,2.409,2.883a3.055,3.055,0,0,1-.036.532Zm3.111-.8c.012-.7-.278-1.808-1.465-1.808-1.089,0-1.549,1.037-1.634,1.808Z" transform="translate(-223.364 -239.826)" fill="#fc9213"/>
      </g>
    </g>
    <g id="Group_84" data-name="Group 84" transform="translate(8.088 0)">
      <path id="Path_83" data-name="Path 83" d="M225.674,102.414l5.865.012c.512-1.21-1.042-3.024-3.071-3.024C226.556,99.4,225.792,101.2,225.674,102.414Z" transform="translate(-182.025 -80.409)" fill="#303f4e"/>
      <path id="Path_84" data-name="Path 84" d="M225.8,125.286c.147,1.947,1.97,2.86,4.058,2.86a11.482,11.482,0,0,0,3.97-.639l.425,2.263a21.943,21.943,0,0,0,.7-4.454Z" transform="translate(-182.119 -100.117)" fill="#303f4e"/>
      <path id="Path_85" data-name="Path 85" d="M52.556,58.557l-.676-4.385s3.355-.956,4.45-.248a13.459,13.459,0,0,1-.7-2.41,10.359,10.359,0,0,1,1.791-5.422l.008-.658-.946.255A18.671,18.671,0,0,0,59.8,38.063c.679-3.979-1.069-9.658-.474-11.061q-1.173.427-2.288.951c.156,1.708.317,14.361-1.629,17.137,0,0,.969-7.923.491-11.024a10.271,10.271,0,0,0-1.511-4.687,26.388,26.388,0,0,0-2.762,1.949,21.2,21.2,0,0,1,1.954,4.737c-.4.662-2.356-2.274-3.677-3.218q-.876.846-1.66,1.766c1.531,2.106,6.191,12.043,5.233,17.123a28.292,28.292,0,0,0-3.688-9.722c-1.831-3.076-3.067-4.1-3.7-4.438a22.789,22.789,0,0,0-2.131,4.469,21.034,21.034,0,0,0,1.74,3.229c.823,1.076,5.324,6.842,5.151,7.854-.136.792-5.7-2.744-8.11-4.318,0,.16-.007.32-.007.481a22.025,22.025,0,0,0,.289,3.556A31.686,31.686,0,0,0,50.473,55.7c.7.153-3.888.316-6.944-.519A22.331,22.331,0,0,0,44.742,58.5c.1-.259.183-.516.246-.747l.477,1.677s2.641-2.049,3.956-2.033A7.872,7.872,0,0,1,52.556,58.557Z" transform="translate(-42.726 -25.283)" fill="#303f4e"/>
      <path id="Path_86" data-name="Path 86" d="M172.835,103.058a3.963,3.963,0,0,0-.089.852v2.19a3.5,3.5,0,0,0,.089.822,2.76,2.76,0,0,0,2.617,2.19c1.911,0,3.619-1.475,3.619-4.152,0-2.312-1.531-4.183-3.619-4.183A2.8,2.8,0,0,0,172.835,103.058Z" transform="translate(-141.726 -81.455)" fill="#303f4e"/>
      <path id="Path_87" data-name="Path 87" d="M97.9,47.671A6.229,6.229,0,0,1,92.385,51.1a4.7,4.7,0,0,1-4.323-2.4H88l-.177,2.069H84.033c.059-.973.118-2.768.118-4.442V29.169h4.47v8.487h.059a5.007,5.007,0,0,1,4.352-2.1A5.547,5.547,0,0,1,98.2,39.129a6.729,6.729,0,0,1,6.077-3.412,5.807,5.807,0,0,1,5.783,3.872C107.867,28.34,97.048,19.8,84.034,19.8a29.119,29.119,0,0,0-5.587.539A1.93,1.93,0,0,1,80.4,22.169c.371,3.118-2.47,11.892-5.105,15.894a1.591,1.591,0,0,1,.642,1.325,13.309,13.309,0,0,0-.6,2.5,20.323,20.323,0,0,0,.231,2.921s-.37,2.574.272,2.476.674.115,1.456,3.059a3.772,3.772,0,0,0,.527,2c.527.575,5.381,5.083,6.023,4.983a7.594,7.594,0,0,1,2.13.329l.264.287-1.769.6-.288.263S78.4,53.9,77.861,53.979s-4.278.661-5.011-.541c0,0-.322-1.373.412-1.6a5.185,5.185,0,0,0-1.472-.32c-.658-.008-1.456-.213-1.481.337s.5,2.55.93,2.485.954-.914,1.652.073.446,2.888.528,3.422,5.315,6.078,5.842,6.653.454,2.231.454,2.231l-.131.567L78.8,65.769s-.585-1.661-3.309-4.416-4.105-3.2-7.7-3.083a4.871,4.871,0,0,1-.321-1.374c.057-.338-1,.593-1.646.691s-1.719-.5-2.7-.46a1.868,1.868,0,0,0-.868.293A27.239,27.239,0,0,0,84.034,67.815c12.038,0,22.2-7.31,25.389-17.31a13.733,13.733,0,0,1-4.733.757C101.417,51.262,99.085,49.948,97.9,47.671ZM81.236,50.228A1.862,1.862,0,1,1,83.1,48.366,1.861,1.861,0,0,1,81.236,50.228Z" transform="translate(-57.599 -19.796)" fill="#303f4e"/>
    </g>
  </g>
</svg>
