<svg xmlns="http://www.w3.org/2000/svg" width="55.886" height="67.7"><g data-name="Group 227"><path data-name="Path 301" d="M54.895 42.83H31.664a.973.973 0 00-1 1 .973.973 0 001 1h1.35l2.709 21.59a1.066 1.066 0 001 .927h13.108a1 1 0 001-.927l2.705-21.59h1.353a.973.973 0 001-1 .964.964 0 00-.991-1zM41.853 59.649l-.142-3.563h3.135l-.142 3.563zm2.778 2.068l-.142 3.563h-2.425l-.142-3.563zm-8.835-11.26h3.636l.142 3.563h-3.35zm.713 5.629h3.135l.142 3.563h-2.852zm10.406 0h3.135l-.429 3.563H46.77zm.07-2.066l.142-3.563h3.637l-.429 3.563zm-2.066 0H41.57l-.142-3.563h3.636zm-3.494-5.559l-.142-3.563h4.062l-.142 3.563zm-2.208-3.563l.142 3.563h-3.777l-.429-3.563zm-2 16.82h2.709l.142 3.563H37.72zm9.337 3.563l.142-3.563h2.709l-.429 3.563zm4.488-16.82h-3.778l.142-3.563h4.064z"/><path data-name="Path 302" d="M44.704 37.913l.429 1.64a1.186 1.186 0 001.5.855l1.64-.429a1.186 1.186 0 00.855-1.5l-.429-1.64a1.186 1.186 0 00-1.5-.855l-1.64.429a1.35 1.35 0 00-.855 1.5z"/><path data-name="Path 303" d="M41.141 36.56l-1.64-.571a1.249 1.249 0 00-1.567.785l-.571 1.64a1.249 1.249 0 00.785 1.567l1.64.571a1.249 1.249 0 001.567-.785l.571-1.64a1.224 1.224 0 00-.785-1.567z"/><path data-name="Path 304" d="M41.926 34.564a1.259 1.259 0 001.64.571l1.5-.785a1.259 1.259 0 00.571-1.64l-.785-1.5a1.259 1.259 0 00-1.64-.571l-1.5.785a1.259 1.259 0 00-.571 1.64z"/><path data-name="Path 305" d="M24.037 7.483a7.481 7.481 0 01-7.483 7.483 7.481 7.481 0 01-7.483-7.483A7.481 7.481 0 0116.554 0a7.481 7.481 0 017.483 7.483" fill="#99a891"/><path data-name="Path 306" d="M23.753 26.226l2 2.494a6.424 6.424 0 004.989 2.352h6.342a3.318 3.318 0 003.275-3.282 3.318 3.318 0 00-3.279-3.279h-6.273l-3.279-3.921a10.039 10.039 0 00-7.767-3.7h-6.842C4.938 16.89 1.087 30.929.091 35.205a3.271 3.271 0 002.422 3.92 2.628 2.628 0 00.713.072 3.263 3.263 0 003.202-2.568 49.418 49.418 0 012.923-8.479v7.767L6.719 63.496a3.838 3.838 0 003.421 4.2h.356a3.917 3.917 0 003.847-3.491l2.21-22.732 2.21 22.732a3.866 3.866 0 003.847 3.491h.356a3.792 3.792 0 003.421-4.2l-2.634-27.579z" fill="#99a891"/></g></svg>