<svg xmlns="http://www.w3.org/2000/svg" width="35.231" height="35.232"><path data-name="Exclusion 1" d="M17.616 34.732A17.116 17.116 0 015.513 5.513a17.116 17.116 0 0124.205 24.206 17 17 0 01-12.102 5.013zM20.5 16.817c1.221 0 1.893.864 1.893 2.432v5.526h3.783v-5.937a5.183 5.183 0 00-1.227-3.661A4.034 4.034 0 0021.94 14a3.4 3.4 0 00-3.331 1.778V14.1h-3.748c.049.872 0 10.277 0 10.677h3.748v-5.886a2.078 2.078 0 01.083-.766 1.915 1.915 0 011.808-1.308zM9.488 14.1v10.675h3.338V14.1zM11.1 9.058a1.859 1.859 0 10-.049 3.7h.025a1.859 1.859 0 10.024-3.7z" stroke="rgba(0,0,0,0)" stroke-miterlimit="10"/></svg>