<svg xmlns="http://www.w3.org/2000/svg" width="19.233" height="25.285"><g data-name="Group 153"><g data-name="Group 151"><path data-name="Path 276" d="M16.814 14.178c0 1.349-.562 2.444-1.254 2.444s-1.256-1.094-1.256-2.444a3.775 3.775 0 011.256-2.441 3.782 3.782 0 011.254 2.441z"/><path data-name="Path 277" d="M18.388 18.56c-.953.953-2.129 1.33-2.62.839s-.114-1.661.84-2.62a3.763 3.763 0 012.62-.84 3.788 3.788 0 01-.84 2.621z"/><path data-name="Path 278" d="M18.388 22.234c-.953.954-2.129 1.33-2.62.84s-.114-1.661.84-2.62a3.763 3.763 0 012.62-.84 3.783 3.783 0 01-.84 2.62z"/><path data-name="Path 279" d="M12.748 18.56c.953.953 2.129 1.33 2.62.839s.114-1.661-.84-2.62a3.763 3.763 0 00-2.62-.84 3.835 3.835 0 00.84 2.621z"/><path data-name="Path 280" d="M12.748 22.234c.953.954 2.129 1.33 2.62.84s.114-1.661-.84-2.62a3.763 3.763 0 00-2.62-.84 3.83 3.83 0 00.84 2.62z"/><path data-name="Path 281" d="M15.36 25.029h.4v-8.5h-.4z"/></g><g data-name="Group 152"><path data-name="Path 270" d="M8.9 18.714c-.053 0-.1-.075-.153-.068a2.059 2.059 0 00-2-1.81 2.044 2.044 0 00-.419.023 2.7 2.7 0 00-2.276-1.268 2.691 2.691 0 00-2.7 2.69c0 .092.005.179.014.269h-.014c-.744 0-1.348.939-1.348 1.684s.6 1.685 1.348 1.685H8.9c.744 0 1.348-.94 1.348-1.685a1.5 1.5 0 00-1.348-1.52z"/><path data-name="Path 271" d="M2.678 22.222a.4.4 0 00-.536.2l-.374.809a.4.4 0 00.2.537.4.4 0 00.17.037.406.406 0 00.367-.235l.374-.809a.406.406 0 00-.2-.537z"/><path data-name="Path 272" d="M8.07 22.222a.4.4 0 00-.536.2l-.374.809a.4.4 0 00.2.537.4.4 0 00.17.037.406.406 0 00.367-.235l.374-.809a.406.406 0 00-.2-.537z"/><path data-name="Path 273" d="M5.374 22.222a.4.4 0 00-.536.2l-.374.809a.4.4 0 00.2.537.4.4 0 00.17.037.406.406 0 00.367-.235l.374-.809a.406.406 0 00-.2-.537z"/><path data-name="Path 274" d="M3.911 22.622a.4.4 0 00-.531.213l-.809 1.887a.4.4 0 00.213.531.405.405 0 00.159.033.4.4 0 00.372-.245l.809-1.887a.4.4 0 00-.213-.531z"/><path data-name="Path 275" d="M6.607 22.622a.4.4 0 00-.531.213l-.809 1.887a.4.4 0 00.213.531.405.405 0 00.159.033.4.4 0 00.372-.245l.809-1.887a.4.4 0 00-.213-.531z"/></g><path data-name="Path 282" d="M8.872.528L7.191 4.586H8.56v.888h.576v-.888h1.369zm3.673 8.184v1.92h1.249v-1.92h2.977l-3.6-8.716-3.6 8.716zM5.631 2.565l-3.6 8.716h2.946v1.92h1.249v-1.92h2.978z"/></g></svg>