<svg xmlns="http://www.w3.org/2000/svg" width="98.895" height="77.434"><g data-name="Group 81"><g data-name="Group 79" fill="#94c11c"><path data-name="Path 60" d="M98.391 47.672l-.023-.059a.367.367 0 01-.012-.035c-6.879-18.68-23.103-28.629-29.762-32.043a11.344 11.344 0 00-3.7-1.066c0-.617.012-1.215.016-1.723l.082-6.895a5.772 5.772 0 00-1.672-4.132A5.733 5.733 0 0059.211.004H11.52C5.168.004 0 6.418 0 14.304v48.165c0 2.18 0 5.832 4.465 5.832h1.3a10.786 10.786 0 0010.629 9.133 10.788 10.788 0 0010.633-9.133h30.2a1.679 1.679 0 00.375-.074 10.783 10.783 0 0010.637 9.207 10.788 10.788 0 0010.633-9.133h13.492c4.574 0 6.523-1.391 6.523-4.664l.008-13a8.283 8.283 0 00-.5-2.965zm-7.922-8.253H73.164c-.547 0-1-.68-1-1.481V27.239c0-.828.438-1.48 1-1.48h4.957a57.205 57.205 0 0112.348 13.66zM67.074 18.508a65.774 65.774 0 016.579 3.918h-.484a4.545 4.545 0 00-4.34 4.813V37.93a4.548 4.548 0 004.34 4.813h19.358c.641 1.2 1.168 2.527 1.723 3.824l-27.641-.074c-.016 0-.027-.008-.043-.008h-1.7V21.066c0-.914 0-2.07.012-3.262a7.832 7.832 0 012.2.7zM11.519 3.336h47.688a2.422 2.422 0 011.742.73 2.447 2.447 0 01.704 1.753l-.082 6.895c-.023 2.3-.051 6.055-.051 8.352v25.423H3.332V14.301C3.332 8.258 7 3.336 11.516 3.336zm4.875 70.766a7.474 7.474 0 01-7.461-7.465 7.474 7.474 0 017.461-7.465 7.474 7.474 0 017.465 7.465 7.467 7.467 0 01-7.465 7.465zm51.855 0a7.474 7.474 0 01-7.461-7.465 7.419 7.419 0 015.289-7.141 7.584 7.584 0 012.176-.324 7.474 7.474 0 017.465 7.465 7.478 7.478 0 01-7.465 7.465zm27.312-10.461c0 .77 0 1.328-3.191 1.328H78.878a10.787 10.787 0 00-10.633-9.133 10.943 10.943 0 00-3.145.465 10.715 10.715 0 00-7.523 8.738 1.7 1.7 0 00-.34-.07H27.03a10.787 10.787 0 00-10.633-9.133 10.787 10.787 0 00-10.629 9.133H4.463c-1.047 0-1.129 0-1.129-2.5v-5.1h2.059a1.667 1.667 0 001.668-1.668 1.67 1.67 0 00-1.668-1.669H3.334v-4.211h59.855l32.258.086a5 5 0 01.125.73z"/><path data-name="Path 61" d="M19.726 66.637c0 4.438-6.656 4.438-6.656 0s6.656-4.441 6.656 0"/><path data-name="Path 62" d="M71.578 66.637c0 4.438-6.66 4.438-6.66 0s6.66-4.441 6.66 0"/></g><g data-name="Group 80" stroke="#000"><path data-name="Path 63" d="M32.732 9.92a11.105 11.105 0 017.52 2.962c8.2 7.976-2.962 19.826-7.52 27.118-4.558-7.292-15.724-19.142-7.52-27.118a10.684 10.684 0 017.52-2.962zm6.152 4.33a8.8 8.8 0 00-6.152-2.506 8.952 8.952 0 00-6.38 2.506c-6.38 6.38 2.506 16.408 6.38 22.332 3.874-5.924 12.761-15.952 6.152-22.332z"/><path data-name="Path 64" d="M32.732 15.162a4.866 4.866 0 015.014 4.786 4.914 4.914 0 01-5.014 5.014 4.914 4.914 0 01-5.014-5.014 4.866 4.866 0 015.014-4.786zm0 1.824a3.07 3.07 0 00-3.19 2.962 3.115 3.115 0 003.19 3.19 3.07 3.07 0 002.962-3.19 3.016 3.016 0 00-2.962-2.962z"/></g></g></svg>