<svg xmlns="http://www.w3.org/2000/svg" width="14.428" height="26.172"><g data-name="Group 150"><path data-name="Path 276" d="M9.663 4.806c0 2.656-1.106 4.811-2.47 4.811S4.719 7.463 4.719 4.806 7.193 0 7.193 0s2.47 2.154 2.47 4.806z"/><path data-name="Path 277" d="M12.765 13.435c-1.877 1.877-4.192 2.618-5.159 1.651s-.225-3.27 1.654-5.159 5.159-1.654 5.159-1.654.227 3.282-1.654 5.161z"/><path data-name="Path 278" d="M12.765 20.667c-1.877 1.879-4.192 2.618-5.159 1.654s-.225-3.27 1.654-5.159 5.158-1.654 5.158-1.654.227 3.283-1.653 5.159z"/><path data-name="Path 279" d="M1.661 13.435c1.877 1.877 4.192 2.618 5.159 1.651s.225-3.27-1.654-5.159S.007 8.273.007 8.273s-.21 3.282 1.654 5.161z"/><path data-name="Path 280" d="M1.661 20.667c1.877 1.879 4.192 2.618 5.159 1.654s.225-3.27-1.654-5.159S.007 15.508.007 15.508s-.21 3.283 1.654 5.159z"/><path data-name="Path 281" d="M6.803 26.172h.781V9.431h-.781z"/></g></svg>