<svg xmlns="http://www.w3.org/2000/svg" width="107.551" height="109.825"><g data-name="Group 77"><path data-name="Path 38" d="M107.549 106.871H89.794v-.763l.343.026c.358.026.706.042 1.043.042a8.628 8.628 0 006.856-2.917c3.841-4.438 2.746-12.332 2.7-12.664l-.244-1.661-1.614.452c-4.23 1.178-7.261 2.979-9.083 5.351V87.72a11.643 11.643 0 002.626.348c9.482 0 10.24-13.1 10.271-13.66l.083-1.676-1.671.13c-5.377.42-9.166 2.107-11.309 4.983l-.005-6.176a8.607 8.607 0 003.919-5.73c1.043-5.912-4.37-12.15-4.6-12.41l-1.111-1.261-1.111 1.261c-3.7 4.2-5.242 8.19-4.593 11.86a10.469 10.469 0 004.541 6.664v5.066c-2.216-2.434-5.813-3.867-10.723-4.251l-1.671-.13.083 1.676c.031.561.789 13.66 10.271 13.66a11.3 11.3 0 002.04-.223v6.207c-1.858-2.034-4.692-3.607-8.5-4.666l-1.614-.452-.234 1.65c-.047.337-1.142 8.226 2.7 12.664a8.628 8.628 0 006.85 2.917h.005c.254 0 .524-.016.8-.031v.726h-31v-.763l.343.026c.358.026.706.042 1.043.042a8.628 8.628 0 006.856-2.917c3.841-4.438 2.746-12.332 2.694-12.664l-.239-1.661-1.619.452c-4.23 1.178-7.261 2.979-9.083 5.351v-7.017a11.643 11.643 0 002.626.348c9.482 0 10.245-13.1 10.271-13.66l.083-1.676-1.671.13c-5.377.42-9.161 2.107-11.3 4.983l-.005-6.171a8.607 8.607 0 003.919-5.73c1.043-5.912-4.37-12.15-4.6-12.41l-1.106-1.261-1.111 1.261c-3.7 4.2-5.242 8.19-4.593 11.86a10.488 10.488 0 004.541 6.664v5.066c-2.225-2.437-5.822-3.874-10.73-4.253l-1.671-.13.083 1.676c.026.561.789 13.66 10.271 13.66a11.345 11.345 0 002.04-.223v6.207c-1.858-2.034-4.692-3.607-8.5-4.666l-1.619-.452-.244 1.661c-.047.337-1.142 8.226 2.7 12.664a8.635 8.635 0 006.857 2.918c.26 0 .529-.016.8-.031v.727h-31v-.763l.337.026c.363.026.711.042 1.043.042a8.628 8.628 0 006.856-2.917c3.841-4.438 2.746-12.332 2.7-12.664l-.239-1.661-1.614.452c-4.23 1.178-7.261 2.979-9.083 5.351v-7.018a11.643 11.643 0 002.626.348c9.482 0 10.24-13.1 10.271-13.66l.083-1.676-1.671.13c-5.377.42-9.166 2.107-11.3 4.983l.005-6.181a8.607 8.607 0 003.919-5.73c1.043-5.912-4.37-12.15-4.6-12.41l-1.106-1.261-1.114 1.259c-3.7 4.2-5.242 8.19-4.593 11.86a10.488 10.488 0 004.541 6.664v5.066c-2.221-2.434-5.818-3.867-10.723-4.251l-1.671-.13.083 1.676c.026.561.789 13.66 10.271 13.66a11.3 11.3 0 002.04-.223v6.207c-1.858-2.034-4.692-3.607-8.5-4.666l-1.619-.452-.239 1.661c-.047.337-1.142 8.226 2.7 12.664a8.635 8.635 0 006.854 2.918c.26 0 .529-.016.8-.031v.727L0 106.872v2.953h107.551zm-16.282-8.9c.945-2.216 3.187-3.96 6.675-5.2.083 2.278-.119 6.223-2.144 8.559a5.707 5.707 0 01-4.567 1.889 7.313 7.313 0 01.036-5.247zm.711-18.145c1.355-2 3.887-3.275 7.552-3.815-.488 3.067-2.092 9.109-7.116 9.109a7.881 7.881 0 01-1.479-.145 7.326 7.326 0 011.043-5.149zm-5.709 5.143a7.817 7.817 0 01-1.469.145c-5.008-.005-6.618-6.041-7.116-9.109 3.649.54 6.176 1.817 7.536 3.794a7.4 7.4 0 011.048 5.169zm-.3 18.253a5.726 5.726 0 01-4.557-1.894c-2.024-2.336-2.227-6.285-2.144-8.559 3.472 1.235 5.714 2.969 6.664 5.175a7.379 7.379 0 01.036 5.278zm-28.641-5.277c.95-2.2 3.187-3.939 6.664-5.175.078 2.278-.119 6.223-2.144 8.559a5.692 5.692 0 01-4.557 1.889 7.337 7.337 0 01.037-5.273zm.716-18.145c1.355-1.977 3.887-3.249 7.536-3.794-.488 3.073-2.092 9.109-7.116 9.109a7.817 7.817 0 01-1.469-.145 7.37 7.37 0 011.048-5.169zm-5.73 5.169a7.816 7.816 0 01-1.469.145c-5.008-.005-6.618-6.041-7.116-9.109 3.649.54 6.176 1.817 7.531 3.794a7.35 7.35 0 011.054 5.169zm-.3 18.254a5.726 5.726 0 01-4.553-1.895c-2.029-2.336-2.227-6.285-2.144-8.559 3.472 1.235 5.714 2.969 6.664 5.175a7.379 7.379 0 01.036 5.278zm-28.635-5.278c.95-2.2 3.187-3.939 6.664-5.175.083 2.278-.119 6.223-2.144 8.559a5.692 5.692 0 01-4.557 1.889 7.337 7.337 0 01.037-5.273zm.716-18.145c1.355-1.977 3.887-3.249 7.536-3.794-.488 3.073-2.092 9.109-7.116 9.109a7.735 7.735 0 01-1.469-.145 7.315 7.315 0 011.048-5.169zm-5.734 5.169a7.828 7.828 0 01-1.474.145c-5.008-.005-6.618-6.041-7.116-9.109 3.649.54 6.176 1.817 7.531 3.794a7.33 7.33 0 011.059 5.17zm-.3 18.253a5.726 5.726 0 01-4.557-1.894c-2.021-2.336-2.218-6.283-2.143-8.559 3.472 1.235 5.714 2.969 6.664 5.175a7.356 7.356 0 01.042 5.278zm2.138-33.985h-.13a7.252 7.252 0 01-2.772-4.365c-.42-2.372.509-5.066 2.761-8.008 1.474 2.107 3.358 5.621 2.839 8.559a5.759 5.759 0 01-2.7 3.815zm33.949 0h-.135a7.252 7.252 0 01-2.772-4.365c-.42-2.372.509-5.066 2.761-8.008 1.474 2.107 3.358 5.621 2.839 8.559a5.734 5.734 0 01-2.68 3.814zm33.949 0h-.119a7.359 7.359 0 01-2.792-4.4c-.4-2.367.524-5.045 2.766-7.982 1.474 2.107 3.353 5.616 2.839 8.559a5.731 5.731 0 01-2.694 3.82z" fill="#99a891"/><path data-name="Path 41" d="M53.975 29.47a9.636 9.636 0 009.623-9.625 9.632 9.632 0 00-9.623-9.623 9.635 9.635 0 00-9.622 9.623 9.632 9.632 0 009.622 9.625zm0-16.292a6.674 6.674 0 016.67 6.667 6.681 6.681 0 01-6.669 6.669 6.677 6.677 0 01-6.67-6.669 6.684 6.684 0 016.669-6.668z"/><path data-name="Path 42" d="M52.502 8.331h2.953V.001h-2.953z"/><path data-name="Path 43" d="M52.502 39.907h2.953v-8.33h-2.953z"/><path data-name="Path 44" d="M65.601 21.431h8.33v-2.953h-8.33z"/><path data-name="Path 45" d="M34.025 21.431h8.33v-2.953h-8.33z"/><path data-name="Path 46" d="M63.229 27.126l5.891 5.891-2.086 2.086-5.891-5.891z"/><path data-name="Path 47" d="M44.717 12.779l-5.891-5.89 2.087-2.085 5.891 5.891z"/><path data-name="Path 48" d="M38.826 33.028l5.891-5.891 2.086 2.086-5.891 5.891z"/><path data-name="Path 49" d="M63.24 12.779l-2.086-2.086 5.891-5.889 2.086 2.086z"/></g></svg>