<svg xmlns="http://www.w3.org/2000/svg" width="14.984" height="20.983"><g data-name="Group 197"><path data-name="Path 294" d="M8.192.309C8.178.29 8.159.276 8.15.262a.946.946 0 00-.651-.258.929.929 0 00-.651.258.423.423 0 00-.042.047c-.286.3-.646.674-1.049 1.129a30.569 30.569 0 00-2.74 3.6 16.9 16.9 0 00-3 8.576v.187a6.947 6.947 0 00.511 2.613 7.166 7.166 0 00.712 1.321 7.56 7.56 0 006.267 3.251 7.344 7.344 0 007.494-7.185c0-5.99-4.927-11.588-6.791-13.489zm-.7 18.051a4.7 4.7 0 01-2.056-.473 8.474 8.474 0 006.36-6.066 4.692 4.692 0 01.384 1.855 4.692 4.692 0 01-4.689 4.684z"/></g></svg>