<svg xmlns="http://www.w3.org/2000/svg" width="17.203" height="25.029"><g data-name="Group 153"><g data-name="Group 151"><path data-name="Path 276" d="M14.785 14.178c0 1.349-.562 2.444-1.254 2.444s-1.256-1.094-1.256-2.444a3.775 3.775 0 011.256-2.441 3.782 3.782 0 011.254 2.441z"/><path data-name="Path 277" d="M16.359 18.56c-.953.953-2.129 1.33-2.62.839s-.114-1.661.84-2.62a3.763 3.763 0 012.62-.84 3.788 3.788 0 01-.84 2.621z"/><path data-name="Path 278" d="M16.359 22.234c-.953.954-2.129 1.33-2.62.84s-.114-1.661.84-2.62a3.763 3.763 0 012.62-.84 3.783 3.783 0 01-.84 2.62z"/><path data-name="Path 279" d="M10.719 18.56c.953.953 2.129 1.33 2.62.839s.114-1.661-.84-2.62a3.763 3.763 0 00-2.62-.84 3.835 3.835 0 00.84 2.621z"/><path data-name="Path 280" d="M10.719 22.234c.953.954 2.129 1.33 2.62.84s.114-1.661-.84-2.62a3.763 3.763 0 00-2.62-.84 3.83 3.83 0 00.84 2.62z"/><path data-name="Path 281" d="M13.331 25.029h.4v-8.5h-.4z"/></g><path data-name="Path 282" d="M6.843.528L5.162 4.586h1.369v.888h.576v-.888h1.369zm3.673 8.184v1.92h1.249v-1.92h2.977l-3.6-8.716-3.6 8.716zM3.602 2.565l-3.6 8.716h2.946v1.92h1.249v-1.92h2.978z"/><g data-name="Group 198"><path data-name="Path 294" d="M3.753 16.734c0-.007-.012-.012-.015-.017a.334.334 0 00-.23-.091.328.328 0 00-.23.091.149.149 0 00-.015.017c-.1.1-.228.238-.37.4a10.786 10.786 0 00-.967 1.269 5.964 5.964 0 00-1.059 3.026v.066a2.451 2.451 0 00.18.922 2.529 2.529 0 00.251.466 2.668 2.668 0 002.211 1.147 2.591 2.591 0 002.644-2.535c0-2.114-1.739-4.089-2.4-4.76zm-.248 6.369a1.66 1.66 0 01-.726-.167 2.99 2.99 0 002.244-2.14 1.655 1.655 0 01.136.654 1.656 1.656 0 01-1.654 1.653z"/></g></g></svg>