<svg xmlns="http://www.w3.org/2000/svg" width="35.443" height="35.443"><g data-name="Group 1" stroke="rgba(0,0,0,0)" stroke-miterlimit="10"><path data-name="Path 1" d="M17.721 34.948A17.222 17.222 0 10.5 17.726a17.222 17.222 0 0017.221 17.222"/><path data-name="Path 2" d="M26.361 13.21a7.1 7.1 0 01-2.032.558 3.545 3.545 0 001.555-1.958 7.082 7.082 0 01-2.248.859 3.544 3.544 0 00-6.031 3.227 10.047 10.047 0 01-7.294-3.7 3.545 3.545 0 001.1 4.727 3.539 3.539 0 01-1.6-.442v.044a3.538 3.538 0 002.84 3.47 3.423 3.423 0 01-.934.126 3.5 3.5 0 01-.665-.063 3.539 3.539 0 003.306 2.456 7.167 7.167 0 01-5.24 1.466 10.066 10.066 0 0015.495-8.48c0-.154 0-.307-.01-.458a7.165 7.165 0 001.766-1.833" fill="#fff"/></g></svg>