<svg xmlns="http://www.w3.org/2000/svg" width="17.054" height="18.706"><g data-name="Group 53"><path data-name="Path 26" d="M14.302 13.202a2.963 2.963 0 00-1.65.55l-7.206-4.13a2.421 2.421 0 01.055-.275c0-.055 0-.22-.055-.275l7.206-4.124a2.828 2.828 0 001.65.55 2.724 2.724 0 002.751-2.751 2.724 2.724 0 00-2.751-2.751 2.724 2.724 0 00-2.751 2.751.5.5 0 00.055.275L4.401 7.149a2.7 2.7 0 00-1.65-.55A2.724 2.724 0 000 9.35a2.724 2.724 0 002.751 2.751 2.963 2.963 0 001.65-.55l7.206 4.125c0 .11-.055.165-.055.275a2.724 2.724 0 002.751 2.751 2.724 2.724 0 002.751-2.751 2.727 2.727 0 00-2.752-2.749z"/></g></svg>