<svg xmlns="http://www.w3.org/2000/svg" width="51" height="54.825"><g data-name="Group 233"><path data-name="Path 307" d="M25.5 0a1.409 1.409 0 00-1.275 1.275V5.1A1.325 1.325 0 0025.5 6.392 1.325 1.325 0 0026.775 5.1V1.275A1.331 1.331 0 0025.5 0zm17.212 7.61a1.162 1.162 0 00-.159.02 1.287 1.287 0 00-.737.379l-2.55 2.55a1.325 1.325 0 00-.027 1.82 1.324 1.324 0 001.82-.007l2.55-2.55a1.3 1.3 0 00.316-1.414 1.31 1.31 0 00-1.213-.8zm-34.565.02a1.3 1.3 0 00-1.081.852 1.31 1.31 0 00.324 1.34l2.55 2.55a1.324 1.324 0 001.82.007 1.325 1.325 0 00-.027-1.82l-2.55-2.55a1.3 1.3 0 00-1.036-.379zM25.5 11.475A14.114 14.114 0 0011.475 25.5c0 10.023 6.763 11.5 7.57 17.85h12.91c.807-6.345 7.57-7.827 7.57-17.85A14.114 14.114 0 0025.5 11.475zm18.487 14.663a1.375 1.375 0 001.275 1.275h4.462A1.309 1.309 0 0051 26.138a1.309 1.309 0 00-1.275-1.275h-4.462a1.324 1.324 0 00-1.276 1.275zM0 26.138a1.377 1.377 0 001.275 1.275H5.1a1.325 1.325 0 001.292-1.275A1.325 1.325 0 005.1 24.863H1.275A1.326 1.326 0 000 26.138zM11.634 38.53a1.29 1.29 0 00-.877.4L7.471 42.2a1.325 1.325 0 00-.027 1.82 1.324 1.324 0 001.82-.007l3.287-3.287a1.308 1.308 0 00.289-1.409 1.306 1.306 0 00-1.205-.782zm27.572 0a1.3 1.3 0 00-1.081.852 1.31 1.31 0 00.324 1.34l3.287 3.287a1.324 1.324 0 001.82.007 1.325 1.325 0 00-.027-1.82l-3.287-3.267a1.289 1.289 0 00-.916-.4.955.955 0 00-.12 0zM19.125 45.9v6.375a2.554 2.554 0 002.55 2.55h7.65a2.554 2.554 0 002.55-2.55V45.9z" fill="#99a891"/></g></svg>