<svg xmlns="http://www.w3.org/2000/svg" width="291.374" height="247.825"><defs><clipPath id="a"><path data-name="Rectangle 69" fill="#99a891" d="M0 0h243.493v67.695H0z"/></clipPath></defs><g data-name="Group 230"><g data-name="Group 226"><path data-name="Line 45" fill="none" stroke="#8c8b8b" stroke-linejoin="round" stroke-width=".148" d="M36.14 185.938h11.431"/><path data-name="Line 46" fill="none" stroke="#8c8b8b" stroke-linejoin="round" stroke-width=".148" d="M36.14 62.006h11.431"/><path data-name="Line 47" fill="none" stroke="#8c8b8b" stroke-linejoin="round" stroke-width=".148" d="M36.14 11.727h11.431"/><path data-name="Line 48" fill="none" stroke="#8c8b8b" stroke-linejoin="round" stroke-width=".148" d="M35.937 227.462h242.93"/><path data-name="Line 49" fill="none" stroke="#8c8b8b" stroke-linejoin="round" stroke-width=".196" d="M36.152 227.456V11.727"/><path data-name="Line 50" fill="none" stroke="#8c8b8b" stroke-linejoin="round" stroke-width=".196" d="M129.503 227.455v-15.532"/><text data-name="0" transform="translate(25.374 226.923)" fill="#43403e" font-size="10" font-family="OpenSans, Open Sans" opacity=".3"><tspan x="0" y="0">0</tspan></text><text data-name="0,5" transform="translate(17.374 186.599)" fill="#43403e" font-size="10" font-family="OpenSans, Open Sans" opacity=".3"><tspan x="0" y="0">0,5</tspan></text><text data-name="1,5" transform="translate(17.374 67.913)" fill="#43403e" font-size="10" font-family="OpenSans, Open Sans" opacity=".3"><tspan x="0" y="0">1,5</tspan></text><text data-name="2" transform="translate(25.374 11)" fill="#43403e" font-size="10" font-family="OpenSans, Open Sans" opacity=".3"><tspan x="0" y="0">2</tspan></text><text data-name="1" transform="translate(25.374 130.869)" fill="#43403e" font-size="10" font-family="OpenSans, Open Sans"><tspan x="0" y="0">1</tspan></text><path data-name="Line 51" fill="none" stroke="#100f0c" stroke-linecap="round" stroke-linejoin="round" stroke-width=".294" d="M36.14 123.972h.075"/><path data-name="Line 52" fill="none" stroke="#100f0c" stroke-linecap="round" stroke-linejoin="round" stroke-dasharray="2 4" opacity=".2" d="M38.739 123.972h240.128"/><path data-name="Line 53" fill="none" stroke="#7a7707" stroke-linejoin="round" stroke-width=".735" d="M37.193 118.839h0"/><text data-name="Index multi-espèces (1990 = 1)" transform="rotate(-90 102.422 91.422)" font-size="10" font-family="OpenSans, Open Sans" opacity=".5"><tspan x="0" y="0">Index multi-espèces (1990 = 1)</tspan></text><text data-name="2000" transform="translate(129.374 244.825)" font-size="10" font-family="OpenSans, Open Sans" opacity=".3"><tspan x="-11.436" y="0">2000</tspan></text><text data-name="1990" transform="translate(34.374 244.825)" font-size="10" font-family="OpenSans, Open Sans" opacity=".3"><tspan x="-11.436" y="0">1990</tspan></text><text data-name="2018" transform="translate(279.374 244.825)" font-size="10" font-family="OpenSans, Open Sans" opacity=".3"><tspan x="-11.436" y="0">2018</tspan></text><text data-name="2010" transform="translate(224.374 244.825)" font-size="10" font-family="OpenSans, Open Sans" opacity=".3"><tspan x="-11.436" y="0">2010</tspan></text><path data-name="Line 54" fill="none" stroke="#8c8b8b" stroke-linejoin="round" stroke-width=".196" d="M222.986 227.455v-15.532"/><g data-name="Group 208"><g data-name="Group 207"><g data-name="Group 206"><g data-name="Group 205"><g data-name="Group 204" clip-path="url(#a)" transform="translate(35.374 111.825)"><g data-name="Group 203"><g data-name="Group 202"><g data-name="Group 201" clip-path="url(#a)"><g data-name="Group 200"><g data-name="Group 199" clip-path="url(#a)"><path data-name="Path 295" d="M0 21.2l8.7 2.783 8.691 1.374 8.7 2.709 8.7 2.668 8.7 1.3 8.691 2.588 8.7 1.266h52.182l8.69 2.5 8.7 1.233 8.7 2.424 8.692 3.554 8.7 3.44 8.7 2.241 8.7 1.1 8.69 2.181 8.7 1.07 8.7 1.055 8.7 1.057 8.691 2.064 8.7 2.032 8.7 1.99 8.7 3.859V39.624l-8.7 3.615-8.7 1.192-8.7 1.171-8.691-1.171-8.7-1.192-8.7-1.191-8.7-2.424-8.69-2.486-8.7-1.251-8.7-2.56-8.7-2.593-8.692-4.009-8.7-4.124-8.7-2.816h-8.69l-8.7-1.436h-17.4l-8.691 1.436-8.7 1.415-8.7-1.415h-8.7l-8.691-1.436-8.7-1.441-8.7-1.463-8.7-4.475-8.691-4.611-8.7-6.358z" fill="#99a891"/></g></g></g></g></g></g></g></g></g><path data-name="Path 296" d="M35.374 123.397l8.7 3.764 8.692 3.271 8.7 2.789 8.7 2.275 8.7 1.835 8.692 1.476 8.7 1.178 8.7.359 8.7-.6 8.691-.765 8.7-.108 8.7.406 8.7.542 8.691 1.191 8.7 2.445 8.7 3.324 8.692 3.439 8.7 2.817 8.7 2.214 8.7 2.032 8.691 1.807 8.7 1.6 8.7 1.428 8.7 1.226 8.692 1.009 8.7.827 8.7.649 8.7.468" fill="none" stroke="#533a54" stroke-linejoin="round" stroke-width=".982"/></g></g></g></svg>