<svg xmlns="http://www.w3.org/2000/svg" width="291.374" height="247.825"><defs><clipPath id="a"><path data-name="Rectangle 72" fill="#99a891" d="M0 0h242.493v20.433H0z"/></clipPath><clipPath id="b"><path data-name="Rectangle 71" fill="#99a891" d="M0 0h242.494v20.433H0z"/></clipPath></defs><g data-name="Group 4"><path data-name="Line 45" fill="none" stroke="#8c8b8b" stroke-linejoin="round" stroke-width=".148" d="M36.14 185.938h11.431"/><path data-name="Line 46" fill="none" stroke="#8c8b8b" stroke-linejoin="round" stroke-width=".148" d="M36.14 62.006h11.431"/><path data-name="Line 47" fill="none" stroke="#8c8b8b" stroke-linejoin="round" stroke-width=".148" d="M36.14 11.727h11.431"/><path data-name="Line 48" fill="none" stroke="#8c8b8b" stroke-linejoin="round" stroke-width=".148" d="M35.937 227.462h242.93"/><path data-name="Line 49" fill="none" stroke="#8c8b8b" stroke-linejoin="round" stroke-width=".196" d="M36.152 227.456V11.727"/><path data-name="Line 50" fill="none" stroke="#8c8b8b" stroke-linejoin="round" stroke-width=".196" d="M129.503 227.455v-15.532"/><text data-name="0" transform="translate(25.374 226.923)" fill="#43403e" font-size="10" font-family="OpenSans, Open Sans" opacity=".3"><tspan x="0" y="0">0</tspan></text><text data-name="0,5" transform="translate(17.374 186.599)" fill="#43403e" font-size="10" font-family="OpenSans, Open Sans" opacity=".3"><tspan x="0" y="0">0,5</tspan></text><text data-name="1,5" transform="translate(17.374 67.913)" fill="#43403e" font-size="10" font-family="OpenSans, Open Sans" opacity=".3"><tspan x="0" y="0">1,5</tspan></text><text data-name="2" transform="translate(25.374 11)" fill="#43403e" font-size="10" font-family="OpenSans, Open Sans" opacity=".3"><tspan x="0" y="0">2</tspan></text><text data-name="1" transform="translate(25.374 130.869)" fill="#43403e" font-size="10" font-family="OpenSans, Open Sans"><tspan x="0" y="0">1</tspan></text><path data-name="Line 51" fill="none" stroke="#100f0c" stroke-linecap="round" stroke-linejoin="round" stroke-width=".294" d="M36.14 123.972h.075"/><path data-name="Line 52" fill="none" stroke="#100f0c" stroke-linecap="round" stroke-linejoin="round" stroke-dasharray="2 4" opacity=".2" d="M38.739 123.972h240.128"/><path data-name="Line 53" fill="none" stroke="#7a7707" stroke-linejoin="round" stroke-width=".735" d="M37.193 118.839h0"/><text data-name="Multisoortenindex (1990 = 1)" transform="rotate(-90 102.422 91.422)" font-size="10" font-family="OpenSans, Open Sans" opacity=".5"><tspan x="0" y="0">Multisoortenindex (1990 = 1)</tspan></text><text data-name="2000" transform="translate(129.374 244.825)" font-size="10" font-family="OpenSans, Open Sans" opacity=".3"><tspan x="-11.436" y="0">2000</tspan></text><text data-name="1990" transform="translate(34.374 244.825)" font-size="10" font-family="OpenSans, Open Sans" opacity=".3"><tspan x="-11.436" y="0">1990</tspan></text><text data-name="2018" transform="translate(279.374 244.825)" font-size="10" font-family="OpenSans, Open Sans" opacity=".3"><tspan x="-11.436" y="0">2018</tspan></text><text data-name="2010" transform="translate(224.374 244.825)" font-size="10" font-family="OpenSans, Open Sans" opacity=".3"><tspan x="-11.436" y="0">2010</tspan></text><path data-name="Line 54" fill="none" stroke="#8c8b8b" stroke-linejoin="round" stroke-width=".196" d="M222.986 227.455v-15.532"/><g data-name="Group 224"><g data-name="Group 223"><g data-name="Group 222"><g data-name="Group 221"><g data-name="Group 220" clip-path="url(#a)" transform="translate(36.375 107.825)"><g data-name="Group 219"><g data-name="Group 218"><g data-name="Group 217"><g data-name="Group 216" clip-path="url(#b)"><g data-name="Group 215" clip-path="url(#a)"><path data-name="Path 299" d="M242.49 0l-8.66 3.32-8.661 1.636-8.662 1.616h-95.268l-8.662 1.6h-8.661l-8.653 1.59h-8.662l-8.662 1.572-8.662 1.551h-8.661l-8.655 1.539H17.315l-8.662-1.539H0v7.554h60.617l8.661-1.483h8.661l8.662-1.493h8.662l8.653-1.514h8.661l8.662-1.525h34.64l8.661 1.525h25.985l8.655-1.525h17.324l8.662 1.525h8.661l8.662 1.514V0z" fill="#99a891"/></g></g></g></g></g></g></g></g></g><path data-name="Path 300" d="M36.374 124.315l8.654.525 8.662.366 8.662.211 8.661.058 8.662-.115 8.662-.256 8.654-.4 8.662-.647 8.662-.892 8.661-.981 8.662-.832 8.653-.892 8.661-1.006 8.662-.712 8.662-.256 8.661-.031 8.663.076 8.653.076 8.662.18 8.663.333 8.661.123 8.661-.091 8.655-.141 8.662-.224 8.662-.346 8.662-.532 8.661-.648 8.662-.737" fill="none" stroke="#533a54" stroke-linejoin="round" stroke-width=".98"/></g></g></svg>