<svg xmlns="http://www.w3.org/2000/svg" width="291.374" height="247.825"><defs><clipPath id="a"><path fill="none" d="M0 0h241.833v97.322H0z"/></clipPath></defs><g data-name="Group 199"><path data-name="Line 19" fill="none" stroke="#8c8b8b" stroke-linejoin="round" stroke-width=".148" d="M36.14 185.938h11.431"/><path data-name="Line 20" fill="none" stroke="#8c8b8b" stroke-linejoin="round" stroke-width=".148" d="M36.14 62.006h11.431"/><path data-name="Line 22" fill="none" stroke="#8c8b8b" stroke-linejoin="round" stroke-width=".148" d="M36.14 11.727h11.431"/><path data-name="Line 24" fill="none" stroke="#8c8b8b" stroke-linejoin="round" stroke-width=".196" d="M36.152 227.456V11.727"/><path data-name="Line 25" fill="none" stroke="#8c8b8b" stroke-linejoin="round" stroke-width=".196" d="M129.503 227.455v-15.532"/><text data-name="0" transform="translate(25.374 226.923)" fill="#43403e" font-size="10" font-family="OpenSans, Open Sans" opacity=".3"><tspan x="0" y="0">0</tspan></text><text data-name="0,5" transform="translate(17.374 186.599)" fill="#43403e" font-size="10" font-family="OpenSans, Open Sans" opacity=".3"><tspan x="0" y="0">0,5</tspan></text><text data-name="1,5" transform="translate(17.374 67.913)" fill="#43403e" font-size="10" font-family="OpenSans, Open Sans" opacity=".3"><tspan x="0" y="0">1,5</tspan></text><text data-name="2" transform="translate(25.374 11)" fill="#43403e" font-size="10" font-family="OpenSans, Open Sans" opacity=".3"><tspan x="0" y="0">2</tspan></text><text data-name="1" transform="translate(25.374 130.869)" fill="#43403e" font-size="10" font-family="OpenSans, Open Sans"><tspan x="0" y="0">1</tspan></text><path data-name="Line 27" fill="none" stroke="#100f0c" stroke-linecap="round" stroke-linejoin="round" stroke-width=".294" d="M36.14 123.972h.075"/><path data-name="Line 30" fill="none" stroke="#7a7707" stroke-linejoin="round" stroke-width=".735" d="M37.193 118.839h0"/><text data-name="Index multi-espèces (1990 = 1)" transform="rotate(-90 102.422 91.422)" font-size="10" font-family="OpenSans, Open Sans" opacity=".5"><tspan x="0" y="0">Index multi-espèces (1990 = 1)</tspan></text><text data-name="2000" transform="translate(129.374 244.825)" font-size="10" font-family="OpenSans, Open Sans" opacity=".3"><tspan x="-11.436" y="0">2000</tspan></text><text data-name="1990" transform="translate(34.374 244.825)" font-size="10" font-family="OpenSans, Open Sans" opacity=".3"><tspan x="-11.436" y="0">1990</tspan></text><text data-name="zone humides" transform="translate(154.374 19.825)" font-size="14" font-family="OpenSans-Semibold, Open Sans" font-weight="600"><tspan x="-52.616" y="0">ZONE HUMIDES</tspan></text><text data-name="2018" transform="translate(279.374 244.825)" font-size="10" font-family="OpenSans, Open Sans" opacity=".3"><tspan x="-11.436" y="0">2018</tspan></text><g data-name="Group 198"><path data-name="Line 23" fill="none" stroke="#8c8b8b" stroke-linejoin="round" stroke-width=".148" d="M35.937 227.462h242.93"/><path data-name="Line 28" fill="none" stroke="#100f0c" stroke-linecap="round" stroke-linejoin="round" stroke-dasharray="2 4" opacity=".2" d="M38.739 123.972h240.128"/><g data-name="Group 154"><g data-name="Group 162"><g data-name="Group 161"><g data-name="Group 160"><g data-name="Group 159" clip-path="url(#a)" transform="translate(36.374 34.466)"><g data-name="Group 158"><g data-name="Group 157"><g data-name="Group 156" clip-path="url(#a)"><g data-name="Group 155"><g data-name="Group 154" clip-path="url(#a)"><path data-name="Path 283" d="M233.194 11.999l-8.638 7.6-8.639 7.312-8.632 3.541-8.639 1.737-8.638 1.728-8.639 1.72-8.632 1.69h-8.64L155.459 39h-8.638l-8.631 1.675h-17.281l-8.632 3.265-8.639 1.606L95 48.725l-8.639 3.111-8.632 3.049-8.638 4.463-8.64 2.9-8.638 4.248-8.631 2.758-8.639 4.041-8.639 2.627-8.638 2.573-8.633 2.519H-.005v16.307l8.638-3.3 8.633-3.4 8.638-3.51 8.639-2.4 8.639-2.451 8.631-2.488 8.638-1.267 8.64-3.888 8.638-2.649 8.632-1.344L95 67.89l8.638-2.789 8.639-1.412 8.632-1.43 8.639-1.436h25.908l8.638-1.467h8.64l8.632-1.467 8.639-1.489 8.638-3.027 8.639-1.529 8.632-1.544 8.639-1.567h8.638l8.638 1.567V.001z" fill="#d7caa1"/></g></g></g></g></g></g></g></g></g><path data-name="Path 284" d="M36.374 124.326l8.638-2.55 8.633-2.635 8.638-2.681 8.639-2.811 8.639-2.919 8.631-2.957 8.638-2.942 8.64-3.026 8.638-3.111 8.632-2.98 8.638-2.6 8.638-2.473 8.64-2.451 8.631-1.943 8.639-.974 8.639-.208 8.631-.055 8.638-.468 8.639-.714 8.639-.738 8.631-1.221 8.639-1.736 8.638-2.013 8.639-2.366 8.632-2.826 8.639-3.372 8.639-3.848 8.638-4.3" fill="none" stroke="#7a7707" stroke-linejoin="round" stroke-width=".98"/></g><text data-name="2010" transform="translate(224.374 244.825)" font-size="10" font-family="OpenSans, Open Sans" opacity=".3"><tspan x="-11.436" y="0">2010</tspan></text><path data-name="Line 26" fill="none" stroke="#8c8b8b" stroke-linejoin="round" stroke-width=".196" d="M222.986 227.455v-15.532"/><text transform="translate(156.374 156.825)" font-size="107" font-family="WWF"><tspan x="-18.671" y="0">C</tspan></text></g></g></svg>