<svg xmlns="http://www.w3.org/2000/svg" width="821.289" height="400.188"><defs><clipPath id="a"><path data-name="Rectangle 29" fill="none" d="M0 0h821.289v400.188H0z"/></clipPath><clipPath id="b"><path fill="none" d="M0 0h677.346v126.545H0z"/></clipPath></defs><g data-name="Group 197"><g data-name="Group 109"><path data-name="Line 19" fill="none" stroke="#8c8b8b" stroke-linejoin="round" stroke-width=".148" d="M64.766 287.935h11.431"/><path data-name="Line 20" fill="none" stroke="#8c8b8b" stroke-linejoin="round" stroke-width=".148" d="M64.766 101.939h11.431"/><path data-name="Line 22" fill="none" stroke="#8c8b8b" stroke-linejoin="round" stroke-width=".148" d="M64.766 18.605h11.431"/><path data-name="Line 23" fill="none" stroke="#8c8b8b" stroke-linejoin="round" stroke-width=".148" d="M64.563 360.122h679.782"/><path data-name="Line 24" fill="none" stroke="#8c8b8b" stroke-linejoin="round" stroke-width=".196" d="M64.778 360.115V18.605"/><path data-name="Line 25" fill="none" stroke="#8c8b8b" stroke-linejoin="round" stroke-width=".196" d="M307.493 360.114v-14.258"/><path data-name="Line 26" fill="none" stroke="#8c8b8b" stroke-linejoin="round" stroke-width=".196" d="M550.211 360.114v-14.258"/><text data-name="0" transform="translate(39.087 359.583)" fill="#43403e" font-size="14" font-family="OpenSans, Open Sans" opacity=".3"><tspan x="0" y="0">0</tspan></text><text data-name="0,5" transform="translate(30.035 288.611)" fill="#43403e" font-size="14" font-family="OpenSans, Open Sans" opacity=".3"><tspan x="0" y="0">0,5</tspan></text><text data-name="1,5" transform="translate(30.035 105.625)" fill="#43403e" font-size="14" font-family="OpenSans, Open Sans" opacity=".3"><tspan x="0" y="0">1,5</tspan></text><text data-name="2" transform="translate(44.479 17.878)" fill="#43403e" font-size="14" font-family="OpenSans, Open Sans" opacity=".3"><tspan x="0" y="0">2</tspan></text><text data-name="1" transform="translate(44.479 202.69)" fill="#43403e" font-size="14" font-family="OpenSans, Open Sans"><tspan x="0" y="0">1</tspan></text><path data-name="Line 27" fill="none" stroke="#100f0c" stroke-linecap="round" stroke-linejoin="round" stroke-width=".294" d="M64.766 194.937h.075"/><path data-name="Line 28" fill="none" stroke="#100f0c" stroke-linecap="round" stroke-linejoin="round" stroke-dasharray="2 4" opacity=".2" d="M67.365 194.937h675.641"/><path data-name="Line 29" fill="none" stroke="#100f0c" stroke-linecap="round" stroke-linejoin="round" stroke-width=".294" d="M744.27 194.937h.072"/><path data-name="Line 30" fill="none" stroke="#7a7707" stroke-linejoin="round" stroke-width=".735" d="M65.819 187.234h0"/><g data-name="Group 108"><g data-name="Group 107" clip-path="url(#a)"><text data-name="Pourcentages des espèces par" transform="translate(-311.781 210.405)" fill="#100f0c" font-size="9" font-family="WWF"><tspan x="0" y="0">Pourcentages des espèces par</tspan></text><text transform="translate(-311.781 223.995)" fill="#100f0c" font-size="9" font-family="WWF"><tspan x="0" y="0">tendance</tspan></text><text data-name="IPV Belgique - Zones naturelles ouvertes" transform="translate(-314.074 -7.63)" fill="#100f0c" font-size="14" font-family="WWF"><tspan x="0" y="0">IPV Belgique - Zones naturelles ouvertes</tspan></text><path data-name="Path 139" d="M-155.628 298.562l-11.073-43.352c3.786-.223 7.259-.324 11.076-.324z" fill="#c6c6c5"/><path data-name="Path 140" d="M-155.629 298.566l-50.818 36.206c-41.62-13.488-52.6-40.634-24.53-60.633 15.158-10.8 37.369-17.34 64.272-18.928z" fill="#ffca00"/><path data-name="Path 141" d="M-155.625 298.562l90.39 4.566c-5.247 23.989-49.967 41.394-99.891 38.872a156.185 156.185 0 01-41.322-7.229z" fill="#91b508"/><path data-name="Path 142" d="M-155.629 298.562v-43.676c50.194 0 90.885 19.554 90.885 43.676a17.839 17.839 0 01-.495 4.566z" fill="#c90037"/><text data-name="Cet index est composé de" transform="translate(-314.075 25.87)" fill="#100f0c" font-size="5" font-family="OpenSans, Open Sans"><tspan x="0" y="0">Cet index est composé de</tspan></text><text data-name="52 espèces. 2 de ces espèces sont" transform="translate(-314.075 36.795)" fill="#100f0c" font-size="5" font-family="OpenSans, Open Sans"><tspan x="0" y="0">52 espèces. 2 de ces espèces sont</tspan></text><text data-name="des oiseaux, 22 des sauterelles et" transform="translate(-314.075 47.721)" fill="#100f0c" font-size="5" font-family="OpenSans, Open Sans"><tspan x="0" y="0">des oiseaux, 22 des sauterelles et</tspan></text><text data-name="criquets, 2 des reptiles, 1 des" transform="translate(-314.075 58.646)" fill="#100f0c" font-size="5" font-family="OpenSans, Open Sans"><tspan x="0" y="0">criquets, 2 des reptiles, 1 des</tspan></text><text data-name="amphibiens, et 25 des papillons de" transform="translate(-314.075 69.571)" fill="#100f0c" font-size="5" font-family="OpenSans, Open Sans"><tspan x="0" y="0">amphibiens, et 25 des papillons de</tspan></text><text data-name="jour. La tendance générale de cet" transform="translate(-314.075 80.495)" fill="#100f0c" font-size="5" font-family="OpenSans, Open Sans"><tspan x="0" y="0">jour. La tendance générale de cet</tspan></text><text data-name="index est une augmentation" transform="translate(-314.075 91.421)" fill="#100f0c" font-size="5" font-family="OpenSans, Open Sans"><tspan x="0" y="0">index est une augmentation</tspan></text><text data-name="modérée de 0,5 % par an. Sur les 10" transform="translate(-314.075 102.346)" fill="#100f0c" font-size="5" font-family="OpenSans, Open Sans"><tspan x="0" y="0">modérée de 0,5 % par an. Sur les 10</tspan></text><text data-name="dernières années, cette tendance" transform="translate(-314.075 113.271)" fill="#100f0c" font-size="5" font-family="OpenSans, Open Sans"><tspan x="0" y="0">dernières années, cette tendance</tspan></text><text data-name="est de +0,4 % par an et est stable." transform="translate(-314.075 124.196)" fill="#100f0c" font-size="5" font-family="OpenSans, Open Sans"><tspan x="0" y="0">est de +0,4 % par an et est stable.</tspan></text><text data-name="En diminution" transform="translate(-101.686 242.159)" fill="#c90037" font-size="8" font-family="WWF"><tspan x="0" y="0">En diminution</tspan></text><text data-name="En augmentation" transform="translate(-116.528 358.584)" fill="#91b508" font-size="8" font-family="WWF"><tspan x="0" y="0">En augmentation</tspan></text><text transform="translate(-311.451 281.917)" fill="#ffca00" font-size="8" font-family="WWF"><tspan x="0" y="0">Stable</tspan></text><text transform="translate(-259.288 242.869)" fill="#c6c6c5" font-size="8" font-family="WWF"><tspan x="0" y="0">Ince</tspan><tspan y="0" letter-spacing=".012em">r</tspan><tspan y="0">tain</tspan></text><path data-name="Path 143" d="M-118.051 254.192c0 1.9-3.2 3.435-7.149 3.435s-7.151-1.538-7.151-3.435 3.2-3.435 7.151-3.435 7.149 1.538 7.149 3.435" fill="#c90037"/><path data-name="Path 144" d="M-164.262 251.606v-7.465h-32.253" fill="none" stroke="#c6c6c5" stroke-miterlimit="10" stroke-width=".738"/><path data-name="Path 145" d="M-157.113 251.433c0 1.9-3.2 3.435-7.149 3.435s-7.151-1.538-7.151-3.435 3.2-3.435 7.151-3.435 7.149 1.538 7.149 3.435" fill="#c6c6c5"/><path data-name="Path 146" d="M-155.363 345.479v14.387h33.918" fill="none" stroke="#91b508" stroke-miterlimit="10" stroke-width=".738"/><path data-name="Path 147" d="M-162.517 345.651c0-1.9 3.2-3.435 7.149-3.435s7.151 1.538 7.151 3.435-3.2 3.435-7.151 3.435-7.149-1.538-7.149-3.435" fill="#91b508"/><path data-name="Path 148" d="M-254.465 303.8h-39.918v-13.678" fill="none" stroke="#ffca00" stroke-miterlimit="10" stroke-width=".738"/><path data-name="Path 149" d="M-254.821 300.364c3.948 0 7.149 1.539 7.149 3.435s-3.2 3.437-7.149 3.437-7.149-1.538-7.149-3.437 3.2-3.435 7.149-3.435" fill="#ffca00"/><text data-name="26,9 %" transform="translate(-133.157 283.413)" fill="#161615" font-size="8" font-family="WWF"><tspan x="0" y="0">26,9</tspan><tspan y="0" letter-spacing=".05em"> </tspan><tspan y="0">%</tspan></text><text data-name="32,7 %" transform="translate(-157.977 318.824)" fill="#161615" font-size="8" font-family="WWF"><tspan x="0" y="0">32,7</tspan><tspan y="0" letter-spacing=".05em"> </tspan><tspan y="0">%</tspan></text><text data-name="38,5 %" transform="translate(-226.436 294.063)" fill="#161615" font-size="8" font-family="WWF"><tspan x="0" y="0">38,5</tspan><tspan y="0" letter-spacing=".05em"> </tspan><tspan y="0">%</tspan></text><text data-name="1,9" transform="translate(-172.705 270.415)" fill="#161615" font-size="8" font-family="WWF"><tspan x="0" y="0">1,9</tspan></text><text data-name="IPV Belgique - Zones" transform="translate(-290.425 161.954)" fill="#100f0c" font-size="5" font-family="OpenSans, Open Sans"><tspan x="0" y="0">IPV Belgique - Zones</tspan></text><text data-name="naturelles ouvertes" transform="translate(-290.425 172.879)" fill="#100f0c" font-size="5" font-family="OpenSans, Open Sans"><tspan x="0" y="0">naturelles ouvertes</tspan></text><path data-name="Path 150" d="M-288.691 187.474v-6.064h1.469v6.064zm11.192 0v-2.941a.881.881 0 00-.528-.828 3.725 3.725 0 00-1.647-.275 4.652 4.652 0 00-2.177.384 1.347 1.347 0 00-.691 1.273v2.387h-1.433v-4.546h1.167l.232.623h.07a3.242 3.242 0 011.234-.521 7.842 7.842 0 011.77-.185 6.444 6.444 0 012.572.4 1.321 1.321 0 01.863 1.267v2.962zm7.435-.486q.379 0 .734-.026a9.8 9.8 0 00.562-.057v.528a5.012 5.012 0 01-.688.089c-.3.024-.572.035-.814.035q-2.744 0-2.744-1.389v-2.7h-1.357v-.332l1.355-.286.6-.971h.83v1.054h2.744v.535h-2.74v2.676a.685.685 0 00.4.63 2.361 2.361 0 001.117.213zm7.182.568a7.426 7.426 0 01-3.311-.613 1.883 1.883 0 01-1.211-1.705 1.952 1.952 0 011.126-1.746 6.055 6.055 0 013.025-.648 5.926 5.926 0 012.814.562 1.675 1.675 0 011.036 1.484v.435h-6.518a1.406 1.406 0 00.84 1.216 4.974 4.974 0 002.25.415 14.981 14.981 0 003.02-.307v.613a14.01 14.01 0 01-1.435.227c-.454.044-.998.066-1.637.066zm-.389-4.135a3.914 3.914 0 00-1.817.357 1.405 1.405 0 00-.8.987h4.948a1.1 1.1 0 00-.606-1 3.522 3.522 0 00-1.726-.345zm10.625-.577c.42 0 .8.017 1.131.049l-.2.639a10.142 10.142 0 00-1.036-.058 4.026 4.026 0 00-1.964.448 1.3 1.3 0 00-.814 1.116v2.436h-1.432v-4.546h1.18l.165.842h.07a3.726 3.726 0 011.268-.685 5.283 5.283 0 011.627-.242zm4.968 4.629l-3.59-4.546h1.536l2.038 2.7a9.512 9.512 0 01.812 1.228h.067a6.578 6.578 0 01.6-.91q.506-.691 2.265-3.014h1.539l-3.592 4.543zm12.6 0l-.286-.646h-.067a4.6 4.6 0 01-1.412.578 8.5 8.5 0 01-1.757.151 5.622 5.622 0 01-2.2-.348c-.533-.233-.8-.562-.8-.992q0-1.376 4.582-1.443l1.605-.025v-.282a.838.838 0 00-.479-.79 3.411 3.411 0 00-1.531-.255 11.93 11.93 0 00-2.675.348l-.441-.526a11.6 11.6 0 011.531-.286 13.5 13.5 0 011.67-.1 6.552 6.552 0 012.507.36 1.208 1.208 0 01.817 1.158v3.1zm-3.237-.486a5.121 5.121 0 002.1-.352 1.094 1.094 0 00.763-.988v-.41l-1.433.028a10.159 10.159 0 00-2.464.255c-.505.151-.755.385-.755.7 0 .249.155.438.469.568a3.549 3.549 0 001.324.199zm8.682.486h-1.433v-6.455h1.433zm4.471 0h-1.429v-6.455h1.433zm7.038.083a7.426 7.426 0 01-3.311-.613 1.882 1.882 0 01-1.214-1.705 1.955 1.955 0 011.129-1.746 6.049 6.049 0 013.025-.648 5.926 5.926 0 012.814.562 1.675 1.675 0 011.036 1.484v.435h-6.517a1.406 1.406 0 00.84 1.216 4.974 4.974 0 002.25.415 14.982 14.982 0 003.02-.307v.613a13.944 13.944 0 01-1.438.227c-.448.044-.994.066-1.631.066zm-.389-4.135a3.914 3.914 0 00-1.817.357 1.4 1.4 0 00-.8.987h4.945a1.093 1.093 0 00-.6-1 3.528 3.528 0 00-1.725-.345zm17.346 3.443h-.08a5.191 5.191 0 01-2.969.692 5.7 5.7 0 01-2.886-.609 1.914 1.914 0 01-1.033-1.734 1.94 1.94 0 011.036-1.746 5.612 5.612 0 012.884-.623 5.4 5.4 0 012.953.672h.111l-.059-.328-.036-.319v-1.85h1.433v6.455h-1.165zm-2.866.116a4.435 4.435 0 002.126-.384 1.323 1.323 0 00.66-1.238v-.145a1.492 1.492 0 00-.667-1.38 4.221 4.221 0 00-2.136-.412 3.338 3.338 0 00-1.93.471 1.529 1.529 0 00-.667 1.329 1.479 1.479 0 00.665 1.315 3.516 3.516 0 001.952.443zm11.259.576a7.426 7.426 0 01-3.311-.613 1.883 1.883 0 01-1.211-1.705 1.952 1.952 0 011.126-1.746 6.055 6.055 0 013.025-.648 5.926 5.926 0 012.814.562 1.675 1.675 0 011.036 1.484v.435h-6.517a1.406 1.406 0 00.84 1.216 4.974 4.974 0 002.25.415 14.981 14.981 0 003.02-.307v.613a14.009 14.009 0 01-1.435.227c-.451.044-.995.066-1.634.066zm-.389-4.135a3.914 3.914 0 00-1.817.357 1.405 1.405 0 00-.8.987h4.948a1.1 1.1 0 00-.606-1 3.521 3.521 0 00-1.722-.345zm17.078 3.9a10.076 10.076 0 01-2.391.237 6.8 6.8 0 01-3.18-.607 1.881 1.881 0 01-1.126-1.72 1.93 1.93 0 011.144-1.762 6.916 6.916 0 013.257-.623 13.217 13.217 0 011.363.071 8.41 8.41 0 011.072.166l-.441.584a13.03 13.03 0 00-1.036-.151 9.562 9.562 0 00-.992-.059q-2.884 0-2.884 1.766a1.436 1.436 0 00.7 1.287 3.925 3.925 0 002.085.448 12.516 12.516 0 002.425-.245v.609zm10.408-2.124a1.915 1.915 0 01-1.165 1.736 6.882 6.882 0 01-3.219.624 8.1 8.1 0 01-2.255-.286 3.477 3.477 0 01-1.518-.821 1.711 1.711 0 01-.536-1.253 1.907 1.907 0 011.157-1.731 6.869 6.869 0 013.211-.62 6.624 6.624 0 013.154.635 1.914 1.914 0 011.174 1.714zm-7.208 0a1.472 1.472 0 00.727 1.328 4.031 4.031 0 002.131.457 4.09 4.09 0 002.136-.454 1.469 1.469 0 00.729-1.33 1.452 1.452 0 00-.729-1.316 4.16 4.16 0 00-2.154-.451 4.09 4.09 0 00-2.123.445 1.458 1.458 0 00-.714 1.319zm16.194 2.277v-2.941a.883.883 0 00-.526-.828 3.737 3.737 0 00-1.649-.275 4.647 4.647 0 00-2.175.386 1.342 1.342 0 00-.691 1.273v2.385h-1.429v-4.546h1.165l.234.623h.067a3.26 3.26 0 011.234-.521 7.875 7.875 0 011.77-.185 6.435 6.435 0 012.572.4 1.321 1.321 0 01.863 1.267v2.962zm8.646-4.011h-2.406v4.011h-1.433v-4.011h-1.69v-.311l1.69-.249v-.253q0-1.676 3.046-1.677a12.633 12.633 0 011.763.146l-.371.551a9.528 9.528 0 00-1.417-.129 2.187 2.187 0 00-1.2.26.923.923 0 00-.389.831v.295h2.409zm1.605-1.767a.362.362 0 01.24-.346 1.682 1.682 0 011.2 0 .364.364 0 010 .691 1.638 1.638 0 01-1.2 0 .368.368 0 01-.237-.347zm1.554 5.778h-1.433v-4.546h1.433zm8.86 0l-.286-.646h-.07a4.586 4.586 0 01-1.41.578 8.517 8.517 0 01-1.757.151 5.645 5.645 0 01-2.206-.348c-.531-.233-.8-.562-.8-.992q0-1.376 4.584-1.443l1.605-.025v-.282a.838.838 0 00-.479-.79 3.418 3.418 0 00-1.531-.255 11.951 11.951 0 00-2.677.348l-.441-.526a11.561 11.561 0 011.533-.286 13.441 13.441 0 011.67-.1 6.552 6.552 0 012.507.36 1.208 1.208 0 01.817 1.158v3.1zm-3.237-.486a5.1 5.1 0 002.1-.352 1.093 1.093 0 00.765-.988v-.41l-1.433.028a10.184 10.184 0 00-2.466.255c-.5.151-.755.385-.755.7q0 .373.472.568a3.54 3.54 0 001.32.198zm13.72.486v-2.941a.883.883 0 00-.526-.828 3.73 3.73 0 00-1.649-.275 4.647 4.647 0 00-2.175.386 1.342 1.342 0 00-.691 1.273v2.385h-1.433v-4.546h1.166l.235.623h.07a3.224 3.224 0 011.234-.521 7.835 7.835 0 011.768-.185 6.435 6.435 0 012.572.4 1.317 1.317 0 01.863 1.267v2.962zm10.553-.154a10.061 10.061 0 01-2.391.237 6.8 6.8 0 01-3.18-.607 1.886 1.886 0 01-1.126-1.72 1.93 1.93 0 011.144-1.762 6.923 6.923 0 013.257-.623 13.179 13.179 0 011.363.071 8.41 8.41 0 011.072.166l-.441.584a13.03 13.03 0 00-1.036-.151 9.563 9.563 0 00-.992-.059q-2.884 0-2.884 1.766a1.436 1.436 0 00.7 1.287 3.926 3.926 0 002.085.448 12.5 12.5 0 002.425-.245v.609zm6.239.237a7.422 7.422 0 01-3.309-.613 1.882 1.882 0 01-1.214-1.705 1.957 1.957 0 011.126-1.746 6.062 6.062 0 013.025-.648 5.926 5.926 0 012.814.562 1.675 1.675 0 011.036 1.484v.435h-6.517a1.408 1.408 0 00.843 1.216 4.959 4.959 0 002.25.415 14.981 14.981 0 003.02-.307v.613a14.166 14.166 0 01-1.438.227q-.674.066-1.636.065zm-.387-4.135a3.913 3.913 0 00-1.817.357 1.4 1.4 0 00-.8.987h4.945a1.093 1.093 0 00-.6-1 3.528 3.528 0 00-1.725-.346zm10.094 1.725a3.525 3.525 0 01.667-2.057 5.834 5.834 0 011.93-1.68h1.4a6.175 6.175 0 00-1.871 1.758 3.558 3.558 0 00-.624 1.97 3.449 3.449 0 00.637 1.946 6.394 6.394 0 001.84 1.735h-1.381a5.7 5.7 0 01-1.933-1.647 3.444 3.444 0 01-.662-2.027zm13.684-1.149q0 3.559-5.734 3.559a11.841 11.841 0 01-1.587-.083v-.593a10.3 10.3 0 001.572.108 6.333 6.333 0 003.128-.615 2.244 2.244 0 001.152-1.89h-.1a3.441 3.441 0 01-1.26.525 7.93 7.93 0 01-1.77.181 6.111 6.111 0 01-2.657-.482 1.48 1.48 0 01-.984-1.344 1.663 1.663 0 011.1-1.493 6.529 6.529 0 012.9-.547 7.185 7.185 0 012.247.317 3.218 3.218 0 011.482.925 2.139 2.139 0 01.513 1.43zm-4.247-2.087a3.912 3.912 0 00-1.91.383 1.173 1.173 0 00-.673 1.061 1.04 1.04 0 00.621.94 4.062 4.062 0 001.892.342 6.364 6.364 0 001.446-.154 2.975 2.975 0 001.039-.419.719.719 0 00.381-.556 1.151 1.151 0 00-.353-.8 2.413 2.413 0 00-.99-.581 4.581 4.581 0 00-1.45-.218zm8.03 1.954q.993-.095 1.977-.1a8.385 8.385 0 013.139.476q1.144.474 1.144 1.3c0 .628-.417 1.119-1.247 1.476a8.951 8.951 0 01-3.44.535 12.322 12.322 0 01-3.255-.327v-.664a8.659 8.659 0 001.5.292 15.08 15.08 0 001.77.105 6.421 6.421 0 002.361-.344q.839-.344.84-1 0-1.269-3.237-1.269-.819 0-2.193.121l-.742-.229.477-2.837h6.275v.635h-5.043l-.32 1.821zm17.92-.646a1.665 1.665 0 01-.66 1.429 3.263 3.263 0 01-1.938.483 3.112 3.112 0 01-1.879-.494 1.865 1.865 0 01-.026-2.837 3.173 3.173 0 011.9-.477 3.232 3.232 0 011.925.493 1.638 1.638 0 01.684 1.401zm-3.953 0a1.528 1.528 0 00.32 1.058 1.332 1.332 0 001.036.352 1.406 1.406 0 100-2.812 1.34 1.34 0 00-1.036.349 1.509 1.509 0 00-.317 1.051zm9.331-1.809l-7 6.064h-1.268l7-6.064zm2.226 4.239a1.659 1.659 0 01-.66 1.425 3.263 3.263 0 01-1.938.483 3.114 3.114 0 01-1.886-.493 1.868 1.868 0 01-.018-2.833 3.173 3.173 0 011.9-.477 3.266 3.266 0 011.912.487 1.625 1.625 0 01.692 1.406zm-3.963 0a1.536 1.536 0 00.32 1.06 1.357 1.357 0 001.046.35 1.233 1.233 0 001.415-1.411 1.431 1.431 0 00-.345-1.051 1.467 1.467 0 00-1.069-.342 1.38 1.38 0 00-1.046.342 1.508 1.508 0 00-.318 1.05zm9.388-.5a3.435 3.435 0 01-.667 2.032 5.721 5.721 0 01-1.93 1.64h-1.381a6.3 6.3 0 001.837-1.733 3.443 3.443 0 00.639-1.948 3.561 3.561 0 00-.626-1.97 6.133 6.133 0 00-1.868-1.758h1.4a5.8 5.8 0 011.933 1.687 3.538 3.538 0 01.666 2.046z" fill="#100f0c"/></g></g><text data-name="Index multi-espèces (1990 = 1)" transform="rotate(-90 148.117 128.491)" fill="#161615" font-size="10" font-family="OpenSans-Bold, Open Sans" font-weight="700" opacity=".5"><tspan x="0" y="0" letter-spacing="-.005em">In</tspan><tspan y="0" letter-spacing="-.004em">de</tspan><tspan y="0" letter-spacing="-.005em">x</tspan><tspan y="0" letter-spacing="-.004em"> m</tspan><tspan y="0" letter-spacing="-.005em">ulti</tspan><tspan y="0" letter-spacing="-.004em">-e</tspan><tspan y="0" letter-spacing="-.005em">s</tspan><tspan y="0" letter-spacing="-.004em">pè</tspan><tspan y="0" letter-spacing="-.005em">c</tspan><tspan y="0" letter-spacing="-.004em">e</tspan><tspan y="0" letter-spacing="-.005em">s</tspan><tspan y="0" letter-spacing="-.004em"> (1990 = 1</tspan><tspan y="0">)</tspan></text><g data-name="Group 154"><g data-name="Group 162"><g data-name="Group 161"><g data-name="Group 160"><g data-name="Group 159" clip-path="url(#b)" transform="translate(65 77.703)"><g data-name="Group 158"><g data-name="Group 157"><g data-name="Group 156" clip-path="url(#b)"><g data-name="Group 155"><g data-name="Group 154" clip-path="url(#b)"><path data-name="Path 283" d="M653.149 15.602l-24.194 9.878-24.2 9.508-24.178 4.6-24.2 2.258-24.194 2.247-24.2 2.237-24.176 2.2h-24.2l-24.194 2.176h-24.181l-24.176 2.178h-48.392l-24.178 4.246-24.2 2.088-24.19 4.133-24.2 4.045-24.176 3.965-24.194 5.8-24.2 3.775-24.194 5.523-24.171 3.592-24.2 5.254-24.2 3.416-24.194 3.346-24.181 3.275H0v21.2l24.194-4.3 24.181-4.424 24.194-4.564 24.2-3.126 24.2-3.187 24.176-3.235 24.194-1.648 24.2-5.055 24.194-3.445 24.176-1.748 24.2-3.555 24.194-3.627 24.2-1.836 24.178-1.859 24.2-1.867h72.566l24.194-1.908h24.2l24.176-1.908 24.2-1.936 24.194-3.936 24.2-1.988 24.178-2.008 24.2-2.037h24.16l24.194 2.037V.001z" fill="#d7caa1"/></g></g></g></g></g></g></g></g></g><path data-name="Path 284" d="M65 194.554l24.194-3.316 24.181-3.426 24.194-3.486 24.2-3.655 24.2-3.8 24.176-3.845 24.194-3.826 24.2-3.935 24.194-4.045 24.178-3.875 24.194-3.377 24.184-3.214 24.2-3.187 24.176-2.527 24.2-1.267 24.2-.27 24.176-.071 24.194-.608 24.2-.929 24.2-.96 24.176-1.587 24.2-2.257 24.194-2.617 24.2-3.077 24.178-3.675 24.2-4.385 24.2-5 24.194-5.592" fill="none" stroke="#7a7707" stroke-linejoin="round" stroke-width=".98"/></g></g><text data-name="2000" transform="translate(309 376.703)" font-size="10" font-family="OpenSans, Open Sans" opacity=".3"><tspan x="-11.436" y="0">2000</tspan></text><text data-name="2010" transform="translate(549 376.703)" font-size="10" font-family="OpenSans, Open Sans" opacity=".3"><tspan x="-11.436" y="0">2010</tspan></text><text data-name="2018" transform="translate(739 376.703)" font-size="10" font-family="OpenSans, Open Sans" opacity=".3"><tspan x="-11.436" y="0">2018</tspan></text></g></svg>