<svg xmlns="http://www.w3.org/2000/svg" width="291.374" height="247.825"><g data-name="Group 3"><path data-name="Line 45" fill="none" stroke="#8c8b8b" stroke-linejoin="round" stroke-width=".148" d="M36.14 185.938h11.431"/><path data-name="Line 46" fill="none" stroke="#8c8b8b" stroke-linejoin="round" stroke-width=".148" d="M36.14 62.006h11.431"/><path data-name="Line 47" fill="none" stroke="#8c8b8b" stroke-linejoin="round" stroke-width=".148" d="M36.14 11.727h11.431"/><path data-name="Line 48" fill="none" stroke="#8c8b8b" stroke-linejoin="round" stroke-width=".148" d="M35.937 227.462h242.93"/><path data-name="Line 49" fill="none" stroke="#8c8b8b" stroke-linejoin="round" stroke-width=".196" d="M36.152 227.456V11.727"/><path data-name="Line 50" fill="none" stroke="#8c8b8b" stroke-linejoin="round" stroke-width=".196" d="M129.503 227.455v-15.532"/><text data-name="0" transform="translate(25.374 226.923)" fill="#43403e" font-size="10" font-family="OpenSans, Open Sans" opacity=".3"><tspan x="0" y="0">0</tspan></text><text data-name="0,5" transform="translate(17.374 186.599)" fill="#43403e" font-size="10" font-family="OpenSans, Open Sans" opacity=".3"><tspan x="0" y="0">0,5</tspan></text><text data-name="1,5" transform="translate(17.374 67.913)" fill="#43403e" font-size="10" font-family="OpenSans, Open Sans" opacity=".3"><tspan x="0" y="0">1,5</tspan></text><text data-name="2" transform="translate(25.374 11)" fill="#43403e" font-size="10" font-family="OpenSans, Open Sans" opacity=".3"><tspan x="0" y="0">2</tspan></text><text data-name="1" transform="translate(25.374 130.869)" fill="#43403e" font-size="10" font-family="OpenSans, Open Sans"><tspan x="0" y="0">1</tspan></text><path data-name="Line 51" fill="none" stroke="#100f0c" stroke-linecap="round" stroke-linejoin="round" stroke-width=".294" d="M36.14 123.972h.075"/><path data-name="Line 52" fill="none" stroke="#100f0c" stroke-linecap="round" stroke-linejoin="round" stroke-dasharray="2 4" opacity=".2" d="M38.739 123.972h240.128"/><path data-name="Line 53" fill="none" stroke="#7a7707" stroke-linejoin="round" stroke-width=".735" d="M37.193 118.839h0"/><text data-name="Multisoortenindex (1990 = 1)" transform="rotate(-90 102.422 91.422)" font-size="10" font-family="OpenSans, Open Sans" opacity=".5"><tspan x="0" y="0">Multisoortenindex (1990 = 1)</tspan></text><text data-name="2000" transform="translate(129.374 244.825)" font-size="10" font-family="OpenSans, Open Sans" opacity=".3"><tspan x="-11.436" y="0">2000</tspan></text><text data-name="1990" transform="translate(34.374 244.825)" font-size="10" font-family="OpenSans, Open Sans" opacity=".3"><tspan x="-11.436" y="0">1990</tspan></text><text data-name="2018" transform="translate(279.374 244.825)" font-size="10" font-family="OpenSans, Open Sans" opacity=".3"><tspan x="-11.436" y="0">2018</tspan></text><text data-name="2010" transform="translate(224.374 244.825)" font-size="10" font-family="OpenSans, Open Sans" opacity=".3"><tspan x="-11.436" y="0">2010</tspan></text><path data-name="Line 54" fill="none" stroke="#8c8b8b" stroke-linejoin="round" stroke-width=".196" d="M222.986 227.455v-15.532"/><g data-name="Group 213"><g data-name="Group 212"><g data-name="Group 211"><path data-name="Path 297" d="M36.375 131.277l8.659 3.371 8.662 3.27 8.66 4.208 8.66 4.05 8.66 3.889 8.66 3.735 8.66 3.6 8.66 2.6 8.66 3.345 8.66 3.21 8.66 2.339 8.66 1.513 8.67 2.205 8.66 2.141 8.66 1.4 8.66 2.039 8.659 1.98 8.66 1.934 8.66 1.867 8.66 2.4 8.66 2.313 8.66 1.676 8.661 2.156 8.661 2.081 8.66 2.47 8.66 2.805 8.66 2.657 8.659 3.285v-12.255l-8.659-.516-8.66-1.059-8.66-1.62-8.66-2.243-8.661-2.332-8.661-2.426-8.66-2.536-8.66-1.969-8.66-2.7-8.66-2.83-8.66-2.192-8.659-1.5-8.66-2.3-8.66-2.374-8.66-1.62-8.661-1.66-8.66-2.547-8.66-2.623-8.66-2.709-8.667-2.793-8.66-3.852-8.66-2.992-8.66-4.12-8.66-4.293-8.66-4.475-8.66-4.654-8.662-6.09-8.659-7.709z" fill="#99a891"/></g></g></g><path data-name="Path 298" d="M36.374 124.485l8.66 4.863 8.661 4.558 8.66 4.3 8.66 4.061 8.66 3.854 8.659 3.611 8.66 3.32 8.66 3.128 8.66 2.993 8.66 2.774 8.661 2.515 8.66 2 8.661 1.644 8.66 1.846 8.66 1.982 8.66 1.837 8.659 1.856 8.66 2.006 8.66 2.219 8.66 2.258 8.66 2.194 8.66 2.127 8.66 2.152 8.661 2.128 8.66 2.078 8.66 2.02 8.66 1.963 8.66 1.938" fill="none" stroke="#533a54" stroke-linejoin="round" stroke-width=".98"/></g></svg>