<svg data-name="Component 1" xmlns="http://www.w3.org/2000/svg" width="75.63" height="84.087"><path data-name="Rectangle 1" fill="#fff" d="M0 0h75.63v84.087H0z"/><g data-name="Group 1" fill="#1a1818"><path data-name="Path 1" d="M31.164 62.779a.93.93 0 00-.872.6l-1.778 4.446-.157.505-.142-.515-1.373-4.323a.085.085 0 00-.016-.04v-.012a.937.937 0 00-.879-.62h-2.22a.936.936 0 00-.9.927 2.3 2.3 0 00.107.474l.29.9-1.088 2.7-.172.5-.14-.505-1.366-4.332a.117.117 0 01-.021-.04v-.012a.936.936 0 00-.879-.62h-2.217a.94.94 0 00-.9.927 1.663 1.663 0 00.111.474l3.321 9.786a.931.931 0 00.9.695.92.92 0 00.891-.646l2.328-5.8.171-.517.139.512 1.959 5.76a.924.924 0 00.905.695.939.939 0 00.9-.672l3.936-9.916a.964.964 0 00.095-.4.939.939 0 00-.941-.934"/><path data-name="Path 2" d="M47.721 62.779a.946.946 0 00-.881.6l-1.768 4.446-.17.505-.129-.515-1.385-4.323a.078.078 0 00-.005-.04v-.012a.945.945 0 00-.887-.62h-2.218a.929.929 0 00-.888.927 1.675 1.675 0 00.106.474l.291.9-1.093 2.7-.178.5-.133-.505-1.368-4.332c-.014-.019-.014-.033-.023-.04v-.012a.919.919 0 00-.872-.62h-2.219a.933.933 0 00-.9.927 2.164 2.164 0 00.107.474l3.334 9.786a.921.921 0 00.9.695.937.937 0 00.891-.646l2.325-5.8.164-.517.147.512 1.951 5.76a.942.942 0 001.812.023l3.938-9.916a.926.926 0 00-.846-1.333"/><path data-name="Path 3" d="M58.475 62.8h-7.762a.8.8 0 00-.809.8v10.191a.875.875 0 00.869.835h2.2a.875.875 0 00.86-.861v-4.759l3.163-.008a.84.84 0 10-.019-1.681h-3.14v-2.722h4.685a.9.9 0 00-.045-1.8"/><path data-name="Path 4" d="M46.436 30.329c1.413 1.563 1.565 6.215 5.114 4.364 2.134-1.111 2.1-5.806-.742-7.5-2.3-1.346-3.564.469-4.4 2.695a.42.42 0 00.026.44"/><path data-name="Path 5" d="M40.922 29.585c-1.484 1.216-2.5 4.549-5.232 3.417-2.206-1.109-2.417-5.427 1.385-7.423 2.648-1.2 3.992 1.181 4.011 3.711a.527.527 0 01-.164.3"/><path data-name="Path 6" d="M44.585 38.086c1.465-.149 1.135-1.492.024-1.83a13.576 13.576 0 00-3.563-.463c-1.885.043-1.838 1.466-.857 1.707a3.062 3.062 0 011.86 1.156c.584 1.122.325-.336 2.534-.57"/><path data-name="Path 7" d="M51.5 14.047a4.185 4.185 0 016.648-.932c1.765 1.64 2.05 3.534 1.372 4.867-.921 1.788-3.277 3.959-4.811 1.857a8.721 8.721 0 00-2.9-2.356c-1.206-.5-1.435-1.578-.309-3.436"/><path data-name="Path 8" d="M44.71 41.244c-.8 2.1-4.967 1.378-5.1-.653 0-.081.111-.062.159-.052a22.59 22.59 0 004.814.627c.044 0 .143-.025.125.078m14.119-13.843c-.166-.536-.435-.507-.423-.064.15 5.521-3.187 11.434-10.326 11.475-1.827 0-1.278 2.893-4.608 1.441-2.4-1.6-3.777 1.55-5.485-1.84a2.216 2.216 0 00-1.662-1.547c-7.049-1.726-9.3-11.315-3.086-19.056 1.23.724 1.679.836 2.989-.352a9.224 9.224 0 012.456-1.54c1.494-.565 2.3-1.194 1.01-4.01-1.656-3.655-5.051-2.623-6.6-1.36-1.752 1.43-2.983 3.73-.726 6.44-6.314 4.21-7.4 9.381-7.252 13.875.15 4.781-1.088 4.374.456 9.24.136.426-.166.417-.4.279-6.582-4.166-10.14-16.865.118-23.868.231-.2.136-.471-.708.017-8.88 4.641-9.7 13.629-8.222 19.685.719 2.933-.375 3.474.776 7.327 2.642 8.03 4.9 8.665 8.078 8.9 5.793 0 1.864-3.157 2.076-7.123 0-.232.286-.345.45.132 3.188 7.067 5.44 13.5 13.819 12.9 4.852-.624 2.161-3.006 1.864-4.355-3.568-11.7 5.089-14.458 2.638-3.05-1.618 6.535 3.5 5.88 7.1 3.536 3.714-2.41 8.357-18.319 5.668-27.073"/><path data-name="Path 9" d="M24.568 53.587a1.839 1.839 0 101.851 1.835 1.852 1.852 0 00-1.851-1.835m1.551 1.835a1.551 1.551 0 11-1.551-1.528 1.545 1.545 0 011.551 1.528"/><path data-name="Path 10" d="M25.095 55.71a.46.46 0 01-.484.378.617.617 0 01-.584-.669.579.579 0 01.582-.651.47.47 0 01.486.362h.26a.709.709 0 00-.753-.634.848.848 0 00-.872.922.867.867 0 00.882.927.751.751 0 00.757-.636z"/><path data-name="Path 11" d="M57.233 57.971a1.837 1.837 0 101.856 1.836 1.841 1.841 0 00-1.856-1.836m1.552 1.836a1.555 1.555 0 11-1.552-1.526 1.544 1.544 0 011.552 1.526"/><path data-name="Path 12" d="M56.91 59.704v-.54h.361c.184 0 .381.048.381.259 0 .268-.2.28-.43.28zm0 .23h.3l.468.747h.29l-.5-.766a.453.453 0 00.458-.471c0-.346-.2-.493-.615-.493h-.677v1.73h.274z"/></g></svg>