<svg xmlns="http://www.w3.org/2000/svg" width="155.872" height="48.777"><g data-name="Group 86"><path data-name="Path 88" d="M48.375 39.502c-1.771-.276-2.823-.525-2.823-1.273 0-.526.692-1.135 2.38-1.135 1.356 0 2.158.526 2.38 1.19h3.791c-.47-2.684-2.906-4.455-6.171-4.455-4.123 0-6.088 2.324-6.088 4.566 0 3.182 3.4 3.874 5.95 4.262 2.49.387 2.988.719 2.988 1.522 0 .83-1.107 1.273-2.574 1.273a3.227 3.227 0 01-3.044-1.66h-3.708c.443 3.072 3.127 4.981 6.752 4.981 3.653 0 6.254-1.993 6.254-4.815.001-3.099-2.545-3.874-6.087-4.456z" fill="#1a1818"/><path data-name="Path 89" d="M32.991 34.192a1.822 1.822 0 011.742 1.7v6.63a2.646 2.646 0 01-2.767 2.712 2.492 2.492 0 01-2.684-2.712v-6.615a1.822 1.822 0 011.744-1.716h-5.4v8.219c0 3.735 2.352 6.365 6.337 6.365a6.131 6.131 0 006.42-6.365v-8.219z" fill="#1a1818"/><path data-name="Path 90" d="M15.496 33.833a5.931 5.931 0 00-4.538 2.02 5.722 5.722 0 00-4.538-2.02A6.116 6.116 0 000 40.198v8.246h5.4a1.822 1.822 0 01-1.744-1.728v-6.6a2.615 2.615 0 012.767-2.712 2.468 2.468 0 012.657 2.712v6.585a1.823 1.823 0 01-1.747 1.744h7.142a1.822 1.822 0 01-1.742-1.7v-6.628a2.63 2.63 0 012.767-2.712 2.492 2.492 0 012.685 2.712v6.6a1.823 1.823 0 01-1.746 1.731h5.4v-8.246c-.01-3.74-2.358-6.369-6.343-6.369z"/><path data-name="Path 91" d="M106.762 33.825a5.931 5.931 0 00-4.538 2.02 5.722 5.722 0 00-4.538-2.02 6.116 6.116 0 00-6.42 6.365v8.242h5.4a1.823 1.823 0 01-1.744-1.728v-6.6a2.615 2.615 0 012.767-2.712 2.467 2.467 0 012.657 2.712v6.586a1.824 1.824 0 01-1.747 1.744h7.142a1.822 1.822 0 01-1.742-1.7v-6.626a2.63 2.63 0 012.767-2.712 2.491 2.491 0 012.685 2.711v6.6a1.824 1.824 0 01-1.746 1.732h5.4v-8.246c-.006-3.739-2.354-6.368-6.343-6.368z" fill="#1a1818"/><path data-name="Path 92" d="M82.077 34.188a1.822 1.822 0 011.741 1.7v6.63a2.646 2.646 0 01-2.767 2.712 2.492 2.492 0 01-2.684-2.712v-6.615a1.823 1.823 0 011.745-1.716h-5.4v8.219c0 3.736 2.353 6.365 6.337 6.365a6.132 6.132 0 006.42-6.365v-8.219z" fill="#1a1818"/><path data-name="Path 93" d="M64.276 33.834a7.474 7.474 0 00-.049 14.942v-3.209a3.627 3.627 0 01-3.549-2.822h10.765c.525-5.646-2.961-8.911-7.167-8.911zm-3.542 5.922a3.647 3.647 0 013.514-2.712 3.571 3.571 0 013.569 2.712z" fill="#937600"/><path data-name="Path 94" d="M134.497.013L111.156.001a2.033 2.033 0 011.959 1.731c0 5.089.007 19.654.007 19.656A21.375 21.375 0 10134.498.013z" fill="#937600"/><path data-name="Path 95" d="M149.144 16.725a12.74 12.74 0 00-1.3-.786c-.17-.065-.194-.387-.551-.447a6.119 6.119 0 01-1.255-.2c-.99-.23-1.529.58-1.809 1.245-.2.47-.951 2.073-1.067 2.519-.218.836-.771.649-.852.514a14.524 14.524 0 00-4.39-4.384c-3.863-2.444-6.331-1.239-8.942-1.165-4.124.116-4.828.242-7.407-.605a11 11 0 01-6.709-6.33c-1.418-2.691-1.131-5.586-2.4-6.581a2.123 2.123 0 00-1.309-.5 1.731 1.731 0 011.136.8c1.3 2.269-.3 8.477 4.678 14.562 2.462 3.008 6.89 4.579 7.621 4.992 1.006.569 1.019.639 1.328 1.152a5.827 5.827 0 01.86 1.67c.406 1.581-1.754 4.091-1.838 4.252a1.692 1.692 0 00-.2 1.028 7.176 7.176 0 01-.344 2.082 3.152 3.152 0 00-.331 1.489c.012.569.516.693.92.656a6.944 6.944 0 011.206.029 4.685 4.685 0 001.336-.094c.283-.053.486.188.694.142.121-.027.349-.78-.472-1-.394-.107-.256.02-.691-.567s0-1.795.233-2.4a2.524 2.524 0 011.513-1.176c1.306-.549 1.547-2.57 2.614-2.535.64.02.724.3 1.518.28 1.054-1.3.99-2.321-.651-2.553-2.488-.351-2.8-1.962-5.572-3.856a35.746 35.746 0 00-5.974-3.134 30.178 30.178 0 016.552 2.953c2.669 1.731 2.816 2.889 5.663 3.184 4.05.421.679 4.443.367 4.885s-.027.956.536 1.684c.62.8 1.091 1.127 1.331 1.572.424.783-.257.682-.44 1.332a2.248 2.248 0 00-.154 1.236c.111.346.279.031.529-.074.279-.118.322.1.391.4.061.265.1.528.237.55.17.027.583-.528.66-.793.064-.223.277-.311.42-.151.1.117.18.456.283.476.185.036.354-.34.383-.489a2.977 2.977 0 00-.282-1.867c-.251-.641-.172-1.442-.621-2.07a1.579 1.579 0 01.493-2.386 3.288 3.288 0 001.61-1.877 4.074 4.074 0 00.307-2.32 6.421 6.421 0 00-1.416-2.711 5.923 5.923 0 011.867 2.755 3.923 3.923 0 01-.062 2.1 3.461 3.461 0 01-1.2 2.044 6.137 6.137 0 001.149.4 3.915 3.915 0 011.836-2.181l-.992 1.53a1.607 1.607 0 00-.167.523c-.095.453-.266 2.432-.3 2.69-.063.442-.18.5-.251.577a2.855 2.855 0 00-.631.64c-.288.414-.294.8-.2.844.131.065.537-.6.76-.261.165.25-.145 1.23.465 1.422a2.4 2.4 0 00.734-.009c.417.024.466.057.534.015.107-.089.052-.534-.206-.663-.1-.051-.088-.269 0-.545a2.58 2.58 0 00.2-1.027c-.04-.426-.235-.351-.056-1.014a4.292 4.292 0 011.036-2.176c.024-.031.049-.069.074-.109 0 0 .094-.048.1.222.007.2.1.269.265.465.229.278.073.694.133.89.033.107.285.266.573.039s.269-.291.527-.343c.3-.06.178-.77-.061-1.3-.092-.2-.151-.469.072-.608.351-.219.7-.091.714-.234.013-.168-.364-.409-1.253-.461-.1-.006-.179-.128-.24-.228a7.769 7.769 0 00.908-1.213 6.679 6.679 0 01.353-.932 12.472 12.472 0 001.352-2.035c.288-.861.241-1.923.429-2.631.024-.1.218-.084.42-.113a1.323 1.323 0 00.7-.2 1.3 1.3 0 01.786-.186c.349-.036.877.066 1.105-.053s.085-.19.176-.342c.267-.433.221-.695-.091-.925zm-1.888-.138c-.233.028-.437-.074-.455-.23s.157-.3.39-.331.438.075.455.23-.157.304-.39.331z" fill="#fff"/></g></svg>